<svg width="113" height="22" viewBox="0 0 113 22" fill="none" xmlns="http://www.w3.org/2000/svg">
<g clip-path="url(#clip0_471_51)">
<path d="M24.8044 9.98317C24.1869 9.80013 23.6908 9.67359 23.2077 9.50652C21.7868 9.01575 21.0918 8.03666 21.09 6.47773C21.0889 5.49679 21.1131 4.51401 21.1836 3.53615C21.299 1.93361 22.1474 0.864841 23.6002 0.393722C24.323 0.159084 25.1075 0.0331656 25.8652 0.0282517C30.4007 -0.0030743 34.9361 0.0128958 39.4721 0.0221094C39.8048 0.0227236 40.1429 0.0669486 40.4691 0.138814C41.6963 0.408464 42.5198 1.29665 42.6252 2.72106C42.717 3.9569 42.7004 5.22039 42.563 6.45193C42.3529 8.33947 41.1925 9.41684 39.4526 9.85602C38.9588 9.98071 38.4562 10.0667 37.9358 10.259C38.1063 10.3167 38.2774 10.3732 38.4468 10.4328C39.1353 10.6742 39.8404 10.8763 40.5081 11.168C41.3305 11.5274 41.7455 12.2116 41.7401 13.1514C41.7324 14.5009 41.7715 15.8522 41.7082 17.1992C41.6265 18.9461 40.5028 20.7741 38.2348 20.9368C37.7434 20.9725 37.2509 21.0136 36.7589 21.0142C32.4597 21.0191 28.1611 21.0228 23.8619 21.0069C23.2752 21.0044 22.6772 20.9442 22.1036 20.8171C20.8148 20.5308 20.0824 19.6592 20.0132 18.2833C19.9646 17.3257 20.0149 16.3614 20.0528 15.4013C20.0842 14.6053 20.1351 13.808 20.2239 13.0163C20.3749 11.6754 21.1954 10.7295 22.4771 10.4236C23.2024 10.2504 23.9424 10.1441 24.8038 9.9844L24.8044 9.98317ZM31.3526 7.86713C31.3526 7.86713 31.3526 7.8616 31.3526 7.85914C32.0423 7.85914 32.7332 7.88863 33.4205 7.85116C34.2227 7.80755 34.6768 7.29097 34.6886 6.46053C34.6999 5.64298 34.7046 4.82482 34.6898 4.00727C34.678 3.34021 34.324 2.89796 33.6834 2.87953C32.3058 2.83961 30.9258 2.82978 29.5488 2.87646C28.7543 2.90349 28.3701 3.3353 28.3233 4.16329C28.2759 4.99865 28.27 5.83954 28.3014 6.67551C28.3304 7.46296 28.7395 7.83949 29.5203 7.86283C30.1307 7.88125 30.7417 7.86651 31.3526 7.86651V7.86713ZM31.2123 12.945V12.9469C30.6404 12.9469 30.0674 12.926 29.4967 12.9555C29.2078 12.9702 28.9118 13.0445 28.64 13.1502C28.2617 13.2976 28.0178 13.6182 27.9971 14.0341C27.9521 14.9529 27.9207 15.8749 27.9432 16.7938C27.958 17.389 28.2292 17.7225 28.7993 17.7981C30.3077 17.9983 31.8274 18.0057 33.3353 17.7969C33.977 17.7078 34.292 17.2692 34.3139 16.5991C34.3405 15.7816 34.3376 14.9615 34.3204 14.1434C34.3092 13.5906 34.0179 13.2202 33.5058 13.0697C33.2625 12.9985 33.0038 12.9591 32.7504 12.9499C32.2383 12.9321 31.725 12.9444 31.2117 12.9444L31.2123 12.945Z" fill="#9C9C9C"/>
<path d="M18.8642 20.0793C17.7251 20.785 16.5796 21.0129 15.3772 21.0129C11.155 21.0129 6.93211 21.0129 2.70986 21.0141C2.01898 21.0141 1.32869 21.0166 0.637808 21.0135C0.444219 21.0123 0.25063 20.9939 -0.000976562 20.9803V16.5554C0.158868 16.6008 0.306279 16.6236 0.437707 16.6838C1.41039 17.1328 2.42806 17.2998 3.49073 17.2882C5.9766 17.2611 8.46247 17.2654 10.9489 17.2507C11.2438 17.2489 11.5427 17.2341 11.8322 17.1819C12.2206 17.1119 12.5119 16.849 12.5201 16.4448C12.5486 15.037 12.5308 13.6286 12.5308 12.1599C12.3047 12.1384 12.1152 12.1059 11.9264 12.1059C9.9727 12.101 8.01965 12.0838 6.06659 12.1126C5.58942 12.1194 5.11463 12.2809 4.63095 12.3731C4.49005 11.9695 4.46341 8.62499 4.62503 8.01321C5.41182 8.60288 6.31168 8.46652 7.18846 8.47021C8.74723 8.47635 10.306 8.47266 11.8648 8.47143C12.0424 8.47143 12.2218 8.47942 12.397 8.45669C13.0618 8.3707 13.4549 7.98434 13.4745 7.29394C13.5076 6.12812 13.4869 4.96046 13.4952 3.79403C13.4976 3.48138 13.3578 3.34502 13.0636 3.35424C12.9061 3.35915 12.7481 3.35301 12.59 3.35301C9.94606 3.35301 7.30212 3.35178 4.65818 3.35485C3.7157 3.35608 2.759 3.26026 1.8467 3.85238C1.81355 3.63249 1.76678 3.49981 1.77981 3.37389C1.84019 2.76457 1.86802 2.14603 1.99707 1.55145C2.20842 0.577277 2.85846 0.060705 3.81279 0.00972346C3.85245 0.00788075 3.89152 0.00788075 3.93119 0.00788075C8.60752 0.00788075 13.2838 0.00726651 17.9602 0.00972346C18.9702 0.00972346 19.8309 0.399149 20.6124 1.11473C20.4733 1.41509 20.3501 1.68904 20.2205 1.96054C19.6924 3.068 19.2857 4.21232 19.1916 5.45922C19.1259 6.32652 19.2395 7.17355 19.4094 8.01751C19.5059 8.496 19.5965 8.97511 19.6924 9.47018C19.2721 9.81231 18.7434 9.74106 18.2112 9.97693C18.741 10.1213 19.1963 10.2453 19.7173 10.3872C18.1869 13.529 17.4712 16.7016 18.8642 20.0793Z" fill="#9C9C9C"/>
<path d="M110.854 17.4343C110.78 17.9779 110.72 18.4546 110.648 18.93C110.567 19.4754 110.481 20.0203 110.386 20.5632C110.311 20.9926 110.277 21.0282 109.842 21.0325C109.211 21.0387 108.58 21.0166 107.949 21.0166C103.631 21.0147 99.3117 21.0166 94.993 21.0147C94.7171 21.0147 94.4395 21.0184 94.166 20.9889C92.593 20.8182 91.5741 19.7107 91.5309 18.0682C91.5143 17.4386 91.58 16.8011 91.6623 16.1745C91.9773 13.7852 92.3135 11.3982 92.6433 9.0107C92.6966 8.62619 92.7564 8.24291 92.8114 7.85901C92.9138 7.1422 93.2809 6.60843 93.8753 6.24664C94.4779 5.87994 95.1215 5.63793 95.8331 5.63793C100.231 5.63671 104.628 5.63425 109.026 5.63486C109.818 5.63486 110.54 5.87749 111.182 6.36089C111.87 6.8793 112.227 7.57216 112.163 8.46772C112.07 9.75208 111.972 11.0365 111.873 12.3202C111.807 13.174 111.736 14.0272 111.662 14.9473C111.413 14.9676 111.186 15.002 110.96 15.0026C107.292 15.0069 103.624 15.0069 99.9559 15.0081C99.7232 15.0081 99.4911 15.0081 99.2259 15.0081C99.0294 15.7741 98.8743 16.4835 98.8908 17.2267C98.9003 17.6548 99.114 17.9294 99.4917 18.0338C99.7735 18.1118 100.074 18.1475 100.366 18.1481C102.93 18.1548 105.494 18.1518 108.057 18.1456C108.912 18.1438 109.75 18.0455 110.5 17.559C110.578 17.5087 110.677 17.4958 110.852 17.4362L110.854 17.4343ZM102.471 12.1918C102.471 12.1955 102.471 12.1998 102.471 12.2035C103.1 12.2035 103.731 12.2201 104.359 12.1986C104.974 12.1777 105.209 11.956 105.287 11.3245C105.364 10.698 105.415 10.0672 105.456 9.43637C105.491 8.9155 105.255 8.62005 104.732 8.60899C103.454 8.58135 102.175 8.57582 100.897 8.59732C100.297 8.60715 100.038 8.90935 99.9618 9.55614C99.8978 10.1028 99.8428 10.6501 99.7836 11.1974C99.7114 11.8694 99.9245 12.1562 100.582 12.1851C101.21 12.2127 101.841 12.1912 102.47 12.1912L102.471 12.1918Z" fill="#9C9C9C"/>
<path d="M61 7.05906H69.149C69.149 7.32564 69.1704 7.56396 69.1455 7.79737C68.9259 9.89069 68.6991 11.9834 68.4724 14.0755C68.3711 15.0097 68.2622 15.9434 68.1622 16.8782C68.0278 18.135 68.1876 18.353 69.39 18.3432C70.4917 18.334 71.5953 18.2861 72.6934 18.1927C73.2677 18.1442 73.2487 18.0821 73.2902 17.5054C73.4252 15.6086 73.5744 13.7131 73.7111 11.8169C73.8212 10.2875 73.9467 8.75804 74.0119 7.22613C74.0326 6.73413 73.8822 6.23414 73.8082 5.7231C74.135 5.59902 80.9106 5.5634 81.6678 5.71634C81.6471 6.02407 81.6341 6.34286 81.6027 6.66042C81.264 10.0774 80.9207 13.4932 80.5826 16.9102C80.4962 17.7848 80.4033 18.6595 80.3547 19.5366C80.3304 19.9758 80.3985 20.4211 80.4281 20.9291C80.3683 20.9457 80.2452 21.0096 80.122 21.0096C77.9132 21.0157 75.7044 21.0157 73.4956 21.0114C73.3636 21.0114 73.231 20.9666 73.0504 20.9334C73.0747 20.5096 73.0978 20.1091 73.1221 19.6834C72.7935 19.6552 72.6331 19.888 72.5081 20.0981C72.1115 20.7627 71.5201 21.0133 70.8073 21.0071C68.7571 20.9887 66.7058 20.9973 64.658 20.9088C63.9867 20.88 63.2976 20.6588 62.6659 20.3972C61.4197 19.8806 60.8928 18.7953 60.727 17.471C60.6027 16.4802 60.7791 15.5128 60.9005 14.5411C61.0574 13.2843 61.2735 12.0344 61.3978 10.7746C61.512 9.61367 61.5488 8.44232 61.0473 7.33915C61.0171 7.2722 61.0207 7.18866 61 7.05906Z" fill="#9C9C9C"/>
<path d="M90.3432 20.968H81.8892C81.8644 20.8949 81.83 20.8445 81.8425 20.8243C82.425 19.8482 82.4451 18.7217 82.6133 17.6407C82.9365 15.5621 83.2574 13.4817 83.5078 11.3933C83.8026 8.93942 84.0554 6.47879 84.2561 4.01448C84.3337 3.06426 84.2348 2.09622 84.1809 1.13863C84.162 0.801412 84.0365 0.470339 83.9607 0.139266C84.4053 -0.0265774 91.3343 -0.0554465 92.0163 0.113468C92.008 0.278084 92.0097 0.454983 91.9896 0.629426C91.6889 3.22703 91.3751 5.8234 91.085 8.42285C90.7316 11.5905 90.3971 14.7605 90.0549 17.93C90.0135 18.3163 89.9679 18.7021 89.9335 19.0891C89.8791 19.7064 89.8649 20.3188 90.3444 20.9686L90.3432 20.968Z" fill="#9C9C9C"/>
<path d="M50.4336 11.7115C50.3738 12.4682 50.3199 13.1562 50.266 13.8441C50.1145 15.7796 49.9588 17.7138 49.8179 19.6499C49.8007 19.8882 49.8552 20.1339 49.8949 20.3734C49.9239 20.5485 49.9837 20.7174 50.0292 20.8876C49.526 21.0614 42.4994 21.062 41.9873 20.8863C42.8333 19.7266 42.6699 18.3268 42.8386 17.0142C43.1145 14.8674 43.3057 12.709 43.5307 10.5555C43.6005 9.88844 43.6633 9.22076 43.7355 8.49412C43.9954 8.47815 44.2233 8.45235 44.4513 8.45235C48.7688 8.4499 53.0864 8.45235 57.404 8.4499C58.2849 8.4499 59.183 8.55985 60.0627 7.91797C60.1119 9.40258 60.0899 10.7521 60.0858 12.0942C59.9822 12.1071 59.9331 12.1298 59.9082 12.1132C59.2742 11.7004 58.5726 11.6992 57.8551 11.7053C55.6273 11.7238 53.3996 11.7121 51.1718 11.7121C50.9563 11.7121 50.7414 11.7121 50.433 11.7121L50.4336 11.7115Z" fill="#9C9C9C"/>
<path d="M43.8389 3.56026V0.632812H60.7747C60.8214 1.68438 60.7989 2.69419 60.7865 3.69293C58.0011 3.53385 55.2659 3.62721 52.5326 3.61186C49.7904 3.5965 47.0476 3.61186 44.3048 3.61063C44.1704 3.61063 44.036 3.58237 43.8389 3.56026Z" fill="#9C9C9C"/>
</g>
<defs>
<clipPath id="clip0_471_51">
<rect width="112.171" height="21.032" fill="white"/>
</clipPath>
</defs>
</svg>
