<svg width="43" height="42" viewBox="0 0 43 42" fill="none" xmlns="http://www.w3.org/2000/svg">
<g clip-path="url(#clip0_471_40)">
<path d="M22.5789 8.94699L26.0602 13.3913C26.1185 10.1398 28.8024 7.52326 32.0891 7.52326C35.3759 7.52326 38.1181 10.1976 38.1181 13.4875C38.1181 16.7775 35.4148 19.4518 32.0891 19.4518C30.2221 19.4518 28.5495 18.6053 27.441 17.2777C27.4215 17.2585 27.4021 17.22 27.3632 17.1815L20.7508 8.69688L19.6423 7.27315C19.545 7.15771 19.4672 7.02303 19.37 6.90759C17.7363 4.90667 15.3831 3.50218 12.6798 3.11739C12.1741 3.04043 11.6685 3.00195 11.1628 3.00195C5.32837 3.04043 0.583008 7.7349 0.583008 13.4875C0.583008 19.2402 5.30892 23.9346 11.1434 23.9346C15.3248 23.9346 18.9227 21.5297 20.6341 18.0473L17.1723 13.603C17.114 16.8352 14.4301 19.4711 11.1434 19.4711C7.85664 19.4711 5.11444 16.7968 5.11444 13.5068C5.11444 10.2168 7.81774 7.5425 11.1434 7.5425C12.991 7.5425 14.6441 8.3698 15.7526 9.65886L21.2176 16.6428L23.7069 19.8366C25.3406 21.953 27.7716 23.4152 30.5527 23.8192C31.0584 23.8962 31.564 23.9346 32.0891 23.9346C37.9041 23.9346 42.6495 19.2594 42.6495 13.4875C42.6495 7.71566 37.9236 3.04043 32.0891 3.04043C27.9077 3.04043 24.2904 5.44538 22.5789 8.92775V8.94699Z" fill="#9C9C9C"/>
<path d="M4.78426 0V3.52085C2.68385 4.75218 0.991859 6.63767 0 8.86946V0H4.78426Z" fill="#9C9C9C"/>
<path d="M4.78426 23.4521V26.973H0V18.1035C0.991859 20.3545 2.66441 22.2208 4.78426 23.4521Z" fill="#9C9C9C"/>
<path d="M38.2158 23.4521V26.973H43.0001V18.1035C42.0082 20.3545 40.3357 22.2208 38.2158 23.4521Z" fill="#9C9C9C"/>
<path d="M0 41.846V31.6875H8.03211C10.4826 31.6875 11.8829 32.4186 11.8829 34.1117C11.8829 35.3238 11.0855 36.305 9.31569 36.4974C11.2994 36.709 12.3885 37.7095 12.3885 39.114C12.3885 41.0572 10.716 41.846 8.01266 41.846H0ZM2.64496 35.824H7.40977C8.81004 35.824 9.39349 35.42 9.39349 34.6889C9.39349 34.0925 9.08232 33.573 7.74039 33.573H2.64496V35.8048V35.824ZM2.64496 39.9221H7.64315C8.90728 39.9221 9.66576 39.6527 9.66576 38.71C9.66576 37.8442 8.86838 37.4594 7.31253 37.4594H2.64496V39.9221Z" fill="#9C9C9C"/>
<path d="M14.3721 41.846V31.6875H21.4512C24.6213 31.6875 26.3522 32.9381 26.3522 35.1314C26.3522 37.3247 24.6602 38.7677 21.4707 38.7677H17.017V41.846H14.3721ZM16.9976 36.863H21.529C23.0265 36.863 23.6683 36.1511 23.6683 35.1699C23.6683 34.3041 23.0265 33.5922 21.5096 33.5922H16.9976V36.863Z" fill="#9C9C9C"/>
<path d="M28.0635 41.846V31.6875H31.0196L35.4149 38.0943L35.5316 38.3059L35.6483 38.0943L40.0436 31.6875H43.0192V41.846H40.4131V36.1126L40.3547 36.2473L36.6207 41.846H34.4814L30.7473 36.2473L30.6695 36.1126V36.2858V41.846H28.0635Z" fill="#9C9C9C"/>
</g>
<defs>
<clipPath id="clip0_471_40">
<rect width="43" height="42" fill="white"/>
</clipPath>
</defs>
</svg>
