<svg width="23" height="23" viewBox="0 0 23 23" fill="none" xmlns="http://www.w3.org/2000/svg">
<path d="M11.5003 11.0202C10.8649 11.0202 10.2555 10.7678 9.80622 10.3185C9.35691 9.86915 9.10449 9.25976 9.10449 8.62435C9.10449 7.98893 9.35691 7.37954 9.80622 6.93024C10.2555 6.48093 10.8649 6.22852 11.5003 6.22852C12.1357 6.22852 12.7451 6.48093 13.1944 6.93024C13.6437 7.37954 13.8962 7.98893 13.8962 8.62435C13.8962 8.93897 13.8342 9.25052 13.7138 9.54119C13.5934 9.83187 13.4169 10.096 13.1944 10.3185C12.972 10.5409 12.7078 10.7174 12.4172 10.8378C12.1265 10.9582 11.815 11.0202 11.5003 11.0202ZM11.5003 1.91602C9.72116 1.91602 8.01487 2.62278 6.75682 3.88084C5.49876 5.1389 4.79199 6.84519 4.79199 8.62435C4.79199 13.6556 11.5003 21.0827 11.5003 21.0827C11.5003 21.0827 18.2087 13.6556 18.2087 8.62435C18.2087 6.84519 17.5019 5.1389 16.2438 3.88084C14.9858 2.62278 13.2795 1.91602 11.5003 1.91602Z" fill="#5C5C5C"/>
</svg>
