<svg width="134" height="31" viewBox="0 0 134 31" fill="none" xmlns="http://www.w3.org/2000/svg">
<g clip-path="url(#clip0_471_5)">
<path d="M48.5364 9.36125C47.9397 9.08786 47.2553 8.95117 46.4807 8.95117H42.2314V20.055H44.3097V15.9567H46.4807C47.2553 15.9567 47.9372 15.8175 48.5288 15.5393C49.1205 15.261 49.5868 14.8607 49.9277 14.3408C50.2686 13.8184 50.4391 13.1911 50.4391 12.4564C50.4391 11.7216 50.2711 11.0772 49.9352 10.5573C49.5993 10.035 49.133 9.63952 48.5364 9.36613V9.36125ZM48.1302 13.3473C47.9773 13.6061 47.7642 13.8062 47.4885 13.9502C47.2127 14.0942 46.8868 14.1675 46.5108 14.1675H44.3097V10.7404H46.5108C46.8868 10.7404 47.2127 10.8136 47.4885 10.9576C47.7642 11.1016 47.9773 11.2994 48.1302 11.5532C48.2832 11.8071 48.3609 12.1073 48.3609 12.4539C48.3609 12.8005 48.2832 13.0886 48.1302 13.3473Z" fill="#9C9C9C"/>
<path d="M58.2032 12.9441C57.8573 12.578 57.4361 12.2875 56.9423 12.08C56.4484 11.8701 55.8743 11.7676 55.2225 11.7676C54.4479 11.7676 53.7484 11.9506 53.1217 12.3192C52.495 12.6878 52.0011 13.1858 51.6401 13.818C51.2791 14.4502 51.0986 15.1727 51.0986 15.9855C51.0986 16.7984 51.2766 17.4867 51.6326 18.1311C51.9886 18.778 52.49 19.2881 53.1317 19.6665C53.7735 20.0448 54.5231 20.2328 55.3779 20.2328C55.947 20.2328 56.471 20.1473 56.9448 19.9789C57.4186 19.8105 57.8272 19.5762 58.1757 19.2784C58.5216 18.9806 58.7773 18.6364 58.9403 18.2507L57.3208 17.4745C57.1378 17.7918 56.8846 18.0457 56.5637 18.2336C56.2428 18.4216 55.8518 18.5168 55.393 18.5168C54.9342 18.5168 54.5306 18.4118 54.1771 18.2044C53.8262 17.9969 53.5604 17.6991 53.3824 17.3183C53.2746 17.084 53.2044 16.8277 53.1794 16.5518H59.1684C59.2085 16.442 59.2361 16.3126 59.2511 16.1637C59.2662 16.0148 59.2737 15.8708 59.2737 15.7317C59.2737 15.1849 59.1809 14.6772 58.9979 14.2036C58.8149 13.7325 58.5492 13.3127 58.2032 12.9441ZM54.1069 13.6813C54.4328 13.4787 54.8039 13.3762 55.2225 13.3762C55.6412 13.3762 56.0348 13.4811 56.3456 13.6886C56.6565 13.8985 56.8796 14.1792 57.0175 14.5381C57.0801 14.7016 57.1178 14.8749 57.1353 15.0604H53.2195C53.2546 14.8871 53.3022 14.726 53.3649 14.5747C53.5329 14.1817 53.781 13.8839 54.1069 13.6813Z" fill="#9C9C9C"/>
<path d="M65.8921 12.1318C65.3732 11.8877 64.7715 11.7656 64.0897 11.7656C63.5281 11.7656 63.0092 11.8559 62.5304 12.0341C62.0515 12.2123 61.6354 12.4589 61.2844 12.7713C60.9335 13.0837 60.6752 13.4548 60.5123 13.8819L62.1468 14.6581C62.2997 14.292 62.5404 13.9942 62.8738 13.7721C63.2047 13.5475 63.5833 13.4377 64.012 13.4377C64.4707 13.4377 64.8392 13.5548 65.12 13.7892C65.4008 14.0235 65.5412 14.314 65.5412 14.6606V14.9242L63.0643 15.3172C62.4125 15.4173 61.871 15.5857 61.4449 15.8249C61.0162 16.0641 60.7003 16.3595 60.4973 16.711C60.2942 17.0649 60.1914 17.4628 60.1914 17.9095C60.1914 18.3562 60.3092 18.7858 60.5424 19.1397C60.7755 19.4937 61.1089 19.7622 61.5351 19.9526C61.9638 20.1405 62.4677 20.2357 63.0493 20.2357C63.5081 20.2357 63.9242 20.1747 64.3028 20.0502C64.6788 19.9257 65.0172 19.7475 65.3105 19.5132C65.4284 19.4204 65.5412 19.3155 65.6465 19.2032V20.0575H67.5417V14.663C67.5417 14.087 67.3963 13.5817 67.1055 13.1496C66.8147 12.7176 66.4111 12.3807 65.8896 12.1366L65.8921 12.1318ZM65.2729 17.7581C65.0949 18.0657 64.8443 18.3074 64.5234 18.4807C64.2025 18.654 63.834 18.7418 63.4153 18.7418C63.0894 18.7418 62.8162 18.6589 62.598 18.4953C62.3774 18.3318 62.2696 18.1096 62.2696 17.8314C62.2696 17.5531 62.3649 17.309 62.5604 17.1308C62.7535 16.9526 63.0493 16.8281 63.4479 16.7574L65.5412 16.4107V16.7427C65.5412 17.1113 65.4509 17.4481 65.2729 17.7557V17.7581Z" fill="#9C9C9C"/>
<path d="M71.9964 13.8687C72.3374 13.6588 72.7285 13.5563 73.1647 13.5563C73.6335 13.5563 74.0496 13.6808 74.4106 13.9298C74.7716 14.1787 75.0298 14.5058 75.1827 14.9135L76.9401 14.169C76.7772 13.6832 76.5089 13.2634 76.1379 12.9095C75.7669 12.558 75.3256 12.2797 74.8167 12.0746C74.3078 11.8721 73.7563 11.7695 73.1672 11.7695C72.3424 11.7695 71.6004 11.9526 70.9435 12.3212C70.2867 12.6898 69.7678 13.1902 69.3918 13.8272C69.0157 14.4619 68.8252 15.1844 68.8252 15.9875C68.8252 16.7906 69.0132 17.5155 69.3918 18.155C69.7678 18.797 70.2867 19.3023 70.9435 19.6758C71.6004 20.0492 72.3424 20.2347 73.1672 20.2347C73.7688 20.2347 74.3229 20.1322 74.8343 19.9296C75.3432 19.727 75.7819 19.4439 76.1479 19.0802C76.5139 18.7165 76.7797 18.3064 76.9426 17.8499L75.1853 17.0737C75.0323 17.4911 74.7766 17.8231 74.4206 18.0721C74.0647 18.321 73.646 18.4455 73.1672 18.4455C72.7285 18.4455 72.3399 18.3406 71.999 18.1331C71.658 17.9232 71.3898 17.6351 71.1967 17.269C71.0037 16.9028 70.9059 16.4781 70.9059 16.0021C70.9059 15.5261 71.0037 15.1039 71.1967 14.7353C71.3898 14.3691 71.658 14.0787 71.999 13.8712L71.9964 13.8687Z" fill="#9C9C9C"/>
<path d="M84.9943 12.9441C84.6483 12.578 84.2271 12.2875 83.7333 12.08C83.2394 11.8701 82.6653 11.7676 82.0135 11.7676C81.2389 11.7676 80.5395 11.9506 79.9127 12.3192C79.286 12.6878 78.7921 13.1858 78.4311 13.818C78.0701 14.4502 77.8896 15.1727 77.8896 15.9855C77.8896 16.7984 78.0676 17.4867 78.4236 18.1311C78.7796 18.778 79.2785 19.2881 79.9202 19.6665C80.562 20.0448 81.3116 20.2328 82.1665 20.2328C82.7355 20.2328 83.2595 20.1473 83.7333 19.9789C84.2071 19.8105 84.6157 19.5762 84.9642 19.2784C85.3101 18.9806 85.5658 18.6364 85.7288 18.2507L84.1093 17.4745C83.9263 17.7918 83.6731 18.0457 83.3522 18.2336C83.0313 18.4216 82.6428 18.5168 82.184 18.5168C81.7252 18.5168 81.3191 18.4118 80.9681 18.2044C80.6172 17.9969 80.3514 17.6991 80.1735 17.3183C80.0631 17.084 79.9955 16.8277 79.9704 16.5518H85.9594C85.9995 16.442 86.0271 16.3126 86.0422 16.1637C86.0572 16.0148 86.0647 15.8708 86.0647 15.7317C86.0647 15.1849 85.972 14.6772 85.789 14.2036C85.6059 13.7325 85.3402 13.3127 84.9943 12.9441ZM80.898 13.6813C81.2239 13.4787 81.5949 13.3762 82.0135 13.3762C82.4322 13.3762 82.8258 13.4811 83.1366 13.6886C83.4475 13.8985 83.6706 14.1792 83.8085 14.5381C83.8712 14.7016 83.9088 14.8749 83.9263 15.0604H80.0105C80.0456 14.8871 80.0932 14.726 80.1559 14.5747C80.3239 14.1817 80.5721 13.8839 80.898 13.6813Z" fill="#9C9C9C"/>
<path d="M97.2237 14.6141H95.1304L94.0349 16.1666L92.4831 14.4774C92.7588 14.3163 93.0496 14.1259 93.3505 13.9087C93.7115 13.6451 94.0223 13.3229 94.283 12.9396C94.5438 12.5564 94.6741 12.0926 94.6741 11.5459C94.6741 10.9991 94.5387 10.5329 94.268 10.1155C93.9972 9.69807 93.6363 9.37098 93.1825 9.13177C92.7287 8.89256 92.2223 8.77539 91.6608 8.77539C91.0992 8.77539 90.6029 8.89256 90.1391 9.12689C89.6753 9.36122 89.3043 9.69319 89.0235 10.1252C88.7427 10.5573 88.6024 11.0626 88.6024 11.6386C88.6024 12.0755 88.6776 12.4734 88.833 12.8298C88.9859 13.1862 89.1789 13.5133 89.4146 13.8062C89.5023 13.916 89.5876 14.0185 89.6753 14.1211C89.5826 14.1772 89.4823 14.2382 89.377 14.3041C89.1062 14.4726 88.8355 14.6898 88.5597 14.9534C88.284 15.217 88.0533 15.5344 87.8653 15.9078C87.6773 16.2813 87.582 16.7207 87.582 17.2259C87.582 17.8313 87.7325 18.361 88.0333 18.8126C88.3341 19.2641 88.7478 19.6156 89.2792 19.8646C89.8082 20.1136 90.4249 20.2381 91.1293 20.2381C91.721 20.2381 92.2324 20.1551 92.6661 19.9915C93.0998 19.828 93.4733 19.6181 93.7892 19.3666C93.9396 19.2446 94.08 19.1201 94.2103 18.9907L95.2106 20.0599H97.6097L95.2983 17.5457L97.2262 14.6215L97.2237 14.6141ZM90.841 10.7013C91.0717 10.4767 91.3474 10.3669 91.6733 10.3669C91.9992 10.3669 92.2875 10.4792 92.5056 10.7013C92.7237 10.9259 92.834 11.2017 92.834 11.5288C92.834 11.8168 92.7513 12.0682 92.5884 12.2806C92.4254 12.4954 92.2073 12.6882 91.9391 12.8615C91.751 12.9836 91.5455 13.1032 91.3299 13.2228C91.2522 13.1325 91.1719 13.0373 91.0917 12.9348C90.9288 12.7322 90.7884 12.51 90.6706 12.2708C90.5527 12.0316 90.4951 11.79 90.4951 11.541C90.4951 11.2041 90.6104 10.9234 90.8385 10.6989L90.841 10.7013ZM92.5608 18.0632C92.3878 18.2072 92.1898 18.3268 91.9641 18.4196C91.741 18.5148 91.4853 18.5611 91.1995 18.5611C90.7307 18.5611 90.3622 18.4391 90.0915 18.195C89.8207 17.9509 89.6879 17.6165 89.6879 17.1893C89.6879 16.8329 89.7756 16.5254 89.9486 16.2715C90.1215 16.0177 90.3321 15.8004 90.5828 15.6149C90.6806 15.5441 90.7759 15.4758 90.8711 15.4148L92.9644 17.6507C92.8516 17.7947 92.7187 17.9314 92.5633 18.0583L92.5608 18.0632Z" fill="#9C9C9C"/>
<path d="M100.951 8.95117H98.873V20.055H105.827V18.2658H100.951V8.95117Z" fill="#9C9C9C"/>
<path d="M112.521 12.3192C111.859 11.9531 111.119 11.7676 110.304 11.7676C109.49 11.7676 108.735 11.9506 108.073 12.3192C107.412 12.6878 106.883 13.1882 106.491 13.8253C106.098 14.4599 105.902 15.1873 105.902 16.0002C105.902 16.813 106.098 17.5404 106.491 18.1751C106.883 18.8097 107.414 19.3125 108.081 19.6811C108.748 20.0497 109.49 20.2328 110.304 20.2328C111.119 20.2328 111.844 20.0497 112.506 19.6811C113.167 19.315 113.699 18.8121 114.095 18.1751C114.494 17.5404 114.692 16.813 114.692 16.0002C114.692 15.1873 114.496 14.4477 114.102 13.8155C113.709 13.1858 113.182 12.6854 112.521 12.3168V12.3192ZM112.3 17.2597C112.102 17.6332 111.831 17.9236 111.49 18.1311C111.149 18.341 110.753 18.4436 110.304 18.4436C109.856 18.4436 109.442 18.3386 109.096 18.1311C108.75 17.9212 108.477 17.6307 108.279 17.2597C108.081 16.8862 107.981 16.4664 107.981 16.0002C107.981 15.534 108.078 15.1043 108.279 14.7406C108.477 14.3769 108.75 14.0889 109.096 13.8766C109.442 13.6642 109.846 13.5568 110.304 13.5568C110.763 13.5568 111.147 13.6642 111.49 13.8766C111.831 14.0914 112.102 14.3794 112.3 14.7406C112.498 15.1043 112.598 15.5242 112.598 16.0002C112.598 16.4762 112.501 16.8862 112.3 17.2597Z" fill="#9C9C9C"/>
<path d="M120.651 11.9453L118.673 17.2373L116.708 11.9453H114.521L117.793 20.0541H119.565L122.837 11.9453H120.651Z" fill="#9C9C9C"/>
<path d="M130.586 14.2036C130.403 13.7325 130.137 13.3127 129.791 12.9441C129.445 12.578 129.024 12.2875 128.53 12.08C128.036 11.8701 127.462 11.7676 126.81 11.7676C126.036 11.7676 125.336 11.9506 124.71 12.3192C124.083 12.6878 123.589 13.1858 123.228 13.818C122.867 14.4502 122.687 15.1727 122.687 15.9855C122.687 16.7984 122.865 17.4867 123.22 18.1311C123.576 18.778 124.075 19.2881 124.72 19.6665C125.361 20.0448 126.111 20.2328 126.966 20.2328C127.537 20.2328 128.059 20.1473 128.533 19.9789C129.006 19.8105 129.415 19.5762 129.764 19.2784C130.11 18.9806 130.365 18.6364 130.528 18.2507L128.909 17.4745C128.726 17.7918 128.472 18.0457 128.152 18.2336C127.831 18.4216 127.442 18.5168 126.981 18.5168C126.52 18.5168 126.118 18.4118 125.765 18.2044C125.414 17.9969 125.148 17.6991 124.97 17.3183C124.86 17.084 124.792 16.8277 124.765 16.5518H130.754C130.794 16.442 130.821 16.3126 130.839 16.1637C130.854 16.0148 130.862 15.8708 130.862 15.7317C130.862 15.1849 130.769 14.6772 130.586 14.2036ZM125.695 13.6813C126.021 13.4787 126.392 13.3762 126.81 13.3762C127.229 13.3762 127.623 13.4811 127.934 13.6886C128.244 13.8985 128.467 14.1792 128.605 14.5381C128.668 14.7016 128.706 14.8749 128.723 15.0604H124.807C124.84 14.8871 124.89 14.726 124.953 14.5747C125.121 14.1817 125.369 13.8839 125.695 13.6813Z" fill="#9C9C9C"/>
<path d="M16.3653 19.7763L14.8812 27.4873C14.8436 27.6801 14.7283 27.8461 14.5578 27.9559C14.3873 28.0609 14.1843 28.0902 13.9862 28.0389C13.7882 27.9877 13.6278 27.8632 13.535 27.6874C13.4397 27.5141 13.4247 27.314 13.4949 27.126L16.1572 19.7275C16.1748 19.6836 16.2174 19.6543 16.2625 19.6543C16.2726 19.6543 16.2801 19.6543 16.2901 19.6543C16.3453 19.6689 16.3804 19.7226 16.3678 19.7763H16.3653Z" fill="#9C9C9C"/>
<path d="M15.4601 19.4404L12.1008 26.3068C12.0106 26.4874 11.8551 26.6168 11.6621 26.6729C11.4666 26.7315 11.266 26.7095 11.088 26.6119C10.9125 26.5143 10.7922 26.3532 10.7446 26.1603C10.7019 25.9675 10.7396 25.7698 10.8549 25.6062L15.2696 19.3354C15.2896 19.3061 15.3222 19.2891 15.3598 19.2891C15.3774 19.2891 15.3974 19.2939 15.415 19.3037C15.4626 19.3306 15.4801 19.3916 15.4551 19.4404H15.4601Z" fill="#9C9C9C"/>
<path d="M14.7337 18.977L11.773 22.5066C11.6552 22.6555 11.4722 22.7458 11.2742 22.7605C11.0786 22.7727 10.8881 22.7019 10.7527 22.5652C10.6123 22.4334 10.5396 22.2479 10.5522 22.055C10.5647 21.8647 10.66 21.6865 10.8104 21.5693L14.5683 18.811C14.5883 18.7988 14.6134 18.7891 14.641 18.7891C14.6761 18.7891 14.7036 18.8013 14.7262 18.8208C14.7688 18.8647 14.7738 18.9331 14.7362 18.9795L14.7337 18.977Z" fill="#9C9C9C"/>
<path d="M13.5952 17.1743L7.2677 19.0074C7.0847 19.0562 6.89417 19.0343 6.72871 18.944C6.56326 18.8536 6.44794 18.7047 6.39529 18.5266C6.34265 18.3264 6.38025 18.1165 6.50058 17.9529C6.61841 17.787 6.80643 17.6796 7.01701 17.6625L13.545 16.9668C13.545 16.9668 13.5576 16.9668 13.5626 16.9668C13.6127 16.9668 13.6578 17.001 13.6704 17.0498C13.6854 17.1084 13.6553 17.1645 13.5952 17.184V17.1743Z" fill="#9C9C9C"/>
<path d="M13.608 16.2504C13.608 16.3041 13.5654 16.348 13.5127 16.3504L0.782582 16.9729C0.584536 16.9851 0.386489 16.9167 0.233567 16.7752C0.0856581 16.636 0.00292969 16.4505 0.00292969 16.2504C0.00292969 16.0502 0.0856581 15.8622 0.233567 15.7255C0.373954 15.5937 0.551946 15.5254 0.747485 15.5254H0.787596L13.5177 16.1503C13.5704 16.1503 13.613 16.1967 13.613 16.2504H13.608Z" fill="#9C9C9C"/>
<path d="M13.7358 15.308C13.7358 15.308 13.7358 15.3251 13.7308 15.3373C13.7183 15.391 13.6631 15.4227 13.608 15.413L4.07665 13.5505C3.8761 13.5115 3.70312 13.3967 3.59783 13.2283C3.49003 13.0599 3.45995 12.8597 3.51259 12.6645C3.56775 12.4716 3.6956 12.313 3.8761 12.2202C3.9839 12.1641 4.09921 12.1348 4.21955 12.1348C4.29977 12.1348 4.37999 12.147 4.4552 12.1738L13.6656 15.2104C13.7082 15.2226 13.7383 15.2641 13.7383 15.3056L13.7358 15.308Z" fill="#9C9C9C"/>
<path d="M14.1095 14.4357C14.1095 14.4528 14.1045 14.4699 14.0945 14.487C14.0694 14.5333 14.0092 14.5504 13.9591 14.526L2.61275 8.86058C2.42975 8.77026 2.29688 8.6116 2.23922 8.41877C2.17906 8.22838 2.20413 8.02578 2.30691 7.85003C2.40969 7.67428 2.57766 7.55467 2.77821 7.50586C2.83587 7.49365 2.89353 7.48633 2.9537 7.48633C3.09408 7.48633 3.23447 7.52538 3.3548 7.60105L14.0594 14.3503C14.0894 14.3674 14.107 14.4015 14.107 14.4333L14.1095 14.4357Z" fill="#9C9C9C"/>
<path d="M14.6682 13.7582C14.6306 13.7948 14.568 13.7948 14.5279 13.7582L6.19735 6.51099C6.04443 6.37918 5.95668 6.19611 5.95167 5.99351C5.94415 5.7958 6.02187 5.60784 6.16727 5.46627C6.30765 5.32958 6.49066 5.25391 6.68871 5.25391H6.70876C6.91684 5.26123 7.10486 5.34422 7.23772 5.49312L14.6707 13.6166C14.7084 13.6556 14.7058 13.7167 14.6657 13.7557L14.6682 13.7582Z" fill="#9C9C9C"/>
<path d="M16.37 12.7223V12.7369C16.37 12.7833 16.3349 12.8272 16.2898 12.8419C16.2321 12.8541 16.1745 12.8272 16.1519 12.7735L13.8054 6.47346C13.7352 6.28794 13.7478 6.09023 13.843 5.91692C13.9358 5.74117 14.0937 5.61668 14.2892 5.56542C14.3494 5.55078 14.4121 5.54102 14.4748 5.54102C14.6101 5.54102 14.7405 5.58007 14.8558 5.65086C15.0238 5.75826 15.1391 5.9218 15.1742 6.11708L16.37 12.7223Z" fill="#9C9C9C"/>
<path d="M22.197 0.950015L18.3815 12.7764C18.369 12.8154 18.3314 12.8447 18.2862 12.8447C18.2762 12.8447 18.2687 12.8447 18.2612 12.8447C18.206 12.8301 18.1734 12.7788 18.1834 12.7276L20.7631 0.571669C20.8082 0.376393 20.9285 0.207968 21.104 0.103007C21.2193 0.034661 21.3522 -0.00195312 21.4901 -0.00195312C21.5553 -0.00195312 21.6229 0.00781065 21.6856 0.0224563C21.8812 0.0737162 22.0466 0.200645 22.1469 0.376393C22.2447 0.552141 22.2622 0.75474 22.1995 0.947574L22.197 0.950015Z" fill="#9C9C9C"/>
<path d="M24.2248 5.84208L19.1759 13.1649C19.1408 13.2088 19.0831 13.2259 19.033 13.1966C18.9853 13.1698 18.9653 13.1088 18.9903 13.0599L22.9688 5.1342C23.0591 4.95357 23.2145 4.8242 23.4101 4.76806C23.4828 4.74853 23.5529 4.73633 23.6256 4.73633C23.7535 4.73633 23.8788 4.7705 23.9866 4.83153C24.1621 4.92916 24.285 5.09271 24.3326 5.28798C24.3777 5.47838 24.3426 5.67609 24.2248 5.84208Z" fill="#9C9C9C"/>
<path d="M29.6217 4.90367C29.6142 5.10383 29.5289 5.28934 29.376 5.42603L19.9224 13.7594C19.8823 13.7985 19.8196 13.796 19.782 13.7594C19.7419 13.7204 19.7419 13.6593 19.782 13.6203L28.3306 4.40328C28.4685 4.25438 28.6565 4.16894 28.8621 4.16406H28.8922C29.0827 4.16406 29.2657 4.23973 29.4061 4.37887C29.5515 4.518 29.6292 4.70839 29.6267 4.90855L29.6217 4.90367Z" fill="#9C9C9C"/>
<path d="M32.2118 8.42023C32.1516 8.61307 32.0187 8.76929 31.8382 8.86204L20.4944 14.5275C20.4367 14.5543 20.3816 14.5324 20.3565 14.4884C20.3289 14.442 20.344 14.3835 20.3916 14.3542L31.0962 7.60496C31.214 7.52929 31.3544 7.49023 31.4948 7.49023C31.5574 7.49023 31.6151 7.49756 31.6703 7.50976C31.8708 7.55614 32.0388 7.67575 32.1391 7.85393C32.2418 8.0248 32.2669 8.2274 32.2092 8.42267L32.2118 8.42023Z" fill="#9C9C9C"/>
<path d="M29.9599 13.1151C29.9599 13.2469 29.9223 13.3738 29.8496 13.4861C29.7418 13.6545 29.5713 13.7693 29.3708 13.8059L20.8397 15.4145C20.7871 15.4242 20.7319 15.3876 20.7169 15.3339C20.7043 15.2827 20.7319 15.2265 20.7846 15.2094L28.9947 12.4414C29.0775 12.4145 29.1577 12.4023 29.2354 12.4023C29.3507 12.4023 29.4685 12.4316 29.5738 12.4878C29.7568 12.5805 29.8847 12.7392 29.9348 12.9296C29.9499 12.9906 29.9599 13.0541 29.9599 13.1175V13.1151Z" fill="#9C9C9C"/>
<path d="M34.4503 16.2504C34.4503 16.4505 34.3676 16.636 34.2197 16.7752C34.0718 16.9143 33.8712 16.99 33.6682 16.9729L20.938 16.3504C20.8854 16.3504 20.8428 16.3041 20.8428 16.2504C20.8428 16.1967 20.8854 16.1527 20.938 16.1503L33.6657 15.5254H33.7083C33.8988 15.5254 34.0818 15.5962 34.2197 15.7255C34.3676 15.8647 34.4503 16.0478 34.4503 16.2504Z" fill="#9C9C9C"/>
<path d="M29.8526 19.3575C29.8526 19.4185 29.8426 19.4819 29.8275 19.5454C29.7749 19.7358 29.647 19.892 29.4665 19.9872C29.286 20.08 29.083 20.0971 28.8924 20.0336L20.8402 17.1606C20.7876 17.1411 20.76 17.0874 20.7725 17.0337C20.7851 16.9849 20.8302 16.9531 20.8753 16.9531C20.8828 16.9531 20.8904 16.9531 20.8979 16.958L29.261 18.6691C29.4615 18.7057 29.6345 18.818 29.7398 18.9864C29.8125 19.0987 29.8501 19.2256 29.8501 19.3575H29.8526Z" fill="#9C9C9C"/>
<path d="M26.9969 22.0249C26.7061 22.2153 26.3326 22.2177 26.0392 22.0298L18.3831 17.0991C18.18 16.9697 17.9243 16.9624 17.7163 17.0844C17.5082 17.2016 17.3904 17.4237 17.4079 17.6556L18.338 29.7969C18.3731 30.2387 18.1374 30.6561 17.7363 30.866C17.2951 31.0979 16.7737 31.0247 16.3049 30.6658C16.1444 30.5462 16.0216 30.2582 16.0391 30.0556L17.0369 17.6629C17.0544 17.4262 16.9366 17.2065 16.7285 17.0893C16.6358 17.0307 16.523 17.0014 16.4102 17.0014C16.2973 17.0014 16.172 17.038 16.0642 17.1015L8.22004 22.1543C7.92673 22.3447 7.55571 22.3569 7.24986 22.1884C6.9014 21.998 6.71088 21.6099 6.73093 21.1217C6.73845 20.968 6.87633 20.7678 7.02424 20.7043L14.3545 17.4384C16.0692 16.6719 17.1196 14.9291 16.9667 13.0984L16.4904 7.29135C16.4653 6.99356 16.6283 6.71529 16.9015 6.5786C17.2099 6.42726 17.5759 6.4956 17.9018 6.77387C17.977 6.83978 18.0171 6.93741 18.0096 7.03505L17.5057 13.1325C17.3578 14.9462 18.3906 16.6817 20.0778 17.453L27.1273 20.6775C27.2526 20.7336 27.3428 20.8386 27.3679 20.9582C27.4632 21.4195 27.3328 21.8076 27.0044 22.0249H26.9969Z" fill="#9C9C9C"/>
<path d="M22.8007 21.0059C22.8157 21.1914 22.7505 21.3721 22.6127 21.5039C22.4748 21.6381 22.2918 21.704 22.1012 21.6894C21.9082 21.6772 21.7352 21.5771 21.6249 21.4233L19.7447 19.0044C19.7046 18.9531 19.7096 18.8799 19.7573 18.8359C19.7798 18.8115 19.8149 18.7969 19.8475 18.7969C19.8751 18.7969 19.9002 18.8042 19.9227 18.8188L22.5274 20.5422C22.6854 20.652 22.7831 20.8204 22.7982 21.0059H22.8007Z" fill="#9C9C9C"/>
<path d="M22.5026 23.985C22.5026 24.0313 22.495 24.0777 22.4875 24.1241C22.4474 24.3145 22.3246 24.4756 22.1541 24.5683C21.9861 24.666 21.7806 24.6855 21.5925 24.6269C21.402 24.5659 21.2491 24.4341 21.1714 24.2583L18.9853 19.4472C18.9603 19.396 18.9803 19.3325 19.033 19.3057C19.048 19.2935 19.0706 19.291 19.0931 19.291C19.1307 19.291 19.1633 19.3081 19.1859 19.3374L22.3672 23.5871C22.4549 23.7042 22.5026 23.8458 22.5026 23.985Z" fill="#9C9C9C"/>
<path d="M21.0361 27.4887C21.0361 27.601 21.006 27.7084 20.9508 27.8109C20.8556 27.9867 20.6951 28.1136 20.4996 28.1649C20.3041 28.2137 20.101 28.1844 19.9255 28.0795C19.755 27.9721 19.6372 27.8085 19.6046 27.6157L18.1832 19.7387C18.1707 19.685 18.2058 19.6338 18.2634 19.6191C18.2734 19.6191 18.281 19.6191 18.291 19.6191C18.3336 19.6191 18.3787 19.646 18.3913 19.6899L20.991 27.252C21.0185 27.3301 21.0336 27.4131 21.0336 27.4912L21.0361 27.4887Z" fill="#9C9C9C"/>
<path d="M15.4079 13.1834C15.3527 13.2127 15.2825 13.1956 15.2499 13.1444L8.60658 3.17799C8.48374 2.99492 8.44363 2.77768 8.49628 2.56043C8.54892 2.34563 8.6868 2.16744 8.88234 2.06004C9.00769 1.99169 9.14557 1.95508 9.28345 1.95508C9.35364 1.95508 9.42635 1.96484 9.49905 1.98193L9.5191 1.98925C9.7347 2.05516 9.91269 2.19673 10.0105 2.39201L15.4555 13.0296C15.4831 13.0833 15.463 13.1492 15.4079 13.1834Z" fill="#9C9C9C"/>
<path d="M132.95 11.8927C132.754 11.8927 132.579 11.8463 132.418 11.7535C132.258 11.6608 132.13 11.5363 132.034 11.3825C131.939 11.2263 131.892 11.0554 131.892 10.8675C131.892 10.6795 131.939 10.5062 132.034 10.35C132.13 10.1962 132.258 10.0717 132.418 9.97898C132.579 9.88622 132.756 9.83984 132.95 9.83984C133.095 9.83984 133.23 9.86669 133.358 9.92039C133.486 9.9741 133.596 10.0473 133.694 10.1401C133.789 10.2328 133.865 10.3427 133.92 10.4672C133.975 10.5917 134.002 10.7235 134.002 10.865C134.002 11.053 133.955 11.2239 133.86 11.3801C133.764 11.5363 133.639 11.6608 133.478 11.7511C133.321 11.8439 133.143 11.8902 132.95 11.8902V11.8927ZM132.95 11.6901C133.105 11.6901 133.248 11.6535 133.376 11.5827C133.504 11.5119 133.604 11.4118 133.679 11.2873C133.754 11.1628 133.792 11.0237 133.792 10.8724C133.792 10.721 133.754 10.5819 133.679 10.4574C133.604 10.3329 133.504 10.2353 133.376 10.162C133.248 10.0888 133.107 10.0522 132.95 10.0522C132.792 10.0522 132.649 10.0888 132.521 10.162C132.393 10.2353 132.293 10.3329 132.217 10.4574C132.142 10.5819 132.105 10.7186 132.105 10.8724C132.105 11.0261 132.142 11.1628 132.217 11.2873C132.293 11.4118 132.393 11.5094 132.521 11.5827C132.649 11.6559 132.792 11.6925 132.95 11.6925V11.6901ZM132.566 11.4045V10.3232H132.995C133.107 10.3232 133.2 10.3524 133.273 10.4135C133.346 10.4745 133.381 10.5575 133.381 10.6673C133.381 10.7332 133.366 10.7943 133.333 10.8504C133.3 10.9041 133.25 10.948 133.183 10.9773L133.441 11.4045H133.203L132.977 11.0115H132.777V11.4045H132.566ZM132.777 10.8333H132.995C133.05 10.8333 133.092 10.8162 133.125 10.7845C133.158 10.7528 133.173 10.7137 133.173 10.6673C133.173 10.6185 133.158 10.5794 133.125 10.5502C133.092 10.5209 133.05 10.5062 132.995 10.5062H132.777V10.8309V10.8333Z" fill="#9C9C9C"/>
</g>
<defs>
<clipPath id="clip0_471_5">
<rect width="134" height="31" fill="white"/>
</clipPath>
</defs>
</svg>
