<svg width="157" height="37" viewBox="0 0 157 37" fill="none" xmlns="http://www.w3.org/2000/svg">
<path d="M56.5641 10.9891C55.8687 10.6682 55.0711 10.5078 54.1683 10.5078H49.216V23.539H51.6381V18.7293H54.1683C55.0711 18.7293 55.8658 18.566 56.5553 18.2394C57.2448 17.9129 57.7883 17.4431 58.1856 16.8329C58.583 16.2199 58.7816 15.4837 58.7816 14.6214C58.7816 13.7592 58.5859 13.0029 58.1944 12.3927C57.8029 11.7797 57.2594 11.3156 56.5641 10.9948V10.9891ZM56.0908 15.667C55.9125 15.9706 55.6642 16.2055 55.3428 16.3746C55.0214 16.5436 54.6416 16.6295 54.2033 16.6295H51.6381V12.6076H54.2033C54.6416 12.6076 55.0214 12.6935 55.3428 12.8625C55.6642 13.0315 55.9125 13.2636 56.0908 13.5615C56.269 13.8594 56.3596 14.2118 56.3596 14.6185C56.3596 15.0253 56.269 15.3633 56.0908 15.667Z" fill="#A49370"/>
<path d="M67.8303 15.1932C67.4271 14.7636 66.9363 14.4227 66.3607 14.1792C65.7851 13.9328 65.1161 13.8125 64.3564 13.8125C63.4536 13.8125 62.6385 14.0273 61.908 14.4599C61.1776 14.8925 60.602 15.4768 60.1813 16.2188C59.7606 16.9607 59.5502 17.8086 59.5502 18.7626C59.5502 19.7165 59.7577 20.5243 60.1726 21.2806C60.5874 22.0397 61.1718 22.6384 61.9197 23.0824C62.6677 23.5264 63.5413 23.747 64.5376 23.747C65.2008 23.747 65.8114 23.6467 66.3636 23.4491C66.9158 23.2514 67.3921 22.9764 67.7982 22.6269C68.2014 22.2775 68.4994 21.8735 68.6893 21.4209L66.8019 20.51C66.5886 20.8824 66.2935 21.1803 65.9195 21.4009C65.5456 21.6215 65.0898 21.7332 64.5551 21.7332C64.0204 21.7332 63.55 21.61 63.1381 21.3665C62.729 21.123 62.4193 20.7735 62.2119 20.3266C62.0863 20.0516 62.0045 19.7509 61.9752 19.4272H68.9552C69.0019 19.2982 69.0341 19.1464 69.0516 18.9717C69.0691 18.7969 69.0779 18.6279 69.0779 18.4646C69.0779 17.823 68.9698 17.2271 68.7565 16.6714C68.5432 16.1185 68.2335 15.6258 67.8303 15.1932ZM63.0563 16.0584C63.4361 15.8206 63.8685 15.7003 64.3564 15.7003C64.8444 15.7003 65.3031 15.8235 65.6653 16.067C66.0276 16.3133 66.2877 16.6427 66.4484 17.0638C66.5214 17.2558 66.5652 17.4592 66.5857 17.6769H62.022C62.0629 17.4735 62.1184 17.2844 62.1914 17.1068C62.3872 16.6456 62.6765 16.2961 63.0563 16.0584Z" fill="#A49370"/>
<path d="M76.7912 14.2402C76.1864 13.9538 75.4852 13.8105 74.6905 13.8105C74.036 13.8105 73.4312 13.9165 72.8732 14.1257C72.3151 14.3348 71.8301 14.6241 71.4211 14.9908C71.012 15.3574 70.7111 15.7929 70.5212 16.2942L72.4261 17.2051C72.6044 16.7754 72.8848 16.4259 73.2734 16.1653C73.6591 15.9017 74.1003 15.7728 74.5999 15.7728C75.1346 15.7728 75.564 15.9103 75.8913 16.1853C76.2185 16.4603 76.3821 16.8012 76.3821 17.208V17.5174L73.4955 17.9786C72.7358 18.096 72.1048 18.2937 71.6081 18.5744C71.1085 18.8551 70.7403 19.2018 70.5037 19.6143C70.267 20.0296 70.1472 20.4966 70.1472 21.0208C70.1472 21.545 70.2845 22.0492 70.5563 22.4646C70.828 22.8799 71.2166 23.195 71.7132 23.4185C72.2129 23.6391 72.8001 23.7508 73.478 23.7508C74.0126 23.7508 74.4976 23.6792 74.9388 23.5331C75.3771 23.387 75.7715 23.1779 76.1133 22.9029C76.2506 22.794 76.3821 22.6708 76.5048 22.539V23.5417H78.7136V17.2109C78.7136 16.5348 78.5442 15.9418 78.2053 15.4348C77.8663 14.9277 77.3959 14.5324 76.7882 14.246L76.7912 14.2402ZM76.0695 20.8432C75.8621 21.2041 75.5699 21.4877 75.1959 21.6911C74.8219 21.8945 74.3924 21.9976 73.9045 21.9976C73.5247 21.9976 73.2062 21.9002 72.952 21.7083C72.6949 21.5164 72.5693 21.2557 72.5693 20.9291C72.5693 20.6026 72.6803 20.3161 72.9082 20.107C73.1332 19.8979 73.478 19.7518 73.9425 19.6687L76.3821 19.2619V19.6515C76.3821 20.0841 76.2769 20.4794 76.0695 20.8403V20.8432Z" fill="#A49370"/>
<path d="M83.9053 16.28C84.3027 16.0336 84.7584 15.9133 85.2668 15.9133C85.8132 15.9133 86.2982 16.0594 86.7189 16.3516C87.1396 16.6438 87.4406 17.0276 87.6188 17.506L89.6669 16.6323C89.477 16.0623 89.1644 15.5696 88.7319 15.1542C88.2995 14.7417 87.7853 14.4151 87.1922 14.1745C86.5991 13.9367 85.9563 13.8164 85.2697 13.8164C84.3085 13.8164 83.4437 14.0313 82.6782 14.4638C81.9127 14.8964 81.3079 15.4836 80.8696 16.2313C80.4314 16.9761 80.2094 17.824 80.2094 18.7665C80.2094 19.7089 80.4285 20.5597 80.8696 21.3103C81.3079 22.0636 81.9127 22.6566 82.6782 23.0949C83.4437 23.5332 84.3085 23.7509 85.2697 23.7509C85.9709 23.7509 86.6166 23.6306 87.2127 23.3928C87.8058 23.1551 88.3171 22.8228 88.7436 22.3959C89.1702 21.9691 89.4799 21.4879 89.6698 20.9522L87.6217 20.0412C87.4435 20.5311 87.1455 20.9207 86.7306 21.2129C86.3157 21.505 85.8278 21.6511 85.2697 21.6511C84.7584 21.6511 84.3056 21.528 83.9082 21.2845C83.5109 21.0381 83.1982 20.7001 82.9733 20.2704C82.7483 19.8407 82.6344 19.3423 82.6344 18.7837C82.6344 18.2251 82.7483 17.7295 82.9733 17.2969C83.1982 16.8672 83.5109 16.5263 83.9082 16.2828L83.9053 16.28Z" fill="#A49370"/>
<path d="M99.0544 15.1932C98.6512 14.7636 98.1604 14.4227 97.5848 14.1792C97.0092 13.9328 96.3401 13.8125 95.5805 13.8125C94.6777 13.8125 93.8625 14.0273 93.1321 14.4599C92.4017 14.8925 91.8261 15.4768 91.4054 16.2188C90.9846 16.9607 90.7743 17.8086 90.7743 18.7626C90.7743 19.7165 90.9817 20.5243 91.3966 21.2806C91.8115 22.0397 92.3929 22.6384 93.1409 23.0824C93.8888 23.5264 94.7624 23.747 95.7587 23.747C96.4219 23.747 97.0326 23.6467 97.5848 23.4491C98.137 23.2514 98.6132 22.9764 99.0193 22.6269C99.4225 22.2775 99.7205 21.8735 99.9104 21.4209L98.023 20.51C97.8097 20.8824 97.5146 21.1803 97.1407 21.4009C96.7667 21.6215 96.3138 21.7332 95.7792 21.7332C95.2445 21.7332 94.7712 21.61 94.3621 21.3665C93.9531 21.123 93.6434 20.7735 93.436 20.3266C93.3074 20.0516 93.2285 19.7509 93.1993 19.4272H100.179C100.226 19.2982 100.258 19.1464 100.276 18.9717C100.293 18.7969 100.302 18.6279 100.302 18.4646C100.302 17.823 100.194 17.2271 99.9806 16.6714C99.7673 16.1185 99.4576 15.6258 99.0544 15.1932ZM94.2803 16.0584C94.6602 15.8206 95.0926 15.7003 95.5805 15.7003C96.0684 15.7003 96.5271 15.8235 96.8894 16.067C97.2517 16.3133 97.5117 16.6427 97.6724 17.0638C97.7455 17.2558 97.7893 17.4592 97.8097 17.6769H93.246C93.287 17.4735 93.3425 17.2844 93.4155 17.1068C93.6113 16.6456 93.9005 16.2961 94.2803 16.0584Z" fill="#A49370"/>
<path d="M113.307 17.153H110.867L109.59 18.9749L107.782 16.9925C108.103 16.8035 108.442 16.58 108.793 16.3251C109.213 16.0157 109.576 15.6376 109.879 15.1878C110.183 14.7381 110.335 14.1938 110.335 13.5521C110.335 12.9104 110.177 12.3633 109.862 11.8735C109.546 11.3836 109.126 10.9997 108.597 10.719C108.068 10.4383 107.478 10.3008 106.823 10.3008C106.169 10.3008 105.59 10.4383 105.05 10.7133C104.509 10.9883 104.077 11.3779 103.75 11.8849C103.423 12.392 103.259 12.9849 103.259 13.661C103.259 14.1737 103.347 14.6407 103.528 15.0589C103.706 15.4772 103.931 15.861 104.206 16.2048C104.308 16.3337 104.407 16.454 104.509 16.5743C104.401 16.6402 104.284 16.7118 104.162 16.7891C103.846 16.9868 103.531 17.2418 103.209 17.5511C102.888 17.8605 102.619 18.2329 102.4 18.6712C102.181 19.1095 102.07 19.6251 102.07 20.2181C102.07 20.9285 102.245 21.5501 102.596 22.0801C102.946 22.6101 103.428 23.0226 104.048 23.3148C104.664 23.6069 105.383 23.753 106.204 23.753C106.893 23.753 107.49 23.6556 107.995 23.4637C108.5 23.2718 108.936 23.0254 109.304 22.7304C109.479 22.5871 109.643 22.441 109.795 22.2892L110.961 23.5439H113.757L111.063 20.5934L113.31 17.1615L113.307 17.153ZM105.868 12.561C106.137 12.2974 106.458 12.1685 106.838 12.1685C107.218 12.1685 107.554 12.3003 107.808 12.561C108.062 12.8245 108.191 13.1482 108.191 13.5321C108.191 13.8701 108.094 14.1652 107.904 14.4144C107.714 14.6665 107.46 14.8928 107.148 15.0962C106.929 15.2394 106.689 15.3798 106.438 15.5201C106.347 15.4141 106.254 15.3024 106.16 15.1821C105.97 14.9443 105.807 14.6837 105.669 14.4029C105.532 14.1222 105.465 13.8386 105.465 13.5464C105.465 13.1511 105.599 12.8216 105.865 12.5581L105.868 12.561ZM107.872 21.2007C107.671 21.3697 107.44 21.51 107.177 21.6189C106.917 21.7306 106.619 21.785 106.286 21.785C105.739 21.785 105.31 21.6418 104.994 21.3554C104.679 21.0689 104.524 20.6764 104.524 20.1751C104.524 19.7569 104.626 19.396 104.828 19.098C105.029 18.8001 105.275 18.5452 105.567 18.3274C105.681 18.2444 105.792 18.1642 105.903 18.0925L108.343 20.7165C108.211 20.8856 108.056 21.046 107.875 21.1949L107.872 21.2007Z" fill="#A49370"/>
<path d="M117.651 10.5078H115.229V23.539H123.334V21.4392H117.651V10.5078Z" fill="#A49370"/>
<path d="M131.135 14.4599C130.363 14.0302 129.502 13.8125 128.552 13.8125C127.602 13.8125 126.723 14.0273 125.952 14.4599C125.18 14.8925 124.564 15.4797 124.108 16.2274C123.649 16.9722 123.422 17.8258 123.422 18.7798C123.422 19.7337 123.649 20.5873 124.108 21.3321C124.564 22.0769 125.183 22.667 125.96 23.0996C126.738 23.5322 127.602 23.747 128.552 23.747C129.502 23.747 130.346 23.5322 131.117 23.0996C131.889 22.6699 132.508 22.0798 132.97 21.3321C133.434 20.5873 133.665 19.7337 133.665 18.7798C133.665 17.8258 133.437 16.9579 132.978 16.2159C132.52 15.4768 131.906 14.8896 131.135 14.457V14.4599ZM130.878 20.2579C130.647 20.6962 130.331 21.0371 129.934 21.2806C129.537 21.5269 129.075 21.6472 128.552 21.6472C128.029 21.6472 127.547 21.5241 127.144 21.2806C126.741 21.0342 126.422 20.6933 126.191 20.2579C125.96 19.8196 125.844 19.3269 125.844 18.7798C125.844 18.2326 125.958 17.7284 126.191 17.3016C126.422 16.8748 126.741 16.5368 127.144 16.2875C127.547 16.0383 128.017 15.9123 128.552 15.9123C129.087 15.9123 129.534 16.0383 129.934 16.2875C130.331 16.5396 130.647 16.8776 130.878 17.3016C131.109 17.7284 131.225 18.2212 131.225 18.7798C131.225 19.3384 131.111 19.8196 130.878 20.2579Z" fill="#A49370"/>
<path d="M140.61 14.0215L138.305 20.232L136.014 14.0215H133.466L137.279 23.5378H139.345L143.158 14.0215H140.61Z" fill="#A49370"/>
<path d="M152.188 16.6714C151.975 16.1185 151.665 15.6258 151.262 15.1932C150.859 14.7636 150.368 14.4227 149.793 14.1792C149.217 13.9328 148.548 13.8125 147.788 13.8125C146.886 13.8125 146.07 14.0273 145.34 14.4599C144.609 14.8925 144.034 15.4768 143.613 16.2188C143.192 16.9607 142.982 17.8086 142.982 18.7626C142.982 19.7165 143.19 20.5243 143.604 21.2806C144.019 22.0397 144.601 22.6384 145.352 23.0824C146.1 23.5264 146.973 23.747 147.969 23.747C148.636 23.747 149.243 23.6467 149.796 23.4491C150.348 23.2514 150.824 22.9764 151.23 22.6269C151.633 22.2775 151.931 21.8735 152.121 21.4209L150.234 20.51C150.02 20.8824 149.725 21.1803 149.351 21.4009C148.977 21.6215 148.525 21.7332 147.987 21.7332C147.449 21.7332 146.982 21.61 146.57 21.3665C146.161 21.123 145.851 20.7735 145.644 20.3266C145.515 20.0516 145.436 19.7509 145.404 19.4272H152.384C152.431 19.2982 152.463 19.1464 152.483 18.9717C152.501 18.7969 152.51 18.6279 152.51 18.4646C152.51 17.823 152.402 17.2271 152.188 16.6714ZM146.488 16.0584C146.868 15.8206 147.3 15.7003 147.788 15.7003C148.276 15.7003 148.735 15.8235 149.097 16.067C149.46 16.3133 149.72 16.6427 149.88 17.0638C149.953 17.2558 149.997 17.4592 150.018 17.6769H145.454C145.492 17.4735 145.55 17.2844 145.623 17.1068C145.819 16.6456 146.108 16.2961 146.488 16.0584Z" fill="#A49370"/>
<path d="M19.0698 23.2116L17.3402 32.2609C17.2963 32.4872 17.1619 32.682 16.9633 32.8109C16.7646 32.9341 16.5279 32.9685 16.2971 32.9083C16.0663 32.8482 15.8793 32.7021 15.7712 32.4958C15.6602 32.2924 15.6427 32.0575 15.7245 31.837L18.8273 23.1543C18.8478 23.1027 18.8974 23.0684 18.95 23.0684C18.9617 23.0684 18.9705 23.0684 18.9822 23.0684C19.0464 23.0855 19.0873 23.1486 19.0727 23.2116H19.0698Z" fill="#A49370"/>
<path d="M18.0151 22.8163L14.1001 30.8745C13.9949 31.0864 13.8137 31.2383 13.5888 31.3041C13.3609 31.3729 13.1271 31.3471 12.9197 31.2325C12.7152 31.1179 12.5749 30.9289 12.5194 30.7026C12.4697 30.4763 12.5136 30.2442 12.648 30.0523L17.7931 22.6931C17.8165 22.6587 17.8544 22.6387 17.8983 22.6387C17.9187 22.6387 17.9421 22.6444 17.9625 22.6559C18.0181 22.6874 18.0385 22.759 18.0093 22.8163H18.0151Z" fill="#A49370"/>
<path d="M17.1679 22.2733L13.7174 26.4156C13.5801 26.5903 13.3668 26.6963 13.136 26.7135C12.9081 26.7278 12.686 26.6447 12.5283 26.4843C12.3646 26.3296 12.2799 26.1119 12.2945 25.8856C12.3091 25.6622 12.4202 25.453 12.5955 25.3155L16.9751 22.0785C16.9985 22.0642 17.0277 22.0527 17.0598 22.0527C17.1007 22.0527 17.1329 22.0671 17.1592 22.09C17.2088 22.1415 17.2147 22.2217 17.1708 22.2762L17.1679 22.2733Z" fill="#A49370"/>
<path d="M15.8415 20.1576L8.4671 22.3089C8.25381 22.3662 8.03176 22.3404 7.83893 22.2344C7.6461 22.1284 7.5117 21.9537 7.45034 21.7446C7.38899 21.5097 7.43281 21.2633 7.57305 21.0714C7.71037 20.8766 7.9295 20.7505 8.17493 20.7305L15.783 19.9141C15.783 19.9141 15.7976 19.9141 15.8035 19.9141C15.8619 19.9141 15.9145 19.9542 15.9291 20.0115C15.9466 20.0802 15.9116 20.1461 15.8415 20.169V20.1576Z" fill="#A49370"/>
<path d="M15.8561 19.0734C15.8561 19.1365 15.8064 19.188 15.745 19.1909L0.908649 19.9214C0.677834 19.9357 0.44702 19.8555 0.268796 19.6893C0.0964161 19.5261 0 19.3083 0 19.0734C0 18.8386 0.0964161 18.618 0.268796 18.4576C0.432412 18.3029 0.639852 18.2227 0.867745 18.2227H0.914492L15.7509 18.956C15.8122 18.956 15.8619 19.0104 15.8619 19.0734H15.8561Z" fill="#A49370"/>
<path d="M16.0051 17.9662C16.0051 17.9662 16.0051 17.9862 15.9992 18.0006C15.9846 18.0636 15.9204 18.1008 15.8561 18.0894L4.74777 15.9037C4.51403 15.8578 4.31244 15.7232 4.18973 15.5255C4.06409 15.3279 4.02903 15.093 4.09039 14.8638C4.15466 14.6375 4.30367 14.4513 4.51403 14.3424C4.63967 14.2766 4.77407 14.2422 4.91431 14.2422C5.0078 14.2422 5.1013 14.2565 5.18895 14.288L15.9233 17.8516C15.9729 17.8659 16.008 17.9146 16.008 17.9633L16.0051 17.9662Z" fill="#A49370"/>
<path d="M16.4403 16.9446C16.4403 16.9647 16.4345 16.9847 16.4228 17.0048C16.3936 17.0592 16.3234 17.0793 16.265 17.0506L3.04139 10.4018C2.82811 10.2959 2.67326 10.1097 2.60606 9.88335C2.53594 9.65991 2.56516 9.42214 2.68495 9.21589C2.80474 9.00964 3.00049 8.86927 3.23423 8.81198C3.30142 8.79766 3.36862 8.78906 3.43874 8.78906C3.60236 8.78906 3.76598 8.8349 3.90622 8.9237L16.3819 16.8444C16.4169 16.8644 16.4374 16.9045 16.4374 16.9418L16.4403 16.9446Z" fill="#A49370"/>
<path d="M17.092 16.1483C17.0482 16.1913 16.9751 16.1913 16.9284 16.1483L7.21959 7.64325C7.04136 7.48856 6.9391 7.27371 6.93326 7.03595C6.92449 6.80391 7.01507 6.58334 7.18453 6.41719C7.34814 6.25677 7.56143 6.16797 7.79224 6.16797H7.81561C8.05811 6.17656 8.27724 6.27396 8.43209 6.4487L17.0949 15.9822C17.1388 16.028 17.1358 16.0996 17.0891 16.1454L17.092 16.1483Z" fill="#A49370"/>
<path d="M19.0757 14.9336V14.9508C19.0757 15.0052 19.0348 15.0568 18.9822 15.0739C18.915 15.0883 18.8478 15.0568 18.8215 14.9937L16.0868 7.60014C16.005 7.38243 16.0196 7.1504 16.1306 6.94701C16.2387 6.74076 16.4228 6.59466 16.6507 6.53451C16.7208 6.51732 16.7938 6.50586 16.8669 6.50586C17.0247 6.50586 17.1766 6.55169 17.311 6.63477C17.5067 6.76081 17.6411 6.95274 17.682 7.18191L19.0757 14.9336Z" fill="#A49370"/>
<path d="M25.8658 1.1172L21.419 14.9963C21.4044 15.0421 21.3606 15.0765 21.308 15.0765C21.2963 15.0765 21.2875 15.0765 21.2788 15.0765C21.2145 15.0593 21.1765 14.9992 21.1882 14.939L24.1946 0.673186C24.2472 0.444016 24.3875 0.246357 24.592 0.123179C24.7264 0.0429693 24.8812 0 25.0419 0C25.1179 0 25.1968 0.0114585 25.2698 0.0286462C25.4977 0.0888032 25.6905 0.237763 25.8074 0.444016C25.9214 0.650269 25.9418 0.888032 25.8688 1.11434L25.8658 1.1172Z" fill="#A49370"/>
<path d="M28.2296 6.85822L22.3453 15.4521C22.3043 15.5036 22.2371 15.5237 22.1787 15.4893C22.1232 15.4578 22.0998 15.3862 22.129 15.3289L26.7658 6.02748C26.871 5.8155 27.0521 5.66367 27.28 5.59779C27.3647 5.57487 27.4465 5.56055 27.5313 5.56055C27.6803 5.56055 27.8264 5.60065 27.952 5.67227C28.1565 5.78685 28.2997 5.97878 28.3552 6.20795C28.4078 6.43139 28.3669 6.66343 28.2296 6.85822Z" fill="#A49370"/>
<path d="M34.5199 5.75861C34.5111 5.9935 34.4118 6.21122 34.2336 6.37163L23.2158 16.1514C23.1691 16.1973 23.096 16.1944 23.0522 16.1514C23.0055 16.1056 23.0055 16.034 23.0522 15.9882L33.0152 5.17136C33.1759 4.99662 33.395 4.89635 33.6346 4.89062H33.6697C33.8917 4.89062 34.105 4.97943 34.2686 5.14271C34.4381 5.306 34.5287 5.52944 34.5257 5.76433L34.5199 5.75861Z" fill="#A49370"/>
<path d="M37.5379 9.88244C37.4678 10.1087 37.3129 10.2921 37.1025 10.4009L23.8819 17.0497C23.8147 17.0812 23.7504 17.0554 23.7212 17.0039C23.689 16.9495 23.7065 16.8807 23.7621 16.8463L36.2377 8.92565C36.375 8.83685 36.5387 8.79102 36.7023 8.79102C36.7753 8.79102 36.8425 8.79961 36.9068 8.81393C37.1405 8.86836 37.3363 9.00873 37.4531 9.21784C37.5729 9.41837 37.6022 9.65613 37.535 9.8853L37.5379 9.88244Z" fill="#A49370"/>
<path d="M34.9142 15.3951C34.9142 15.5498 34.8703 15.6987 34.7856 15.8305C34.66 16.0281 34.4613 16.1628 34.2276 16.2058L24.285 18.0935C24.2237 18.105 24.1594 18.062 24.1419 17.999C24.1273 17.9388 24.1594 17.873 24.2207 17.8529L33.7893 14.6044C33.8857 14.5729 33.9792 14.5586 34.0698 14.5586C34.2042 14.5586 34.3415 14.593 34.4642 14.6589C34.6775 14.7677 34.8265 14.9539 34.885 15.1774C34.9025 15.249 34.9142 15.3234 34.9142 15.3979V15.3951Z" fill="#A49370"/>
<path d="M40.1471 19.0734C40.1471 19.3083 40.0507 19.5261 39.8783 19.6893C39.706 19.8526 39.4722 19.9414 39.2356 19.9214L24.3992 19.1909C24.3378 19.1909 24.2881 19.1365 24.2881 19.0734C24.2881 19.0104 24.3378 18.9589 24.3992 18.956L39.2326 18.2227H39.2823C39.5044 18.2227 39.7176 18.3057 39.8783 18.4576C40.0507 18.6208 40.1471 18.8357 40.1471 19.0734Z" fill="#A49370"/>
<path d="M34.7886 22.7201C34.7886 22.7917 34.7769 22.8662 34.7594 22.9407C34.698 23.1641 34.549 23.3474 34.3386 23.4592C34.1283 23.568 33.8916 23.5881 33.6696 23.5136L24.2851 20.1419C24.2237 20.119 24.1916 20.056 24.2062 19.993C24.2208 19.9357 24.2734 19.8984 24.326 19.8984C24.3347 19.8984 24.3435 19.8984 24.3523 19.9042L34.0991 21.9123C34.3328 21.9552 34.5344 22.087 34.6571 22.2847C34.7418 22.4164 34.7857 22.5654 34.7857 22.7201H34.7886Z" fill="#A49370"/>
<path d="M31.4607 25.8504C31.1218 26.0739 30.6865 26.0767 30.3446 25.8561L21.4218 20.0696C21.1851 19.9178 20.8871 19.9092 20.6446 20.0524C20.4021 20.1899 20.2648 20.4506 20.2852 20.7227L21.3692 34.9714C21.4101 35.4899 21.1354 35.9797 20.668 36.2261C20.1537 36.4982 19.546 36.4123 18.9997 35.9912C18.8127 35.8508 18.6695 35.5128 18.69 35.275L19.8528 20.7313C19.8733 20.4535 19.7359 20.1957 19.4934 20.0582C19.3853 19.9894 19.2539 19.955 19.1224 19.955C18.9909 19.955 18.8448 19.998 18.7192 20.0725L9.57719 26.0022C9.23535 26.2257 8.80294 26.24 8.4465 26.0423C8.04038 25.8189 7.81833 25.3634 7.8417 24.7905C7.85047 24.61 8.01116 24.3751 8.18354 24.3007L16.7266 20.4678C18.725 19.5683 19.9492 17.523 19.771 15.3745L19.2159 8.55957C19.1867 8.21008 19.3766 7.88352 19.695 7.7231C20.0544 7.54549 20.481 7.6257 20.8608 7.95227C20.9485 8.02961 20.9952 8.1442 20.9864 8.25878L20.3992 15.4146C20.2268 17.543 21.4305 19.5798 23.3968 20.485L31.6127 24.2691C31.7587 24.335 31.8639 24.4582 31.8931 24.5986C32.0042 25.14 31.8522 25.5955 31.4695 25.8504H31.4607Z" fill="#A49370"/>
<path d="M26.57 24.653C26.5875 24.8707 26.5115 25.0827 26.3508 25.2374C26.1901 25.395 25.9769 25.4723 25.7548 25.4551C25.5298 25.4408 25.3282 25.3234 25.1997 25.1429L23.0084 22.304C22.9617 22.2439 22.9675 22.1579 23.023 22.1064C23.0493 22.0777 23.0902 22.0605 23.1282 22.0605C23.1603 22.0605 23.1896 22.0691 23.2159 22.0863L26.2515 24.1088C26.4356 24.2377 26.5495 24.4353 26.567 24.653H26.57Z" fill="#A49370"/>
<path d="M26.2222 28.1512C26.2222 28.2057 26.2135 28.2601 26.2047 28.3145C26.158 28.538 26.0148 28.727 25.8161 28.8359C25.6204 28.9505 25.3808 28.9734 25.1617 28.9046C24.9396 28.833 24.7614 28.6783 24.6708 28.4721L22.1231 22.8259C22.0939 22.7658 22.1173 22.6913 22.1786 22.6598C22.1961 22.6454 22.2224 22.6426 22.2487 22.6426C22.2926 22.6426 22.3305 22.6626 22.3568 22.697L26.0645 27.6843C26.1667 27.8218 26.2222 27.988 26.2222 28.1512Z" fill="#A49370"/>
<path d="M24.5131 32.2609C24.5131 32.3927 24.478 32.5187 24.4138 32.6391C24.3027 32.8453 24.1157 32.9943 23.8878 33.0544C23.66 33.1117 23.4233 33.0773 23.2188 32.9542C23.0201 32.8281 22.8828 32.6362 22.8448 32.4099L21.1882 23.1658C21.1736 23.1027 21.2145 23.0426 21.2817 23.0254C21.2934 23.0254 21.3021 23.0254 21.3138 23.0254C21.3635 23.0254 21.4161 23.0569 21.4307 23.1085L24.4605 31.9831C24.4926 32.0747 24.5102 32.1721 24.5102 32.2638L24.5131 32.2609Z" fill="#A49370"/>
<path d="M17.9537 15.4741C17.8894 15.5085 17.8076 15.4885 17.7696 15.4283L10.0271 3.73205C9.88398 3.5172 9.83723 3.26225 9.89858 3.0073C9.95994 2.75521 10.1206 2.5461 10.3485 2.42005C10.4946 2.33984 10.6553 2.29688 10.816 2.29688C10.8978 2.29688 10.9825 2.30833 11.0673 2.32839L11.0906 2.33698C11.3419 2.41432 11.5493 2.58047 11.6633 2.80964L18.0092 15.2937C18.0414 15.3567 18.018 15.434 17.9537 15.4741Z" fill="#A49370"/>
<path d="M154.944 13.958C154.716 13.958 154.511 13.9035 154.324 13.7947C154.137 13.6858 153.988 13.5397 153.877 13.3593C153.766 13.1759 153.711 12.9754 153.711 12.7548C153.711 12.5343 153.766 12.3309 153.877 12.1475C153.988 11.9671 154.137 11.821 154.324 11.7121C154.511 11.6033 154.719 11.5488 154.944 11.5488C155.113 11.5488 155.271 11.5803 155.42 11.6434C155.569 11.7064 155.697 11.7923 155.811 11.9012C155.922 12.01 156.01 12.1389 156.074 12.285C156.139 12.4311 156.171 12.5858 156.171 12.752C156.171 12.9725 156.115 13.1731 156.004 13.3564C155.893 13.5397 155.747 13.6858 155.56 13.7918C155.376 13.9007 155.169 13.9551 154.944 13.9551V13.958ZM154.944 13.7202C155.125 13.7202 155.291 13.6772 155.44 13.5942C155.589 13.5111 155.706 13.3936 155.794 13.2475C155.881 13.1015 155.925 12.9382 155.925 12.7606C155.925 12.583 155.881 12.4197 155.794 12.2736C155.706 12.1275 155.589 12.0129 155.44 11.927C155.291 11.841 155.128 11.798 154.944 11.798C154.759 11.798 154.593 11.841 154.444 11.927C154.295 12.0129 154.178 12.1275 154.09 12.2736C154.003 12.4197 153.959 12.5801 153.959 12.7606C153.959 12.941 154.003 13.1015 154.09 13.2475C154.178 13.3936 154.295 13.5082 154.444 13.5942C154.593 13.6801 154.759 13.7231 154.944 13.7231V13.7202ZM154.497 13.385V12.116H154.996C155.128 12.116 155.236 12.1504 155.32 12.222C155.405 12.2936 155.446 12.391 155.446 12.5199C155.446 12.5973 155.429 12.6689 155.391 12.7348C155.353 12.7978 155.294 12.8494 155.215 12.8837L155.516 13.385H155.239L154.976 12.9238H154.742V13.385H154.497ZM154.742 12.7147H154.996C155.06 12.7147 155.11 12.6947 155.148 12.6574C155.186 12.6202 155.204 12.5744 155.204 12.5199C155.204 12.4626 155.186 12.4168 155.148 12.3824C155.11 12.3481 155.06 12.3309 154.996 12.3309H154.742V12.7119V12.7147Z" fill="#A49370"/>
</svg>
