<svg width="43" height="63" viewBox="0 0 43 63" fill="none" xmlns="http://www.w3.org/2000/svg">
<g clip-path="url(#clip0_381_132)">
<path d="M18.6105 23.7009L16.9228 32.9417C16.8801 33.1727 16.7489 33.3717 16.5551 33.5033C16.3612 33.6291 16.1303 33.6642 15.9051 33.6027C15.6798 33.5413 15.4974 33.3921 15.3919 33.1815C15.2836 32.9738 15.2665 32.734 15.3463 32.5087L18.3739 23.6424C18.3939 23.5898 18.4423 23.5547 18.4936 23.5547C18.5051 23.5547 18.5136 23.5547 18.525 23.5547C18.5877 23.5722 18.6276 23.6366 18.6134 23.7009H18.6105Z" fill="#A49370"/>
<path d="M17.5813 23.2966L13.7612 31.5252C13.6585 31.7416 13.4818 31.8967 13.2622 31.964C13.0399 32.0342 12.8118 32.0078 12.6094 31.8908C12.4098 31.7738 12.273 31.5808 12.2188 31.3497C12.1704 31.1186 12.2131 30.8816 12.3443 30.6856L17.3647 23.1708C17.3875 23.1357 17.4245 23.1152 17.4673 23.1152C17.4872 23.1152 17.5101 23.1211 17.53 23.1328C17.5842 23.165 17.6041 23.2381 17.5756 23.2966H17.5813Z" fill="#A49370"/>
<path d="M16.7547 22.7409L13.3878 26.9707C13.2538 27.1491 13.0457 27.2574 12.8205 27.2749C12.5981 27.2895 12.3815 27.2047 12.2275 27.0409C12.0679 26.8829 11.9852 26.6606 11.9994 26.4295C12.0137 26.2014 12.122 25.9878 12.2931 25.8474L16.5666 22.542C16.5894 22.5273 16.6179 22.5156 16.6492 22.5156C16.6891 22.5156 16.7205 22.5303 16.7462 22.5537C16.7946 22.6063 16.8003 22.6882 16.7576 22.7438L16.7547 22.7409Z" fill="#A49370"/>
<path d="M15.4603 20.5826L8.26467 22.7795C8.05655 22.838 7.83989 22.8116 7.65173 22.7034C7.46357 22.5952 7.33243 22.4167 7.27256 22.2032C7.21269 21.9633 7.25546 21.7118 7.3923 21.5158C7.52629 21.3169 7.74011 21.1881 7.97958 21.1677L15.4033 20.334C15.4033 20.334 15.4175 20.334 15.4232 20.334C15.4802 20.334 15.5316 20.3749 15.5458 20.4334C15.5629 20.5036 15.5287 20.5709 15.4603 20.5943V20.5826Z" fill="#A49370"/>
<path d="M15.4745 19.4743C15.4745 19.5386 15.4261 19.5913 15.3662 19.5942L0.889431 20.3401C0.664211 20.3547 0.438992 20.2728 0.265088 20.1032C0.0968866 19.9364 0.00280762 19.7141 0.00280762 19.4743C0.00280762 19.2344 0.0968866 19.0091 0.265088 18.8453C0.424738 18.6874 0.62715 18.6055 0.849518 18.6055H0.895133L15.3719 19.3543C15.4318 19.3543 15.4802 19.4099 15.4802 19.4743H15.4745Z" fill="#A49370"/>
<path d="M15.62 18.3457C15.62 18.3457 15.62 18.3662 15.6143 18.3808C15.6 18.4452 15.5373 18.4832 15.4746 18.4715L4.63554 16.2396C4.40747 16.1928 4.21076 16.0553 4.09102 15.8535C3.96843 15.6516 3.93422 15.4118 3.99409 15.1777C4.05681 14.9466 4.20221 14.7565 4.40747 14.6454C4.53006 14.5781 4.6612 14.543 4.79804 14.543C4.88927 14.543 4.9805 14.5576 5.06602 14.5898L15.5401 18.2287C15.5886 18.2433 15.6228 18.2931 15.6228 18.3428L15.62 18.3457Z" fill="#A49370"/>
<path d="M16.0448 17.3007C16.0448 17.3212 16.0391 17.3416 16.0277 17.3621C15.9992 17.4177 15.9308 17.4382 15.8737 17.4089L2.97067 10.6195C2.76255 10.5113 2.61146 10.3212 2.54589 10.0901C2.47746 9.86192 2.50597 9.61913 2.62286 9.40851C2.73974 9.1979 2.93075 9.05456 3.15882 8.99606C3.22439 8.98143 3.28996 8.97266 3.35839 8.97266C3.51803 8.97266 3.67768 9.01946 3.81453 9.11014L15.9878 17.1983C16.022 17.2188 16.0419 17.2597 16.0419 17.2978L16.0448 17.3007Z" fill="#A49370"/>
<path d="M16.6805 16.4883C16.6378 16.5321 16.5665 16.5321 16.5209 16.4883L7.04741 7.80335C6.87351 7.64539 6.77373 7.426 6.76802 7.18321C6.75947 6.94627 6.84785 6.72103 7.0132 6.55137C7.17285 6.38756 7.38096 6.29688 7.60618 6.29688H7.62899C7.86561 6.30565 8.07943 6.40511 8.23052 6.58354L16.6834 16.3186C16.7261 16.3654 16.7233 16.4385 16.6777 16.4853L16.6805 16.4883Z" fill="#A49370"/>
<path d="M18.6162 15.2466V15.2641C18.6162 15.3197 18.5763 15.3723 18.525 15.3899C18.4594 15.4045 18.3939 15.3723 18.3682 15.308L15.6998 7.75805C15.62 7.53574 15.6342 7.29879 15.7425 7.09111C15.848 6.88049 16.0276 6.73131 16.25 6.66988C16.3184 6.65233 16.3897 6.64062 16.461 6.64062C16.6149 6.64062 16.7632 6.68743 16.8943 6.77226C17.0853 6.90097 17.2165 7.09696 17.2564 7.33097L18.6162 15.2466Z" fill="#A49370"/>
<path d="M25.2417 1.13887L20.9027 15.3115C20.8884 15.3583 20.8457 15.3934 20.7944 15.3934C20.7829 15.3934 20.7744 15.3934 20.7658 15.3934C20.7031 15.3758 20.6661 15.3144 20.6775 15.253L23.611 0.685468C23.6623 0.451453 23.7992 0.249614 23.9987 0.12383C24.1299 0.0419248 24.281 -0.00195312 24.4378 -0.00195312C24.5119 -0.00195312 24.5889 0.00974767 24.6601 0.0272989C24.8825 0.088728 25.0707 0.240838 25.1847 0.451453C25.2959 0.662067 25.3158 0.904858 25.2446 1.13595L25.2417 1.13887Z" fill="#A49370"/>
<path d="M27.548 7.0009L21.8064 15.7765C21.7665 15.8291 21.7009 15.8496 21.6439 15.8145C21.5897 15.7823 21.5669 15.7092 21.5954 15.6507L26.1198 6.15259C26.2224 5.93612 26.3991 5.78109 26.6215 5.71381C26.7042 5.69041 26.784 5.67578 26.8667 5.67578C27.0121 5.67578 27.1546 5.71673 27.2772 5.78986C27.4768 5.90687 27.6165 6.10286 27.6706 6.33688C27.722 6.56504 27.682 6.80198 27.548 7.0009Z" fill="#A49370"/>
<path d="M33.686 5.87852C33.6775 6.11839 33.5805 6.3407 33.4066 6.50451L22.656 16.4911C22.6103 16.5379 22.5391 16.535 22.4963 16.4911C22.4507 16.4443 22.4507 16.3712 22.4963 16.3244L32.2178 5.27886C32.3746 5.10042 32.5884 4.99804 32.8222 4.99219H32.8564C33.0731 4.99219 33.2812 5.08287 33.4408 5.24961C33.6062 5.41634 33.6946 5.64451 33.6917 5.88437L33.686 5.87852Z" fill="#A49370"/>
<path d="M36.631 10.0891C36.5626 10.3202 36.4115 10.5074 36.2063 10.6186L23.306 17.408C23.2405 17.4401 23.1777 17.4138 23.1492 17.3612C23.1179 17.3056 23.135 17.2354 23.1891 17.2003L35.3624 9.11209C35.4964 9.02141 35.656 8.97461 35.8157 8.97461C35.887 8.97461 35.9525 8.98338 36.0152 8.99801C36.2433 9.05359 36.4343 9.19692 36.5484 9.41046C36.6652 9.61523 36.6938 9.85802 36.6282 10.092L36.631 10.0891Z" fill="#A49370"/>
<path d="M34.0709 15.7174C34.0709 15.8754 34.0281 16.0275 33.9454 16.1621C33.8228 16.3639 33.629 16.5014 33.4009 16.5453L23.6994 18.473C23.6395 18.4847 23.5768 18.4408 23.5597 18.3764C23.5454 18.315 23.5768 18.2477 23.6367 18.2273L32.9733 14.9101C33.0674 14.8779 33.1586 14.8633 33.247 14.8633C33.3781 14.8633 33.5121 14.8984 33.6318 14.9657C33.84 15.0768 33.9853 15.267 34.0424 15.4951C34.0595 15.5683 34.0709 15.6443 34.0709 15.7204V15.7174Z" fill="#A49370"/>
<path d="M39.1768 19.4743C39.1768 19.7141 39.0828 19.9364 38.9146 20.1032C38.7464 20.2699 38.5183 20.3606 38.2874 20.3401L23.8106 19.5942C23.7507 19.5942 23.7023 19.5386 23.7023 19.4743C23.7023 19.4099 23.7507 19.3572 23.8106 19.3543L38.2845 18.6055H38.333C38.5496 18.6055 38.7578 18.6903 38.9146 18.8453C39.0828 19.0121 39.1768 19.2315 39.1768 19.4743Z" fill="#A49370"/>
<path d="M33.9482 23.1977C33.9482 23.2709 33.9368 23.3469 33.9197 23.423C33.8599 23.6511 33.7145 23.8383 33.5092 23.9524C33.304 24.0636 33.073 24.0841 32.8564 24.008L23.6993 20.565C23.6395 20.5416 23.6081 20.4773 23.6224 20.4129C23.6366 20.3544 23.6879 20.3164 23.7393 20.3164C23.7478 20.3164 23.7564 20.3164 23.7649 20.3223L33.2754 22.3728C33.5035 22.4167 33.7002 22.5513 33.82 22.7531C33.9026 22.8877 33.9454 23.0398 33.9454 23.1977H33.9482Z" fill="#A49370"/>
<path d="M30.7011 26.3959C30.3704 26.624 29.9456 26.6269 29.6121 26.4017L20.9055 20.4928C20.6746 20.3378 20.3838 20.329 20.1471 20.4753C19.9105 20.6157 19.7765 20.8819 19.7965 21.1598L20.8542 35.7097C20.8941 36.2391 20.6261 36.7394 20.1699 36.9909C19.6682 37.2688 19.0752 37.1811 18.5421 36.7511C18.3596 36.6077 18.2199 36.2625 18.2399 36.0198L19.3745 21.1685C19.3945 20.8848 19.2605 20.6215 19.0239 20.4811C18.9184 20.4109 18.7901 20.3758 18.6618 20.3758C18.5335 20.3758 18.391 20.4197 18.2684 20.4957L9.34801 26.5509C9.01446 26.7791 8.59253 26.7937 8.24472 26.5918C7.84845 26.3637 7.63178 25.8986 7.65459 25.3135C7.66314 25.1292 7.81994 24.8894 7.98814 24.8133L16.3241 20.8994C18.2741 19.9809 19.4686 17.8923 19.2947 15.6984L18.7531 8.73936C18.7245 8.38249 18.9099 8.04901 19.2206 7.8852C19.5713 7.70384 19.9875 7.78575 20.3581 8.11922C20.4436 8.1982 20.4892 8.31521 20.4807 8.43221L19.9077 15.7394C19.7395 17.9128 20.914 19.9926 22.8327 20.917L30.8493 24.7811C30.9919 24.8484 31.0945 24.9742 31.123 25.1175C31.2314 25.6704 31.0831 26.1355 30.7096 26.3959H30.7011Z" fill="#A49370"/>
<path d="M25.9289 25.1727C25.946 25.395 25.8718 25.6115 25.715 25.7694C25.5582 25.9303 25.3501 26.0093 25.1335 25.9918C24.9139 25.9771 24.7172 25.8572 24.5918 25.6729L22.4536 22.774C22.408 22.7126 22.4137 22.6248 22.4679 22.5722C22.4935 22.5429 22.5335 22.5254 22.5705 22.5254C22.6019 22.5254 22.6304 22.5342 22.6561 22.5517L25.6181 24.6169C25.7977 24.7485 25.9089 24.9504 25.926 25.1727H25.9289Z" fill="#A49370"/>
<path d="M25.5895 28.7443C25.5895 28.7999 25.5809 28.8555 25.5724 28.911C25.5268 29.1392 25.3871 29.3323 25.1932 29.4434C25.0022 29.5604 24.7684 29.5838 24.5546 29.5136C24.338 29.4405 24.1641 29.2825 24.0757 29.0719L21.5897 23.3064C21.5612 23.2449 21.584 23.1689 21.6439 23.1367C21.661 23.1221 21.6866 23.1191 21.7123 23.1191C21.7551 23.1191 21.7921 23.1396 21.8178 23.1747L25.4356 28.2675C25.5353 28.4079 25.5895 28.5776 25.5895 28.7443Z" fill="#A49370"/>
<path d="M23.9217 32.9406C23.9217 33.0752 23.8875 33.2039 23.8248 33.3267C23.7165 33.5373 23.534 33.6895 23.3117 33.7509C23.0893 33.8094 22.8584 33.7743 22.6588 33.6485C22.4649 33.5198 22.331 33.3238 22.2939 33.0927L20.6774 23.6531C20.6632 23.5887 20.7031 23.5273 20.7687 23.5098C20.7801 23.5098 20.7886 23.5098 20.8 23.5098C20.8485 23.5098 20.8998 23.5419 20.9141 23.5946L23.8704 32.6569C23.9018 32.7505 23.9189 32.8499 23.9189 32.9435L23.9217 32.9406Z" fill="#A49370"/>
<path d="M17.5215 15.7997C17.4588 15.8348 17.379 15.8143 17.3419 15.7529L9.78712 3.80927C9.64742 3.58988 9.60181 3.32954 9.66168 3.0692C9.72154 2.81178 9.87834 2.59824 10.1007 2.46953C10.2433 2.38763 10.4001 2.34375 10.5569 2.34375C10.6367 2.34375 10.7194 2.35545 10.802 2.37593L10.8248 2.3847C11.07 2.46368 11.2724 2.63334 11.3836 2.86736L17.5757 15.6154C17.6071 15.6797 17.5843 15.7587 17.5215 15.7997Z" fill="#A49370"/>
<path d="M41.5175 3.04017C41.2951 3.04017 41.0955 2.98459 40.9131 2.87343C40.7306 2.76228 40.5852 2.61309 40.4769 2.4288C40.3686 2.24159 40.3144 2.03683 40.3144 1.81159C40.3144 1.58635 40.3686 1.37866 40.4769 1.19144C40.5852 1.00716 40.7306 0.857972 40.9131 0.746814C41.0955 0.635657 41.2979 0.580078 41.5175 0.580078C41.6828 0.580078 41.8368 0.612255 41.9822 0.67661C42.1275 0.740964 42.253 0.82872 42.3642 0.939878C42.4725 1.05104 42.558 1.18267 42.6208 1.33185C42.6835 1.48104 42.7148 1.639 42.7148 1.80866C42.7148 2.0339 42.6607 2.23867 42.5523 2.42588C42.444 2.61309 42.3015 2.76228 42.119 2.87051C41.9394 2.98167 41.737 3.03724 41.5175 3.03724V3.04017ZM41.5175 2.79738C41.6942 2.79738 41.8567 2.7535 42.0021 2.66867C42.1475 2.58384 42.2615 2.46391 42.3471 2.31472C42.4326 2.16554 42.4754 1.9988 42.4754 1.81744C42.4754 1.63607 42.4326 1.46934 42.3471 1.32015C42.2615 1.17097 42.1475 1.05396 42.0021 0.966204C41.8567 0.878448 41.6971 0.83457 41.5175 0.83457C41.3379 0.83457 41.1754 0.878448 41.03 0.966204C40.8846 1.05396 40.7705 1.17097 40.685 1.32015C40.5995 1.46934 40.5567 1.63315 40.5567 1.81744C40.5567 2.00172 40.5995 2.16554 40.685 2.31472C40.7705 2.46391 40.8846 2.58091 41.03 2.66867C41.1754 2.75643 41.3379 2.8003 41.5175 2.8003V2.79738ZM41.0813 2.45513V1.16219H41.5688C41.6971 1.16219 41.8025 1.1973 41.8852 1.27042C41.9679 1.34355 42.0078 1.44301 42.0078 1.57465C42.0078 1.65363 41.9907 1.72676 41.9536 1.79404C41.9166 1.85839 41.8596 1.91104 41.7826 1.94615L42.0762 2.45806H41.8054L41.5488 1.9871H41.3208V2.45806H41.0813V2.45513ZM41.3208 1.77063H41.5688C41.6315 1.77063 41.68 1.75016 41.717 1.71213C41.7541 1.6741 41.7712 1.6273 41.7712 1.57172C41.7712 1.51322 41.7541 1.46641 41.717 1.43131C41.68 1.39621 41.6315 1.37866 41.5688 1.37866H41.3208V1.76771V1.77063Z" fill="#A49370"/>
<path d="M4.28495 47.2859H6.02399C6.64548 47.2859 7.19285 47.1688 7.66609 46.9348C8.13934 46.7008 8.5128 46.3615 8.78649 45.9227C9.06017 45.481 9.19701 44.9515 9.19701 44.3314C9.19701 43.7113 9.06302 43.1672 8.79219 42.7284C8.52136 42.2867 8.14789 41.9532 7.67179 41.7221C7.19285 41.491 6.64548 41.377 6.02399 41.377H2.61719V50.7522H4.28495V47.2917V47.2859ZM4.28495 42.8805H6.04964C6.35184 42.8805 6.61412 42.9419 6.83364 43.0619C7.05315 43.1847 7.22706 43.3515 7.34965 43.565C7.47223 43.7785 7.53495 44.033 7.53495 44.3256C7.53495 44.6181 7.47223 44.8638 7.34965 45.0803C7.22706 45.2996 7.056 45.4693 6.83364 45.5892C6.61412 45.7121 6.35184 45.7706 6.04964 45.7706H4.28495V42.8776V42.8805Z" fill="#A49370"/>
<path d="M14.3029 50.6827C14.6821 50.5394 15.0128 50.3434 15.2893 50.0918C15.5658 49.8403 15.7711 49.5507 15.9022 49.223L14.6022 48.5678C14.454 48.8369 14.2516 49.0505 13.995 49.2084C13.7384 49.3693 13.4248 49.4483 13.0571 49.4483C12.6893 49.4483 12.3643 49.3605 12.0821 49.185C11.7998 49.0095 11.5889 48.7579 11.4435 48.4362C11.3551 48.2373 11.3009 48.0208 11.281 47.7897H16.0818C16.1132 47.6961 16.136 47.5879 16.1503 47.4621C16.1617 47.3363 16.1702 47.2134 16.1702 47.0964C16.1702 46.6342 16.0961 46.2042 15.9507 45.8064C15.8025 45.4086 15.5915 45.0546 15.3121 44.7416C15.0356 44.4316 14.6963 44.1888 14.3 44.0133C13.9038 43.8378 13.4448 43.75 12.9202 43.75C12.2987 43.75 11.7371 43.905 11.2354 44.2151C10.7336 44.5252 10.3373 44.9464 10.0465 45.4788C9.75575 46.0112 9.61035 46.6225 9.61035 47.31C9.61035 47.9974 9.7529 48.5766 10.038 49.1207C10.3231 49.6648 10.725 50.0977 11.2382 50.4165C11.7542 50.7354 12.3529 50.8933 13.04 50.8933C13.4961 50.8933 13.9152 50.8231 14.2972 50.6798L14.3029 50.6827ZM12.0279 45.3676C12.2902 45.195 12.5867 45.1102 12.9231 45.1102C13.2595 45.1102 13.5731 45.198 13.824 45.3735C14.072 45.549 14.2516 45.7889 14.3628 46.0902C14.4141 46.2276 14.4454 46.3739 14.4568 46.5319H11.318C11.3465 46.3856 11.3836 46.2481 11.4349 46.1223C11.5689 45.7918 11.7685 45.5402 12.0279 45.3676Z" fill="#A49370"/>
<path d="M19.0867 50.8953C19.4544 50.8953 19.788 50.8426 20.0902 50.7373C20.3924 50.632 20.6632 50.4828 20.8998 50.2839C20.9939 50.2049 21.0851 50.1172 21.1707 50.0236V50.7432H22.6902V46.1886C22.6902 45.703 22.5733 45.276 22.3395 44.9103C22.1058 44.5447 21.7808 44.2609 21.3645 44.0532C20.9483 43.8485 20.4665 43.7461 19.9191 43.7461C19.4687 43.7461 19.0525 43.8222 18.6705 43.9713C18.2856 44.1234 17.9549 44.3311 17.6726 44.5944C17.3904 44.8577 17.1851 45.1707 17.054 45.5305L18.3654 46.1857C18.488 45.8756 18.6819 45.627 18.947 45.4369C19.2121 45.2467 19.5172 45.1531 19.8593 45.1531C20.227 45.1531 20.5235 45.2526 20.7487 45.4486C20.974 45.6445 21.0851 45.8903 21.0851 46.1857V46.408L19.1009 46.7386C18.5792 46.8234 18.1459 46.9638 17.8009 47.1657C17.4588 47.3675 17.2051 47.6161 17.0426 47.9145C16.8801 48.2129 16.7974 48.5493 16.7974 48.9266C16.7974 49.304 16.8915 49.6667 17.0797 49.9651C17.2678 50.2634 17.533 50.4916 17.8751 50.6496C18.2172 50.8075 18.622 50.8894 19.0895 50.8894L19.0867 50.8953ZM18.6961 48.2772C18.8501 48.1251 19.0895 48.0227 19.406 47.9642L21.0851 47.6717V47.9525C21.0851 48.2626 21.0139 48.5493 20.8713 48.8096C20.7288 49.07 20.5292 49.2747 20.2698 49.421C20.0132 49.5672 19.7167 49.6404 19.3803 49.6404C19.118 49.6404 18.9014 49.5702 18.7246 49.4327C18.5479 49.2952 18.4623 49.108 18.4623 48.874C18.4623 48.64 18.5393 48.4323 18.6961 48.2831V48.2772Z" fill="#A49370"/>
<path d="M25.3073 50.4243C25.8347 50.7373 26.4276 50.8953 27.0919 50.8953C27.5737 50.8953 28.0184 50.8104 28.429 50.6379C28.8366 50.4653 29.1873 50.2283 29.4838 49.9212C29.7774 49.614 29.9912 49.2689 30.1224 48.8827L28.7141 48.2275C28.5915 48.5785 28.3862 48.8623 28.1011 49.07C27.816 49.2806 27.4796 49.383 27.0976 49.383C26.7469 49.383 26.4333 49.2952 26.1597 49.1197C25.886 48.9442 25.6722 48.7014 25.5154 48.3884C25.3614 48.0783 25.2816 47.7214 25.2816 47.3178C25.2816 46.9141 25.3586 46.5572 25.5154 46.2471C25.6693 45.9371 25.886 45.6943 26.1597 45.5188C26.4333 45.3433 26.7469 45.2555 27.0976 45.2555C27.4739 45.2555 27.8075 45.3608 28.0954 45.5685C28.3862 45.7791 28.5915 46.0541 28.7141 46.3992L30.1224 45.7703C29.9912 45.3608 29.7774 45.0039 29.4781 44.7085C29.1787 44.4101 28.8252 44.1761 28.4176 44.0035C28.0099 43.8309 27.568 43.7461 27.0948 43.7461C26.4333 43.7461 25.8375 43.9011 25.3101 44.2112C24.7827 44.5213 24.3693 44.9454 24.0671 45.4807C23.7649 46.019 23.6138 46.6245 23.6138 47.3061C23.6138 47.9876 23.7649 48.5961 24.0671 49.1372C24.3693 49.6784 24.7855 50.1055 25.3101 50.4214L25.3073 50.4243Z" fill="#A49370"/>
<path d="M32.3973 50.4195C32.9133 50.7383 33.512 50.8963 34.1991 50.8963C34.6552 50.8963 35.0743 50.8261 35.4563 50.6827C35.8355 50.5394 36.1662 50.3434 36.4427 50.0918C36.7193 49.8403 36.9245 49.5507 37.0557 49.223L35.7557 48.5678C35.6074 48.8369 35.405 49.0505 35.1484 49.2084C34.8918 49.3693 34.5783 49.4483 34.2105 49.4483C33.8427 49.4483 33.5177 49.3605 33.2355 49.185C32.9533 49.0095 32.7423 48.7579 32.5969 48.4362C32.5085 48.2373 32.4543 48.0208 32.4344 47.7897H37.2353C37.2666 47.6961 37.2894 47.5879 37.3037 47.4621C37.3151 47.3363 37.3208 47.2134 37.3208 47.0964C37.3208 46.6342 37.2467 46.2042 37.1013 45.8064C36.953 45.4086 36.7421 45.0546 36.4627 44.7416C36.1861 44.4316 35.8469 44.1888 35.4506 44.0133C35.0543 43.8378 34.5954 43.75 34.0708 43.75C33.4493 43.75 32.8877 43.905 32.3859 44.2151C31.8842 44.5252 31.4879 44.9464 31.1971 45.4788C30.9063 46.0112 30.7609 46.6225 30.7609 47.31C30.7609 47.9974 30.9035 48.5766 31.1886 49.1207C31.4736 49.6648 31.8756 50.0977 32.3888 50.4165L32.3973 50.4195ZM33.1813 45.3676C33.4436 45.195 33.7401 45.1102 34.0765 45.1102C34.4129 45.1102 34.7265 45.198 34.9774 45.3735C35.2254 45.549 35.405 45.7889 35.5162 46.0902C35.5675 46.2276 35.596 46.3739 35.6103 46.5319H32.4715C32.5 46.3856 32.537 46.2481 32.5883 46.1223C32.7223 45.7918 32.9219 45.5402 33.1813 45.3676Z" fill="#A49370"/>
<path d="M10.4001 58.2581H8.7209L7.84283 59.5685L6.59699 58.141C6.81936 58.0065 7.05028 57.8456 7.29261 57.6613C7.5834 57.439 7.83142 57.167 8.03954 56.8423C8.24765 56.5205 8.35313 56.1256 8.35313 55.6663C8.35313 55.2071 8.2448 54.8092 8.02813 54.4582C7.81147 54.1043 7.52068 53.8293 7.15862 53.6275C6.7937 53.4256 6.38888 53.3262 5.93844 53.3262C5.488 53.3262 5.09173 53.4256 4.71826 53.6216C4.34765 53.8176 4.04831 54.0984 3.82309 54.4641C3.59787 54.8297 3.48668 55.2539 3.48668 55.7424C3.48668 56.111 3.5494 56.4474 3.67199 56.7487C3.79458 57.0499 3.94853 57.3249 4.13668 57.5736C4.20511 57.6642 4.27638 57.7549 4.3448 57.8398C4.27068 57.8866 4.19085 57.9392 4.10533 57.9948C3.88866 58.1381 3.66914 58.3195 3.44962 58.5418C3.23011 58.7641 3.04195 59.0332 2.89085 59.3462C2.73975 59.6592 2.66278 60.0307 2.66278 60.4607C2.66278 60.9726 2.78252 61.4202 3.02484 61.8005C3.26717 62.1837 3.59787 62.4791 4.02265 62.6868C4.44743 62.8974 4.94063 62.9998 5.50511 62.9998C5.97835 62.9998 6.38888 62.9296 6.73669 62.7921C7.08449 62.6546 7.38384 62.4791 7.63756 62.2627C7.76015 62.1603 7.87134 62.055 7.97682 61.9467L8.77792 62.8477H10.7023L8.84919 60.724L10.3944 58.2551L10.4001 58.2581ZM5.28274 54.9555C5.46805 54.7654 5.69041 54.6718 5.94984 54.6718C6.20927 54.6718 6.44305 54.7654 6.61695 54.9555C6.7937 55.1456 6.87923 55.3767 6.87923 55.6546C6.87923 55.8974 6.81366 56.111 6.68252 56.2894C6.55138 56.4708 6.37748 56.6346 6.16081 56.7808C6.00971 56.8832 5.84721 56.9856 5.67331 57.085C5.61059 57.009 5.54502 56.9271 5.4823 56.8423C5.35116 56.6697 5.23997 56.4825 5.1459 56.2835C5.05182 56.0817 5.0062 55.8769 5.0062 55.6663C5.0062 55.3826 5.09743 55.1427 5.28274 54.9555ZM6.66256 61.1686C6.52287 61.2915 6.36322 61.3909 6.18362 61.4699C6.00401 61.5489 5.79875 61.5899 5.57068 61.5899C5.19436 61.5899 4.89787 61.4875 4.6812 61.2827C4.46454 61.0779 4.3562 60.7942 4.3562 60.4344C4.3562 60.1331 4.42462 59.8757 4.56432 59.6592C4.70401 59.4457 4.87221 59.2614 5.07177 59.1064C5.1516 59.0449 5.22572 58.9894 5.30269 58.9367L6.97901 60.8264C6.88778 60.9492 6.7823 61.0633 6.65686 61.1716L6.66256 61.1686Z" fill="#A49370"/>
<path d="M13.3907 53.4766H11.7229V62.8489H17.2992V61.3395H13.3907V53.4766Z" fill="#A49370"/>
<path d="M22.6674 56.3186C22.1372 56.0086 21.5442 55.8535 20.8913 55.8535C20.2385 55.8535 19.6341 56.0086 19.101 56.3186C18.5707 56.6287 18.1459 57.0528 17.8323 57.5882C17.5187 58.1264 17.3619 58.7378 17.3619 59.4252C17.3619 60.1126 17.5187 60.7269 17.8323 61.2622C18.1459 61.8004 18.5707 62.2217 19.1067 62.5317C19.6426 62.8418 20.2356 62.9969 20.8913 62.9969C21.547 62.9969 22.1258 62.8418 22.656 62.5317C23.1863 62.2217 23.6111 61.7975 23.9304 61.2622C24.2497 60.7269 24.4093 60.1126 24.4093 59.4252C24.4093 58.7378 24.2525 58.1147 23.9389 57.5823C23.6253 57.0499 23.2005 56.6287 22.6703 56.3186H22.6674ZM22.4878 60.49C22.3282 60.8029 22.1115 61.0487 21.8378 61.2271C21.5641 61.4026 21.2477 61.4904 20.8885 61.4904C20.5293 61.4904 20.1986 61.4026 19.9192 61.2271C19.6426 61.0516 19.4231 60.8059 19.2635 60.49C19.1038 60.177 19.024 59.8201 19.024 59.4281C19.024 59.0361 19.1038 58.6705 19.2635 58.3663C19.4231 58.0591 19.6426 57.8163 19.9192 57.635C20.1957 57.4536 20.5207 57.3658 20.8885 57.3658C21.2562 57.3658 21.5641 57.4565 21.8378 57.635C22.1115 57.8163 22.3282 58.0591 22.4878 58.3663C22.6475 58.6734 22.7273 59.0274 22.7273 59.4281C22.7273 59.8289 22.6475 60.177 22.4878 60.49Z" fill="#A49370"/>
<path d="M29.1872 56.0059L27.6021 60.4726L26.0256 56.0059H24.2723L26.8951 62.8508H28.3177L30.9405 56.0059H29.1872Z" fill="#A49370"/>
<path d="M37.1527 57.9099C37.0045 57.5121 36.7935 57.1582 36.5141 56.8452C36.2376 56.5351 35.8983 56.2923 35.5021 56.1168C35.1058 55.9413 34.6468 55.8535 34.1222 55.8535C33.5008 55.8535 32.9391 56.0086 32.4374 56.3186C31.9356 56.6287 31.5394 57.0499 31.2486 57.5823C30.9578 58.1147 30.8124 58.7261 30.8124 59.4135C30.8124 60.1009 30.9549 60.6801 31.24 61.2242C31.5251 61.7683 31.9271 62.2012 32.4402 62.52C32.9562 62.8389 33.5549 62.9969 34.242 62.9969C34.6981 62.9969 35.1172 62.9266 35.4992 62.7833C35.8784 62.64 36.2091 62.444 36.4856 62.1924C36.7622 61.9409 36.9674 61.6513 37.0986 61.3236L35.7986 60.6684C35.6503 60.9375 35.4479 61.151 35.1913 61.309C34.9347 61.4699 34.6212 61.5489 34.2534 61.5489C33.8856 61.5489 33.5606 61.4611 33.2784 61.2856C32.9962 61.1101 32.7852 60.8585 32.6398 60.5368C32.5514 60.3378 32.4972 60.1214 32.4773 59.8874H37.2782C37.3095 59.7938 37.3323 59.6855 37.3466 59.5597C37.358 59.434 37.3665 59.3111 37.3665 59.1941C37.3665 58.7319 37.2924 58.3019 37.147 57.9041L37.1527 57.9099ZM33.2299 57.4712C33.4922 57.2986 33.7887 57.2137 34.1251 57.2137C34.4615 57.2137 34.7751 57.3015 35.026 57.477C35.274 57.6525 35.4536 57.8924 35.5648 58.1937C35.6161 58.3312 35.6475 58.4774 35.6589 58.6354H32.5201C32.5486 58.4891 32.5856 58.3516 32.6369 58.2259C32.7709 57.8953 32.9705 57.6437 33.2299 57.4712Z" fill="#A49370"/>
</g>
<defs>
<clipPath id="clip0_381_132">
<rect width="42.7119" height="63" fill="white"/>
</clipPath>
</defs>
</svg>
