<svg width="2185" height="174" viewBox="0 0 2185 174" fill="none" xmlns="http://www.w3.org/2000/svg">
<path d="M828.708 165.503L822.216 75.7279C822.139 75.1549 821.706 74.7065 821.121 74.7315C820.561 74.7315 820.077 75.1549 820.026 75.7279L813.941 165.553C813.789 167.596 814.502 169.514 815.927 170.984C816.462 171.532 817.022 171.98 817.684 172.329C818.804 172.952 820.077 173.275 821.35 173.275C823.412 173.275 825.322 172.453 826.773 170.959C828.173 169.489 828.86 167.571 828.708 165.528L828.708 165.503Z" fill="url(#paint0_linear_406_89)"/>
<path d="M1100.28 165.503L1093.78 75.7279C1093.71 75.1549 1093.28 74.7065 1092.69 74.7315C1092.13 74.7315 1091.65 75.1549 1091.6 75.7279L1085.51 165.553C1085.36 167.596 1086.07 169.514 1087.5 170.984C1088.03 171.532 1088.59 171.98 1089.25 172.329C1090.37 172.952 1091.65 173.275 1092.92 173.275C1094.98 173.275 1096.89 172.453 1098.34 170.959C1099.74 169.489 1100.43 167.571 1100.28 165.528L1100.28 165.503Z" fill="url(#paint1_linear_406_89)"/>
<path d="M851.34 106.441L844.848 16.6654C844.772 16.0924 844.339 15.644 843.754 15.669C843.194 15.669 842.71 16.0924 842.659 16.6654L836.574 106.491C836.422 108.533 837.134 110.451 838.56 111.921C839.095 112.469 839.655 112.918 840.317 113.266C841.437 113.889 842.71 114.213 843.983 114.213C846.045 114.213 847.954 113.391 849.406 111.896C850.806 110.427 851.493 108.509 851.34 106.466L851.34 106.441Z" fill="url(#paint2_linear_406_89)"/>
<path d="M1032.38 106.441L1025.89 16.6654C1025.81 16.0924 1025.38 15.644 1024.79 15.669C1024.23 15.669 1023.75 16.0924 1023.7 16.6654L1017.61 106.491C1017.46 108.533 1018.17 110.451 1019.6 111.921C1020.13 112.469 1020.69 112.918 1021.35 113.266C1022.47 113.889 1023.75 114.213 1025.02 114.213C1027.08 114.213 1028.99 113.391 1030.44 111.896C1031.84 110.427 1032.53 108.509 1032.38 106.466L1032.38 106.441Z" fill="url(#paint3_linear_406_89)"/>
<path d="M941.847 106.441L935.355 16.6654C935.278 16.0924 934.846 15.644 934.26 15.669C933.7 15.669 933.216 16.0924 933.165 16.6654L927.081 106.491C926.928 108.533 927.641 110.451 929.066 111.921C929.601 112.469 930.161 112.918 930.823 113.266C931.943 113.889 933.216 114.213 934.489 114.213C936.551 114.213 938.461 113.391 939.912 111.896C941.312 110.427 942 108.509 941.847 106.466L941.847 106.441Z" fill="url(#paint4_linear_406_89)"/>
<path d="M873.973 90.773L867.481 0.997373C867.405 0.424443 866.972 -0.0239213 866.386 0.000988648C865.826 0.000988599 865.343 0.424443 865.292 0.997373L859.207 90.8228C859.054 92.8654 859.767 94.7835 861.193 96.2532C861.727 96.8012 862.288 97.2496 862.95 97.5983C864.07 98.2211 865.343 98.5449 866.616 98.5449C868.678 98.5449 870.587 97.7229 872.038 96.2283C873.439 94.7586 874.126 92.8405 873.973 90.7979L873.973 90.773Z" fill="url(#paint5_linear_406_89)"/>
<path d="M1055.01 90.773L1048.52 0.997373C1048.44 0.424443 1048.01 -0.0239213 1047.42 0.000988648C1046.86 0.000988599 1046.38 0.424443 1046.33 0.997373L1040.24 90.8228C1040.09 92.8654 1040.8 94.7835 1042.23 96.2532C1042.77 96.8012 1043.33 97.2496 1043.99 97.5983C1045.11 98.2211 1046.38 98.5449 1047.65 98.5449C1049.72 98.5449 1051.62 97.7229 1053.08 96.2283C1054.48 94.7586 1055.16 92.8405 1055.01 90.7979L1055.01 90.773Z" fill="url(#paint6_linear_406_89)"/>
<path d="M1009.75 90.773L1003.25 0.997373C1003.18 0.424443 1002.74 -0.0239213 1002.16 0.000988648C1001.6 0.000988599 1001.11 0.424443 1001.06 0.997373L994.979 90.8228C994.826 92.8654 995.539 94.7835 996.965 96.2532C997.5 96.8012 998.06 97.2496 998.722 97.5983C999.842 98.2211 1001.11 98.5449 1002.39 98.5449C1004.45 98.5449 1006.36 97.7229 1007.81 96.2283C1009.21 94.7586 1009.9 92.8405 1009.75 90.7979L1009.75 90.773Z" fill="url(#paint7_linear_406_89)"/>
<path d="M896.606 115.06L890.114 25.2845C890.038 24.7116 889.605 24.2632 889.019 24.2881C888.459 24.2881 887.975 24.7116 887.925 25.2845L881.84 115.11C881.687 117.153 882.4 119.071 883.826 120.54C884.36 121.088 884.92 121.537 885.582 121.885C886.703 122.508 887.976 122.832 889.248 122.832C891.311 122.832 893.22 122.01 894.671 120.515C896.071 119.046 896.759 117.128 896.606 115.085L896.606 115.06Z" fill="url(#paint8_linear_406_89)"/>
<path d="M964.48 115.06L957.988 25.2845C957.911 24.7116 957.478 24.2632 956.893 24.2881C956.333 24.2881 955.849 24.7116 955.798 25.2845L949.713 115.11C949.561 117.153 950.274 119.071 951.699 120.54C952.234 121.088 952.794 121.537 953.456 121.885C954.576 122.508 955.849 122.832 957.122 122.832C959.184 122.832 961.094 122.01 962.545 120.515C963.945 119.046 964.632 117.128 964.48 115.085L964.48 115.06Z" fill="url(#paint9_linear_406_89)"/>
<path d="M1077.64 115.06L1071.15 25.2845C1071.08 24.7116 1070.64 24.2632 1070.06 24.2881C1069.5 24.2881 1069.01 24.7116 1068.96 25.2845L1062.88 115.11C1062.72 117.153 1063.44 119.071 1064.86 120.54C1065.4 121.088 1065.96 121.537 1066.62 121.885C1067.74 122.508 1069.01 122.832 1070.29 122.832C1072.35 122.832 1074.26 122.01 1075.71 120.515C1077.11 119.046 1077.8 117.128 1077.64 115.085L1077.64 115.06Z" fill="url(#paint10_linear_406_89)"/>
<path d="M919.213 142.087L912.721 52.3118C912.645 51.7389 912.212 51.2905 911.627 51.3155C911.067 51.3155 910.583 51.7389 910.532 52.3118L904.447 142.137C904.295 144.18 905.007 146.098 906.433 147.568C906.968 148.116 907.528 148.564 908.19 148.913C909.31 149.536 910.583 149.859 911.856 149.859C913.918 149.859 915.827 149.037 917.279 147.543C918.679 146.073 919.366 144.155 919.213 142.112L919.213 142.087Z" fill="url(#paint11_linear_406_89)"/>
<path d="M987.112 106.259L980.62 16.4837C980.544 15.9108 980.111 15.4624 979.526 15.4873C978.966 15.4873 978.482 15.9108 978.431 16.4837L972.346 106.309C972.194 108.352 972.906 110.27 974.332 111.74C974.867 112.288 975.427 112.736 976.089 113.085C977.209 113.707 978.482 114.031 979.755 114.031C981.817 114.031 983.726 113.209 985.178 111.715C986.578 110.245 987.265 108.327 987.112 106.284L987.112 106.259Z" fill="url(#paint12_linear_406_89)"/>
<path d="M542.372 165.503L548.864 75.7279C548.941 75.1549 549.373 74.7065 549.959 74.7315C550.519 74.7315 551.003 75.1549 551.054 75.7279L557.138 165.553C557.291 167.596 556.578 169.514 555.153 170.984C554.618 171.532 554.058 171.98 553.396 172.329C552.276 172.952 551.003 173.275 549.73 173.275C547.668 173.275 545.758 172.453 544.307 170.959C542.907 169.489 542.22 167.571 542.372 165.528L542.372 165.503Z" fill="url(#paint13_linear_406_89)"/>
<path d="M791.309 106.441L797.801 16.6654C797.877 16.0924 798.31 15.644 798.895 15.669C799.456 15.669 799.939 16.0924 799.99 16.6654L806.075 106.491C806.228 108.533 805.515 110.451 804.089 111.921C803.554 112.469 802.994 112.918 802.332 113.266C801.212 113.889 799.939 114.213 798.666 114.213C796.604 114.213 794.695 113.391 793.244 111.896C791.843 110.427 791.156 108.508 791.309 106.466L791.309 106.441Z" fill="url(#paint14_linear_406_89)"/>
<path d="M610.271 106.441L616.763 16.6654C616.84 16.0924 617.272 15.644 617.858 15.669C618.418 15.669 618.902 16.0924 618.953 16.6654L625.037 106.491C625.19 108.533 624.477 110.451 623.052 111.921C622.517 112.469 621.957 112.918 621.295 113.266C620.175 113.889 618.902 114.213 617.629 114.213C615.567 114.213 613.657 113.391 612.206 111.896C610.806 110.427 610.118 108.508 610.271 106.466L610.271 106.441Z" fill="url(#paint15_linear_406_89)"/>
<path d="M700.803 106.441L707.295 16.6654C707.371 16.0924 707.804 15.644 708.39 15.669C708.95 15.669 709.433 16.0924 709.484 16.6654L715.569 106.491C715.722 108.533 715.009 110.451 713.583 111.921C713.049 112.469 712.489 112.918 711.827 113.266C710.706 113.889 709.433 114.213 708.161 114.213C706.098 114.213 704.189 113.391 702.738 111.896C701.338 110.427 700.65 108.508 700.803 106.466L700.803 106.441Z" fill="url(#paint16_linear_406_89)"/>
<path d="M768.675 90.773L775.167 0.997373C775.244 0.424443 775.677 -0.0239214 776.262 0.000988684C776.822 0.000988732 777.306 0.424443 777.357 0.997373L783.442 90.8228C783.594 92.8654 782.882 94.7835 781.456 96.2532C780.921 96.8012 780.361 97.2496 779.699 97.5983C778.579 98.2211 777.306 98.5449 776.033 98.5449C773.971 98.5449 772.061 97.7229 770.61 96.2283C769.21 94.7586 768.523 92.8405 768.675 90.7979L768.675 90.773Z" fill="url(#paint17_linear_406_89)"/>
<path d="M587.638 90.773L594.13 0.997373C594.206 0.424443 594.639 -0.0239214 595.225 0.000988684C595.785 0.000988732 596.268 0.424443 596.319 0.997373L602.404 90.8228C602.557 92.8654 601.844 94.7835 600.418 96.2532C599.884 96.8012 599.323 97.2496 598.662 97.5983C597.541 98.2211 596.268 98.5449 594.995 98.5449C592.933 98.5449 591.024 97.7229 589.573 96.2283C588.172 94.7586 587.485 92.8405 587.638 90.7979L587.638 90.773Z" fill="url(#paint18_linear_406_89)"/>
<path d="M632.904 90.773L639.396 0.997373C639.472 0.424443 639.905 -0.0239214 640.491 0.000988684C641.051 0.000988732 641.535 0.424443 641.586 0.997373L647.67 90.8228C647.823 92.8654 647.11 94.7835 645.684 96.2532C645.15 96.8012 644.59 97.2496 643.928 97.5983C642.807 98.2211 641.535 98.5449 640.262 98.5449C638.199 98.5449 636.29 97.7229 634.839 96.2283C633.439 94.7586 632.751 92.8405 632.904 90.7979L632.904 90.773Z" fill="url(#paint19_linear_406_89)"/>
<path d="M746.043 115.06L752.535 25.2845C752.612 24.7116 753.044 24.2632 753.63 24.2881C754.19 24.2881 754.674 24.7116 754.725 25.2845L760.809 115.11C760.962 117.153 760.249 119.071 758.823 120.54C758.289 121.088 757.729 121.537 757.067 121.885C755.947 122.508 754.674 122.832 753.401 122.832C751.339 122.832 749.429 122.01 747.978 120.515C746.578 119.046 745.89 117.128 746.043 115.085L746.043 115.06Z" fill="url(#paint20_linear_406_89)"/>
<path d="M678.17 115.06L684.662 25.2845C684.738 24.7116 685.171 24.2632 685.756 24.2881C686.317 24.2881 686.8 24.7116 686.851 25.2845L692.936 115.11C693.088 117.153 692.376 119.071 690.95 120.54C690.415 121.088 689.855 121.537 689.193 121.885C688.073 122.508 686.8 122.832 685.527 122.832C683.465 122.832 681.556 122.01 680.105 120.515C678.704 119.046 678.017 117.128 678.17 115.085L678.17 115.06Z" fill="url(#paint21_linear_406_89)"/>
<path d="M565.006 115.06L571.498 25.2845C571.574 24.7116 572.007 24.2632 572.592 24.2881C573.152 24.2881 573.636 24.7116 573.687 25.2845L579.772 115.11C579.924 117.153 579.212 119.071 577.786 120.54C577.251 121.088 576.691 121.537 576.029 121.885C574.909 122.508 573.636 122.832 572.363 122.832C570.301 122.832 568.392 122.01 566.94 120.515C565.54 119.046 564.853 117.128 565.006 115.085L565.006 115.06Z" fill="url(#paint22_linear_406_89)"/>
<path d="M723.41 142.087L729.902 52.3118C729.978 51.7389 730.411 51.2905 730.997 51.3155C731.557 51.3155 732.04 51.7389 732.091 52.3118L738.176 142.137C738.329 144.18 737.616 146.098 736.19 147.568C735.656 148.116 735.095 148.564 734.434 148.913C733.313 149.536 732.04 149.859 730.767 149.859C728.705 149.859 726.796 149.037 725.345 147.543C723.944 146.073 723.257 144.155 723.41 142.112L723.41 142.087Z" fill="url(#paint23_linear_406_89)"/>
<path d="M655.537 106.259L662.029 16.4837C662.105 15.9108 662.538 15.4624 663.124 15.4873C663.684 15.4873 664.167 15.9108 664.218 16.4837L670.303 106.309C670.456 108.352 669.743 110.27 668.317 111.74C667.782 112.288 667.222 112.736 666.56 113.085C665.44 113.707 664.167 114.031 662.894 114.031C660.832 114.031 658.923 113.209 657.472 111.715C656.071 110.245 655.384 108.327 655.537 106.284L655.537 106.259Z" fill="url(#paint24_linear_406_89)"/>
<path d="M1913.41 165.503L1906.92 75.7279C1906.84 75.1549 1906.41 74.7065 1905.82 74.7315C1905.26 74.7315 1904.78 75.1549 1904.73 75.7279L1898.64 165.553C1898.49 167.596 1899.2 169.514 1900.63 170.984C1901.16 171.532 1901.72 171.98 1902.39 172.329C1903.51 172.952 1904.78 173.275 1906.05 173.275C1908.11 173.275 1910.02 172.453 1911.47 170.959C1912.88 169.489 1913.56 167.571 1913.41 165.528L1913.41 165.503Z" fill="url(#paint25_linear_406_89)"/>
<path d="M2184.98 165.503L2178.49 75.7279C2178.41 75.1549 2177.98 74.7065 2177.39 74.7315C2176.83 74.7315 2176.35 75.1549 2176.3 75.7279L2170.21 165.553C2170.06 167.596 2170.77 169.514 2172.2 170.984C2172.73 171.532 2173.29 171.98 2173.96 172.329C2175.08 172.952 2176.35 173.275 2177.62 173.275C2179.68 173.275 2181.59 172.453 2183.04 170.959C2184.44 169.489 2185.13 167.571 2184.98 165.528L2184.98 165.503Z" fill="url(#paint26_linear_406_89)"/>
<path d="M1936.04 106.441L1929.55 16.6654C1929.47 16.0924 1929.04 15.644 1928.46 15.669C1927.9 15.669 1927.41 16.0924 1927.36 16.6654L1921.28 106.491C1921.12 108.533 1921.84 110.451 1923.26 111.921C1923.8 112.469 1924.36 112.918 1925.02 113.266C1926.14 113.889 1927.41 114.213 1928.68 114.213C1930.75 114.213 1932.66 113.391 1934.11 111.896C1935.51 110.427 1936.19 108.509 1936.04 106.466L1936.04 106.441Z" fill="url(#paint27_linear_406_89)"/>
<path d="M2117.08 106.441L2110.59 16.6654C2110.51 16.0924 2110.08 15.644 2109.49 15.669C2108.93 15.669 2108.45 16.0924 2108.4 16.6654L2102.31 106.491C2102.16 108.533 2102.87 110.451 2104.3 111.921C2104.83 112.469 2105.39 112.918 2106.06 113.266C2107.18 113.889 2108.45 114.213 2109.72 114.213C2111.78 114.213 2113.69 113.391 2115.15 111.896C2116.55 110.427 2117.23 108.509 2117.08 106.466L2117.08 106.441Z" fill="url(#paint28_linear_406_89)"/>
<path d="M2026.55 106.441L2020.06 16.6654C2019.98 16.0924 2019.55 15.644 2018.96 15.669C2018.4 15.669 2017.92 16.0924 2017.87 16.6654L2011.78 106.491C2011.63 108.533 2012.34 110.451 2013.77 111.921C2014.3 112.469 2014.86 112.918 2015.53 113.266C2016.65 113.889 2017.92 114.213 2019.19 114.213C2021.25 114.213 2023.16 113.391 2024.61 111.896C2026.01 110.427 2026.7 108.509 2026.55 106.466L2026.55 106.441Z" fill="url(#paint29_linear_406_89)"/>
<path d="M1958.68 90.773L1952.18 0.997373C1952.11 0.424443 1951.67 -0.0239213 1951.09 0.000988648C1950.53 0.000988599 1950.04 0.424443 1949.99 0.997373L1943.91 90.8228C1943.76 92.8654 1944.47 94.7835 1945.89 96.2532C1946.43 96.8012 1946.99 97.2496 1947.65 97.5983C1948.77 98.2211 1950.04 98.5449 1951.32 98.5449C1953.38 98.5449 1955.29 97.7229 1956.74 96.2283C1958.14 94.7586 1958.83 92.8405 1958.68 90.7979L1958.68 90.773Z" fill="url(#paint30_linear_406_89)"/>
<path d="M2139.71 90.773L2133.22 0.997373C2133.14 0.424443 2132.71 -0.0239213 2132.13 0.000988648C2131.57 0.000988599 2131.08 0.424443 2131.03 0.997373L2124.95 90.8228C2124.79 92.8654 2125.51 94.7835 2126.93 96.2532C2127.47 96.8012 2128.03 97.2496 2128.69 97.5983C2129.81 98.2211 2131.08 98.5449 2132.36 98.5449C2134.42 98.5449 2136.33 97.7229 2137.78 96.2283C2139.18 94.7586 2139.87 92.8405 2139.71 90.7979L2139.71 90.773Z" fill="url(#paint31_linear_406_89)"/>
<path d="M2094.45 90.773L2087.96 0.997373C2087.88 0.424443 2087.45 -0.0239213 2086.86 0.000988648C2086.3 0.000988599 2085.82 0.424443 2085.77 0.997373L2079.68 90.8228C2079.53 92.8654 2080.24 94.7835 2081.67 96.2532C2082.2 96.8012 2082.76 97.2496 2083.42 97.5983C2084.54 98.2211 2085.82 98.5449 2087.09 98.5449C2089.15 98.5449 2091.06 97.7229 2092.51 96.2283C2093.91 94.7586 2094.6 92.8405 2094.45 90.7979L2094.45 90.773Z" fill="url(#paint32_linear_406_89)"/>
<path d="M1981.31 115.06L1974.82 25.2845C1974.74 24.7116 1974.31 24.2632 1973.72 24.2881C1973.16 24.2881 1972.68 24.7116 1972.63 25.2845L1966.54 115.11C1966.39 117.153 1967.1 119.071 1968.53 120.54C1969.06 121.088 1969.62 121.537 1970.28 121.885C1971.4 122.508 1972.68 122.832 1973.95 122.832C1976.01 122.832 1977.92 122.01 1979.37 120.515C1980.77 119.046 1981.46 117.128 1981.31 115.085L1981.31 115.06Z" fill="url(#paint33_linear_406_89)"/>
<path d="M2049.18 115.06L2042.69 25.2845C2042.61 24.7116 2042.18 24.2632 2041.6 24.2881C2041.03 24.2881 2040.55 24.7116 2040.5 25.2845L2034.42 115.11C2034.26 117.153 2034.98 119.071 2036.4 120.54C2036.94 121.088 2037.5 121.537 2038.16 121.885C2039.28 122.508 2040.55 122.832 2041.82 122.832C2043.89 122.832 2045.8 122.01 2047.25 120.515C2048.65 119.046 2049.33 117.128 2049.18 115.085L2049.18 115.06Z" fill="url(#paint34_linear_406_89)"/>
<path d="M2162.35 115.06L2155.85 25.2845C2155.78 24.7116 2155.34 24.2632 2154.76 24.2881C2154.2 24.2881 2153.72 24.7116 2153.66 25.2845L2147.58 115.11C2147.43 117.153 2148.14 119.071 2149.57 120.54C2150.1 121.088 2150.66 121.537 2151.32 121.885C2152.44 122.508 2153.72 122.832 2154.99 122.832C2157.05 122.832 2158.96 122.01 2160.41 120.515C2161.81 119.046 2162.5 117.128 2162.35 115.085L2162.35 115.06Z" fill="url(#paint35_linear_406_89)"/>
<path d="M2003.92 142.087L1997.42 52.3118C1997.35 51.7389 1996.91 51.2905 1996.33 51.3155C1995.77 51.3155 1995.28 51.7389 1995.23 52.3118L1989.15 142.137C1989 144.18 1989.71 146.098 1991.14 147.568C1991.67 148.116 1992.23 148.564 1992.89 148.913C1994.01 149.536 1995.28 149.859 1996.56 149.859C1998.62 149.859 2000.53 149.037 2001.98 147.543C2003.38 146.073 2004.07 144.155 2003.92 142.112L2003.92 142.087Z" fill="url(#paint36_linear_406_89)"/>
<path d="M2071.81 106.259L2065.32 16.4837C2065.25 15.9108 2064.81 15.4624 2064.23 15.4873C2063.67 15.4873 2063.18 15.9108 2063.13 16.4837L2057.05 106.309C2056.9 108.352 2057.61 110.27 2059.03 111.74C2059.57 112.288 2060.13 112.736 2060.79 113.085C2061.91 113.707 2063.18 114.031 2064.46 114.031C2066.52 114.031 2068.43 113.209 2069.88 111.715C2071.28 110.245 2071.97 108.327 2071.81 106.284L2071.81 106.259Z" fill="url(#paint37_linear_406_89)"/>
<path d="M1627.07 165.503L1633.57 75.7279C1633.64 75.1549 1634.08 74.7065 1634.66 74.7315C1635.22 74.7315 1635.7 75.1549 1635.76 75.7279L1641.84 165.553C1641.99 167.596 1641.28 169.514 1639.85 170.984C1639.32 171.532 1638.76 171.98 1638.1 172.329C1636.98 172.952 1635.7 173.275 1634.43 173.275C1632.37 173.275 1630.46 172.453 1629.01 170.959C1627.61 169.489 1626.92 167.571 1627.07 165.528L1627.07 165.503Z" fill="url(#paint38_linear_406_89)"/>
<path d="M1876.01 106.441L1882.5 16.6654C1882.58 16.0924 1883.01 15.644 1883.6 15.669C1884.16 15.669 1884.64 16.0924 1884.69 16.6654L1890.78 106.491C1890.93 108.533 1890.22 110.451 1888.79 111.921C1888.26 112.469 1887.7 112.918 1887.03 113.266C1885.91 113.889 1884.64 114.213 1883.37 114.213C1881.31 114.213 1879.4 113.391 1877.95 111.896C1876.55 110.427 1875.86 108.508 1876.01 106.466L1876.01 106.441Z" fill="url(#paint39_linear_406_89)"/>
<path d="M1694.97 106.441L1701.46 16.6654C1701.54 16.0924 1701.97 15.644 1702.56 15.669C1703.12 15.669 1703.6 16.0924 1703.65 16.6654L1709.74 106.491C1709.89 108.533 1709.18 110.451 1707.75 111.921C1707.22 112.469 1706.66 112.918 1706 113.266C1704.88 113.889 1703.6 114.213 1702.33 114.213C1700.27 114.213 1698.36 113.391 1696.91 111.896C1695.51 110.427 1694.82 108.508 1694.97 106.466L1694.97 106.441Z" fill="url(#paint40_linear_406_89)"/>
<path d="M1785.5 106.441L1792 16.6654C1792.07 16.0924 1792.51 15.644 1793.09 15.669C1793.65 15.669 1794.14 16.0924 1794.19 16.6654L1800.27 106.491C1800.42 108.533 1799.71 110.451 1798.28 111.921C1797.75 112.469 1797.19 112.918 1796.53 113.266C1795.41 113.889 1794.14 114.213 1792.86 114.213C1790.8 114.213 1788.89 113.391 1787.44 111.896C1786.04 110.427 1785.35 108.508 1785.5 106.466L1785.5 106.441Z" fill="url(#paint41_linear_406_89)"/>
<path d="M1853.38 90.773L1859.87 0.997373C1859.95 0.424443 1860.38 -0.0239214 1860.96 0.000988684C1861.52 0.000988732 1862.01 0.424443 1862.06 0.997373L1868.14 90.8228C1868.3 92.8654 1867.58 94.7835 1866.16 96.2532C1865.62 96.8012 1865.06 97.2496 1864.4 97.5983C1863.28 98.2211 1862.01 98.5449 1860.74 98.5449C1858.67 98.5449 1856.76 97.7229 1855.31 96.2283C1853.91 94.7586 1853.22 92.8405 1853.38 90.7979L1853.38 90.773Z" fill="url(#paint42_linear_406_89)"/>
<path d="M1672.34 90.773L1678.83 0.997373C1678.91 0.424443 1679.34 -0.0239214 1679.93 0.000988684C1680.49 0.000988732 1680.97 0.424443 1681.02 0.997373L1687.11 90.8228C1687.26 92.8654 1686.55 94.7835 1685.12 96.2532C1684.59 96.8012 1684.03 97.2496 1683.36 97.5983C1682.24 98.2211 1680.97 98.5449 1679.7 98.5449C1677.64 98.5449 1675.73 97.7229 1674.27 96.2283C1672.87 94.7586 1672.19 92.8405 1672.34 90.7979L1672.34 90.773Z" fill="url(#paint43_linear_406_89)"/>
<path d="M1717.61 90.773L1724.1 0.997373C1724.17 0.424443 1724.61 -0.0239214 1725.19 0.000988684C1725.75 0.000988732 1726.24 0.424443 1726.29 0.997373L1732.37 90.8228C1732.53 92.8654 1731.81 94.7835 1730.39 96.2532C1729.85 96.8012 1729.29 97.2496 1728.63 97.5983C1727.51 98.2211 1726.24 98.5449 1724.96 98.5449C1722.9 98.5449 1720.99 97.7229 1719.54 96.2283C1718.14 94.7586 1717.45 92.8405 1717.61 90.7979L1717.61 90.773Z" fill="url(#paint44_linear_406_89)"/>
<path d="M1830.75 115.06L1837.24 25.2845C1837.31 24.7116 1837.75 24.2632 1838.33 24.2881C1838.89 24.2881 1839.38 24.7116 1839.43 25.2845L1845.51 115.11C1845.66 117.153 1844.95 119.071 1843.53 120.54C1842.99 121.088 1842.43 121.537 1841.77 121.885C1840.65 122.508 1839.38 122.832 1838.1 122.832C1836.04 122.832 1834.13 122.01 1832.68 120.515C1831.28 119.046 1830.59 117.128 1830.75 115.085L1830.75 115.06Z" fill="url(#paint45_linear_406_89)"/>
<path d="M1762.87 115.06L1769.36 25.2845C1769.44 24.7116 1769.87 24.2632 1770.46 24.2881C1771.02 24.2881 1771.5 24.7116 1771.55 25.2845L1777.64 115.11C1777.79 117.153 1777.08 119.071 1775.65 120.54C1775.12 121.088 1774.56 121.537 1773.9 121.885C1772.78 122.508 1771.5 122.832 1770.23 122.832C1768.17 122.832 1766.26 122.01 1764.81 120.515C1763.41 119.046 1762.72 117.128 1762.87 115.085L1762.87 115.06Z" fill="url(#paint46_linear_406_89)"/>
<path d="M1649.71 115.06L1656.2 25.2845C1656.28 24.7116 1656.71 24.2632 1657.29 24.2881C1657.85 24.2881 1658.34 24.7116 1658.39 25.2845L1664.47 115.11C1664.63 117.153 1663.91 119.071 1662.49 120.54C1661.95 121.088 1661.39 121.537 1660.73 121.885C1659.61 122.508 1658.34 122.832 1657.07 122.832C1655 122.832 1653.09 122.01 1651.64 120.515C1650.24 119.046 1649.55 117.128 1649.71 115.085L1649.71 115.06Z" fill="url(#paint47_linear_406_89)"/>
<path d="M1808.11 142.087L1814.6 52.3118C1814.68 51.7389 1815.11 51.2905 1815.7 51.3155C1816.26 51.3155 1816.74 51.7389 1816.79 52.3118L1822.88 142.137C1823.03 144.18 1822.32 146.098 1820.89 147.568C1820.36 148.116 1819.8 148.564 1819.14 148.913C1818.02 149.536 1816.74 149.859 1815.47 149.859C1813.41 149.859 1811.5 149.037 1810.05 147.543C1808.65 146.073 1807.96 144.155 1808.11 142.112L1808.11 142.087Z" fill="url(#paint48_linear_406_89)"/>
<path d="M1740.24 106.259L1746.73 16.4837C1746.81 15.9108 1747.24 15.4624 1747.83 15.4873C1748.39 15.4873 1748.87 15.9108 1748.92 16.4837L1755.01 106.309C1755.16 108.352 1754.44 110.27 1753.02 111.74C1752.48 112.288 1751.92 112.736 1751.26 113.085C1750.14 113.707 1748.87 114.031 1747.6 114.031C1745.53 114.031 1743.62 113.209 1742.17 111.715C1740.77 110.245 1740.09 108.327 1740.24 106.284L1740.24 106.259Z" fill="url(#paint49_linear_406_89)"/>
<path d="M286.356 165.503L279.864 75.7279C279.788 75.1549 279.355 74.7065 278.769 74.7315C278.209 74.7315 277.725 75.1549 277.675 75.7279L271.59 165.553C271.437 167.596 272.15 169.514 273.576 170.984C274.11 171.532 274.67 171.98 275.332 172.329C276.453 172.952 277.725 173.275 278.998 173.275C281.061 173.275 282.97 172.453 284.421 170.959C285.821 169.489 286.509 167.571 286.356 165.528L286.356 165.503Z" fill="url(#paint50_linear_406_89)"/>
<path d="M557.925 165.503L551.433 75.7279C551.357 75.1549 550.924 74.7065 550.339 74.7315C549.779 74.7315 549.295 75.1549 549.244 75.7279L543.159 165.553C543.006 167.596 543.719 169.514 545.145 170.984C545.68 171.532 546.24 171.98 546.902 172.329C548.022 172.952 549.295 173.275 550.568 173.275C552.63 173.275 554.539 172.453 555.99 170.959C557.391 169.489 558.078 167.571 557.925 165.528L557.925 165.503Z" fill="url(#paint51_linear_406_89)"/>
<path d="M308.989 106.441L302.497 16.6654C302.421 16.0924 301.988 15.644 301.402 15.669C300.842 15.669 300.358 16.0924 300.307 16.6654L294.223 106.491C294.07 108.533 294.783 110.451 296.209 111.921C296.743 112.469 297.303 112.918 297.965 113.266C299.085 113.889 300.358 114.213 301.631 114.213C303.693 114.213 305.603 113.391 307.054 111.896C308.454 110.427 309.142 108.509 308.989 106.466L308.989 106.441Z" fill="url(#paint52_linear_406_89)"/>
<path d="M490.026 106.441L483.534 16.6654C483.458 16.0924 483.025 15.644 482.44 15.669C481.88 15.669 481.396 16.0924 481.345 16.6654L475.26 106.491C475.108 108.533 475.82 110.451 477.246 111.921C477.781 112.469 478.341 112.918 479.003 113.266C480.123 113.889 481.396 114.213 482.669 114.213C484.731 114.213 486.64 113.391 488.092 111.896C489.492 110.427 490.179 108.509 490.026 106.466L490.026 106.441Z" fill="url(#paint53_linear_406_89)"/>
<path d="M399.495 106.441L393.003 16.6654C392.927 16.0924 392.494 15.644 391.908 15.669C391.348 15.669 390.865 16.0924 390.814 16.6654L384.729 106.491C384.576 108.533 385.289 110.451 386.715 111.921C387.25 112.469 387.81 112.918 388.472 113.266C389.592 113.889 390.865 114.213 392.138 114.213C394.2 114.213 396.109 113.391 397.56 111.896C398.961 110.427 399.648 108.509 399.495 106.466L399.495 106.441Z" fill="url(#paint54_linear_406_89)"/>
<path d="M331.622 90.773L325.13 0.997373C325.053 0.424443 324.62 -0.0239213 324.035 0.000988648C323.475 0.000988599 322.991 0.424443 322.94 0.997373L316.855 90.8228C316.703 92.8654 317.416 94.7835 318.841 96.2532C319.376 96.8012 319.936 97.2496 320.598 97.5983C321.718 98.2211 322.991 98.5449 324.264 98.5449C326.326 98.5449 328.236 97.7229 329.687 96.2283C331.087 94.7586 331.774 92.8405 331.622 90.7979L331.622 90.773Z" fill="url(#paint55_linear_406_89)"/>
<path d="M512.659 90.773L506.167 0.997373C506.091 0.424443 505.658 -0.0239213 505.073 0.000988648C504.512 0.000988599 504.029 0.424443 503.978 0.997373L497.893 90.8228C497.74 92.8654 498.453 94.7835 499.879 96.2532C500.414 96.8012 500.974 97.2496 501.636 97.5983C502.756 98.2211 504.029 98.5449 505.302 98.5449C507.364 98.5449 509.273 97.7229 510.724 96.2283C512.125 94.7586 512.812 92.8405 512.659 90.7979L512.659 90.773Z" fill="url(#paint56_linear_406_89)"/>
<path d="M467.394 90.773L460.902 0.997373C460.825 0.424443 460.392 -0.0239213 459.807 0.000988648C459.247 0.000988599 458.763 0.424443 458.712 0.997373L452.628 90.8228C452.475 92.8654 453.188 94.7835 454.613 96.2532C455.148 96.8012 455.708 97.2496 456.37 97.5983C457.49 98.2211 458.763 98.5449 460.036 98.5449C462.098 98.5449 464.008 97.7229 465.459 96.2283C466.859 94.7586 467.546 92.8405 467.394 90.7979L467.394 90.773Z" fill="url(#paint57_linear_406_89)"/>
<path d="M354.254 115.06L347.763 25.2845C347.686 24.7116 347.253 24.2632 346.668 24.2881C346.108 24.2881 345.624 24.7116 345.573 25.2845L339.488 115.11C339.336 117.153 340.048 119.071 341.474 120.54C342.009 121.088 342.569 121.537 343.231 121.885C344.351 122.508 345.624 122.832 346.897 122.832C348.959 122.832 350.868 122.01 352.32 120.515C353.72 119.046 354.407 117.128 354.254 115.085L354.254 115.06Z" fill="url(#paint58_linear_406_89)"/>
<path d="M422.128 115.06L415.636 25.2845C415.56 24.7116 415.127 24.2632 414.541 24.2881C413.981 24.2881 413.498 24.7116 413.447 25.2845L407.362 115.11C407.209 117.153 407.922 119.071 409.348 120.54C409.882 121.088 410.442 121.537 411.104 121.885C412.225 122.508 413.497 122.832 414.77 122.832C416.833 122.832 418.742 122.01 420.193 120.515C421.593 119.046 422.281 117.128 422.128 115.085L422.128 115.06Z" fill="url(#paint59_linear_406_89)"/>
<path d="M535.292 115.06L528.8 25.2845C528.724 24.7116 528.291 24.2632 527.705 24.2881C527.145 24.2881 526.662 24.7116 526.611 25.2845L520.526 115.11C520.373 117.153 521.086 119.071 522.512 120.54C523.046 121.088 523.606 121.537 524.268 121.885C525.389 122.508 526.661 122.832 527.934 122.832C529.997 122.832 531.906 122.01 533.357 120.515C534.757 119.046 535.445 117.128 535.292 115.085L535.292 115.06Z" fill="url(#paint60_linear_406_89)"/>
<path d="M376.862 142.087L370.37 52.3118C370.294 51.7389 369.861 51.2905 369.275 51.3155C368.715 51.3155 368.231 51.7389 368.18 52.3118L362.096 142.137C361.943 144.18 362.656 146.098 364.082 147.568C364.616 148.116 365.176 148.564 365.838 148.913C366.958 149.536 368.231 149.859 369.504 149.859C371.566 149.859 373.476 149.037 374.927 147.543C376.327 146.073 377.015 144.155 376.862 142.112L376.862 142.087Z" fill="url(#paint61_linear_406_89)"/>
<path d="M444.761 106.259L438.269 16.4837C438.192 15.9108 437.76 15.4624 437.174 15.4873C436.614 15.4873 436.13 15.9108 436.079 16.4837L429.995 106.309C429.842 108.352 430.555 110.27 431.981 111.74C432.515 112.288 433.075 112.736 433.737 113.085C434.857 113.707 436.13 114.031 437.403 114.031C439.465 114.031 441.375 113.209 442.826 111.715C444.226 110.245 444.914 108.327 444.761 106.284L444.761 106.259Z" fill="url(#paint62_linear_406_89)"/>
<path d="M0.020729 165.503L6.5127 75.7279C6.58908 75.1549 7.02186 74.7065 7.60741 74.7315C8.16751 74.7315 8.65128 75.1549 8.7022 75.7279L14.7868 165.553C14.9396 167.596 14.2267 169.514 12.801 170.984C12.2664 171.532 11.7063 171.98 11.0444 172.329C9.92417 172.952 8.65122 173.275 7.37828 173.275C5.31612 173.275 3.4067 172.453 1.95555 170.959C0.555311 169.489 -0.132024 167.571 0.020729 165.528L0.020729 165.503Z" fill="url(#paint63_linear_406_89)"/>
<path d="M248.957 106.441L255.449 16.6654C255.526 16.0924 255.958 15.644 256.544 15.669C257.104 15.669 257.588 16.0924 257.639 16.6654L263.723 106.491C263.876 108.533 263.163 110.451 261.738 111.921C261.203 112.469 260.643 112.918 259.981 113.266C258.861 113.889 257.588 114.213 256.315 114.213C254.253 114.213 252.343 113.391 250.892 111.896C249.492 110.427 248.804 108.508 248.957 106.466L248.957 106.441Z" fill="url(#paint64_linear_406_89)"/>
<path d="M67.9196 106.441L74.4116 16.6654C74.488 16.0924 74.9208 15.644 75.5063 15.669C76.0664 15.669 76.5501 16.0924 76.601 16.6654L82.6857 106.491C82.8385 108.533 82.1256 110.451 80.6999 111.921C80.1653 112.469 79.6052 112.918 78.9433 113.266C77.8231 113.889 76.5501 114.213 75.2772 114.213C73.215 114.213 71.3056 113.391 69.8545 111.896C68.4542 110.427 67.7668 108.508 67.9196 106.466L67.9196 106.441Z" fill="url(#paint65_linear_406_89)"/>
<path d="M158.451 106.441L164.943 16.6654C165.02 16.0924 165.453 15.644 166.038 15.669C166.598 15.669 167.082 16.0924 167.133 16.6654L173.217 106.491C173.37 108.533 172.657 110.451 171.232 111.921C170.697 112.469 170.137 112.918 169.475 113.266C168.355 113.889 167.082 114.213 165.809 114.213C163.747 114.213 161.837 113.391 160.386 111.896C158.986 110.427 158.299 108.508 158.451 106.466L158.451 106.441Z" fill="url(#paint66_linear_406_89)"/>
<path d="M226.324 90.773L232.816 0.997373C232.892 0.424443 233.325 -0.0239214 233.911 0.000988684C234.471 0.000988732 234.954 0.424443 235.005 0.997373L241.09 90.8228C241.243 92.8654 240.53 94.7835 239.104 96.2532C238.57 96.8012 238.01 97.2496 237.348 97.5983C236.227 98.2211 234.954 98.5449 233.682 98.5449C231.619 98.5449 229.71 97.7229 228.259 96.2283C226.859 94.7586 226.171 92.8405 226.324 90.7979L226.324 90.773Z" fill="url(#paint67_linear_406_89)"/>
<path d="M45.2864 90.773L51.7783 0.997373C51.8547 0.424443 52.2875 -0.0239214 52.873 0.000988684C53.4331 0.000988732 53.9169 0.424443 53.9678 0.997373L60.0524 90.8228C60.2052 92.8654 59.4923 94.7835 58.0666 96.2532C57.532 96.8012 56.9719 97.2496 56.31 97.5983C55.1898 98.2211 53.9168 98.5449 52.6439 98.5449C50.5817 98.5449 48.6723 97.7229 47.2212 96.2283C45.8209 94.7586 45.1336 92.8405 45.2864 90.7979L45.2864 90.773Z" fill="url(#paint68_linear_406_89)"/>
<path d="M90.5525 90.773L97.0444 0.997373C97.1208 0.424443 97.5536 -0.0239214 98.1392 0.000988684C98.6992 0.000988732 99.183 0.424443 99.2339 0.997373L105.319 90.8228C105.471 92.8654 104.758 94.7835 103.333 96.2532C102.798 96.8012 102.238 97.2496 101.576 97.5983C100.456 98.2211 99.183 98.5449 97.91 98.5449C95.8479 98.5449 93.9385 97.7229 92.4874 96.2283C91.0871 94.7586 90.3997 92.8405 90.5525 90.7979L90.5525 90.773Z" fill="url(#paint69_linear_406_89)"/>
<path d="M203.692 115.06L210.184 25.2845C210.26 24.7116 210.693 24.2632 211.278 24.2881C211.838 24.2881 212.322 24.7116 212.373 25.2845L218.458 115.11C218.61 117.153 217.898 119.071 216.472 120.54C215.937 121.088 215.377 121.537 214.715 121.885C213.595 122.508 212.322 122.832 211.049 122.832C208.987 122.832 207.078 122.01 205.626 120.515C204.226 119.046 203.539 117.128 203.692 115.085L203.692 115.06Z" fill="url(#paint70_linear_406_89)"/>
<path d="M135.818 115.06L142.31 25.2845C142.386 24.7116 142.819 24.2632 143.405 24.2881C143.965 24.2881 144.449 24.7116 144.5 25.2845L150.584 115.11C150.737 117.153 150.024 119.071 148.598 120.54C148.064 121.088 147.504 121.537 146.842 121.885C145.722 122.508 144.449 122.832 143.176 122.832C141.113 122.832 139.204 122.01 137.753 120.515C136.353 119.046 135.665 117.128 135.818 115.085L135.818 115.06Z" fill="url(#paint71_linear_406_89)"/>
<path d="M22.654 115.06L29.146 25.2845C29.2224 24.7116 29.6552 24.2632 30.2407 24.2881C30.8008 24.2881 31.2845 24.7116 31.3354 25.2845L37.4201 115.11C37.5729 117.153 36.86 119.071 35.4343 120.54C34.8997 121.088 34.3396 121.537 33.6777 121.885C32.5575 122.508 31.2845 122.832 30.0116 122.832C27.9494 122.832 26.04 122.01 24.5888 120.515C23.1886 119.046 22.5012 117.128 22.654 115.085L22.654 115.06Z" fill="url(#paint72_linear_406_89)"/>
<path d="M181.058 142.087L187.55 52.3118C187.627 51.7389 188.059 51.2905 188.645 51.3155C189.205 51.3155 189.689 51.7389 189.74 52.3118L195.824 142.137C195.977 144.18 195.264 146.098 193.839 147.568C193.304 148.116 192.744 148.564 192.082 148.913C190.962 149.536 189.689 149.859 188.416 149.859C186.354 149.859 184.444 149.037 182.993 147.543C181.593 146.073 180.905 144.155 181.058 142.112L181.058 142.087Z" fill="url(#paint73_linear_406_89)"/>
<path d="M113.185 106.259L119.677 16.4837C119.754 15.9108 120.186 15.4624 120.772 15.4873C121.332 15.4873 121.816 15.9108 121.867 16.4837L127.951 106.309C128.104 108.352 127.391 110.27 125.966 111.74C125.431 112.288 124.871 112.736 124.209 113.085C123.089 113.707 121.816 114.031 120.543 114.031C118.481 114.031 116.571 113.209 115.12 111.715C113.72 110.245 113.032 108.327 113.185 106.284L113.185 106.259Z" fill="url(#paint74_linear_406_89)"/>
<path d="M1371.06 165.503L1364.57 75.7279C1364.49 75.1549 1364.06 74.7065 1363.47 74.7315C1362.91 74.7315 1362.43 75.1549 1362.38 75.7279L1356.29 165.553C1356.14 167.596 1356.85 169.514 1358.28 170.984C1358.81 171.532 1359.37 171.98 1360.04 172.329C1361.16 172.952 1362.43 173.275 1363.7 173.275C1365.76 173.275 1367.67 172.453 1369.12 170.959C1370.52 169.489 1371.21 167.571 1371.06 165.528L1371.06 165.503Z" fill="url(#paint75_linear_406_89)"/>
<path d="M1642.63 165.503L1636.14 75.7279C1636.06 75.1549 1635.63 74.7065 1635.04 74.7315C1634.48 74.7315 1634 75.1549 1633.95 75.7279L1627.86 165.553C1627.71 167.596 1628.42 169.514 1629.85 170.984C1630.38 171.532 1630.94 171.98 1631.6 172.329C1632.72 172.952 1634 173.275 1635.27 173.275C1637.33 173.275 1639.24 172.453 1640.69 170.959C1642.09 169.489 1642.78 167.571 1642.63 165.528L1642.63 165.503Z" fill="url(#paint76_linear_406_89)"/>
<path d="M1393.69 106.441L1387.2 16.6654C1387.12 16.0924 1386.69 15.644 1386.1 15.669C1385.54 15.669 1385.06 16.0924 1385.01 16.6654L1378.93 106.491C1378.77 108.533 1379.49 110.451 1380.91 111.921C1381.45 112.469 1382.01 112.918 1382.67 113.266C1383.79 113.889 1385.06 114.213 1386.33 114.213C1388.4 114.213 1390.31 113.391 1391.76 111.896C1393.16 110.427 1393.84 108.509 1393.69 106.466L1393.69 106.441Z" fill="url(#paint77_linear_406_89)"/>
<path d="M1574.73 106.441L1568.24 16.6654C1568.16 16.0924 1567.73 15.644 1567.14 15.669C1566.58 15.669 1566.1 16.0924 1566.05 16.6654L1559.96 106.491C1559.81 108.533 1560.52 110.451 1561.95 111.921C1562.48 112.469 1563.04 112.918 1563.71 113.266C1564.83 113.889 1566.1 114.213 1567.37 114.213C1569.43 114.213 1571.34 113.391 1572.79 111.896C1574.19 110.427 1574.88 108.509 1574.73 106.466L1574.73 106.441Z" fill="url(#paint78_linear_406_89)"/>
<path d="M1484.2 106.441L1477.71 16.6654C1477.63 16.0924 1477.2 15.644 1476.61 15.669C1476.05 15.669 1475.57 16.0924 1475.52 16.6654L1469.43 106.491C1469.28 108.533 1469.99 110.451 1471.42 111.921C1471.95 112.469 1472.51 112.918 1473.17 113.266C1474.29 113.889 1475.57 114.213 1476.84 114.213C1478.9 114.213 1480.81 113.391 1482.26 111.896C1483.66 110.427 1484.35 108.509 1484.2 106.466L1484.2 106.441Z" fill="url(#paint79_linear_406_89)"/>
<path d="M1416.32 90.773L1409.83 0.997373C1409.76 0.424443 1409.32 -0.0239213 1408.74 0.000988648C1408.18 0.000988599 1407.69 0.424443 1407.64 0.997373L1401.56 90.8228C1401.41 92.8654 1402.12 94.7835 1403.54 96.2532C1404.08 96.8012 1404.64 97.2496 1405.3 97.5983C1406.42 98.2211 1407.69 98.5449 1408.97 98.5449C1411.03 98.5449 1412.94 97.7229 1414.39 96.2283C1415.79 94.7586 1416.48 92.8405 1416.32 90.7979L1416.32 90.773Z" fill="url(#paint80_linear_406_89)"/>
<path d="M1597.36 90.773L1590.87 0.997373C1590.79 0.424443 1590.36 -0.0239213 1589.78 0.000988648C1589.22 0.000988599 1588.73 0.424443 1588.68 0.997373L1582.6 90.8228C1582.44 92.8654 1583.16 94.7835 1584.58 96.2532C1585.12 96.8012 1585.68 97.2496 1586.34 97.5983C1587.46 98.2211 1588.73 98.5449 1590 98.5449C1592.07 98.5449 1593.98 97.7229 1595.43 96.2283C1596.83 94.7586 1597.51 92.8405 1597.36 90.7979L1597.36 90.773Z" fill="url(#paint81_linear_406_89)"/>
<path d="M1552.1 90.773L1545.6 0.997373C1545.53 0.424443 1545.1 -0.0239213 1544.51 0.000988648C1543.95 0.000988599 1543.47 0.424443 1543.41 0.997373L1537.33 90.8228C1537.18 92.8654 1537.89 94.7835 1539.32 96.2532C1539.85 96.8012 1540.41 97.2496 1541.07 97.5983C1542.19 98.2211 1543.47 98.5449 1544.74 98.5449C1546.8 98.5449 1548.71 97.7229 1550.16 96.2283C1551.56 94.7586 1552.25 92.8405 1552.1 90.7979L1552.1 90.773Z" fill="url(#paint82_linear_406_89)"/>
<path d="M1438.96 115.06L1432.47 25.2845C1432.39 24.7116 1431.96 24.2632 1431.37 24.2881C1430.81 24.2881 1430.33 24.7116 1430.28 25.2845L1424.19 115.11C1424.04 117.153 1424.75 119.071 1426.18 120.54C1426.71 121.088 1427.27 121.537 1427.93 121.885C1429.05 122.508 1430.33 122.832 1431.6 122.832C1433.66 122.832 1435.57 122.01 1437.02 120.515C1438.42 119.046 1439.11 117.128 1438.96 115.085L1438.96 115.06Z" fill="url(#paint83_linear_406_89)"/>
<path d="M1506.83 115.06L1500.34 25.2845C1500.26 24.7116 1499.83 24.2632 1499.24 24.2881C1498.68 24.2881 1498.2 24.7116 1498.15 25.2845L1492.06 115.11C1491.91 117.153 1492.62 119.071 1494.05 120.54C1494.58 121.088 1495.15 121.537 1495.81 121.885C1496.93 122.508 1498.2 122.832 1499.47 122.832C1501.54 122.832 1503.44 122.01 1504.9 120.515C1506.3 119.046 1506.98 117.128 1506.83 115.085L1506.83 115.06Z" fill="url(#paint84_linear_406_89)"/>
<path d="M1619.99 115.06L1613.5 25.2845C1613.43 24.7116 1612.99 24.2632 1612.41 24.2881C1611.85 24.2881 1611.36 24.7116 1611.31 25.2845L1605.23 115.11C1605.08 117.153 1605.79 119.071 1607.21 120.54C1607.75 121.088 1608.31 121.537 1608.97 121.885C1610.09 122.508 1611.36 122.832 1612.64 122.832C1614.7 122.832 1616.61 122.01 1618.06 120.515C1619.46 119.046 1620.15 117.128 1619.99 115.085L1619.99 115.06Z" fill="url(#paint85_linear_406_89)"/>
<path d="M1461.56 142.087L1455.07 52.3118C1455 51.7389 1454.56 51.2905 1453.98 51.3155C1453.42 51.3155 1452.93 51.7389 1452.88 52.3118L1446.8 142.137C1446.65 144.18 1447.36 146.098 1448.78 147.568C1449.32 148.116 1449.88 148.564 1450.54 148.913C1451.66 149.536 1452.93 149.859 1454.21 149.859C1456.27 149.859 1458.18 149.037 1459.63 147.543C1461.03 146.073 1461.72 144.155 1461.56 142.112L1461.56 142.087Z" fill="url(#paint86_linear_406_89)"/>
<path d="M1529.46 106.259L1522.97 16.4837C1522.9 15.9108 1522.46 15.4624 1521.88 15.4873C1521.32 15.4873 1520.83 15.9108 1520.78 16.4837L1514.7 106.309C1514.54 108.352 1515.26 110.27 1516.68 111.74C1517.22 112.288 1517.78 112.736 1518.44 113.085C1519.56 113.707 1520.83 114.031 1522.11 114.031C1524.17 114.031 1526.08 113.209 1527.53 111.715C1528.93 110.245 1529.62 108.327 1529.46 106.284L1529.46 106.259Z" fill="url(#paint87_linear_406_89)"/>
<path d="M1084.72 165.503L1091.22 75.7279C1091.29 75.1549 1091.72 74.7065 1092.31 74.7315C1092.87 74.7315 1093.35 75.1549 1093.4 75.7279L1099.49 165.553C1099.64 167.596 1098.93 169.514 1097.5 170.984C1096.97 171.532 1096.41 171.98 1095.75 172.329C1094.63 172.952 1093.35 173.275 1092.08 173.275C1090.02 173.275 1088.11 172.453 1086.66 170.959C1085.26 169.489 1084.57 167.571 1084.72 165.528L1084.72 165.503Z" fill="url(#paint88_linear_406_89)"/>
<path d="M1333.66 106.441L1340.15 16.6654C1340.23 16.0924 1340.66 15.644 1341.25 15.669C1341.81 15.669 1342.29 16.0924 1342.34 16.6654L1348.43 106.491C1348.58 108.533 1347.87 110.451 1346.44 111.921C1345.91 112.469 1345.35 112.918 1344.68 113.266C1343.56 113.889 1342.29 114.213 1341.02 114.213C1338.96 114.213 1337.05 113.391 1335.59 111.896C1334.19 110.427 1333.51 108.508 1333.66 106.466L1333.66 106.441Z" fill="url(#paint89_linear_406_89)"/>
<path d="M1152.62 106.441L1159.11 16.6654C1159.19 16.0924 1159.62 15.644 1160.21 15.669C1160.77 15.669 1161.25 16.0924 1161.3 16.6654L1167.39 106.491C1167.54 108.533 1166.83 110.451 1165.4 111.921C1164.87 112.469 1164.31 112.918 1163.65 113.266C1162.53 113.889 1161.25 114.213 1159.98 114.213C1157.92 114.213 1156.01 113.391 1154.56 111.896C1153.16 110.427 1152.47 108.508 1152.62 106.466L1152.62 106.441Z" fill="url(#paint90_linear_406_89)"/>
<path d="M1243.15 106.441L1249.65 16.6654C1249.72 16.0924 1250.15 15.644 1250.74 15.669C1251.3 15.669 1251.78 16.0924 1251.83 16.6654L1257.92 106.491C1258.07 108.533 1257.36 110.451 1255.93 111.921C1255.4 112.469 1254.84 112.918 1254.18 113.266C1253.06 113.889 1251.78 114.213 1250.51 114.213C1248.45 114.213 1246.54 113.391 1245.09 111.896C1243.69 110.427 1243 108.508 1243.15 106.466L1243.15 106.441Z" fill="url(#paint91_linear_406_89)"/>
<path d="M1311.03 90.773L1317.52 0.997373C1317.59 0.424443 1318.03 -0.0239214 1318.61 0.000988684C1319.17 0.000988732 1319.66 0.424443 1319.71 0.997373L1325.79 90.8228C1325.95 92.8654 1325.23 94.7835 1323.81 96.2532C1323.27 96.8012 1322.71 97.2496 1322.05 97.5983C1320.93 98.2211 1319.66 98.5449 1318.38 98.5449C1316.32 98.5449 1314.41 97.7229 1312.96 96.2283C1311.56 94.7586 1310.87 92.8405 1311.03 90.7979L1311.03 90.773Z" fill="url(#paint92_linear_406_89)"/>
<path d="M1129.99 90.773L1136.48 0.997373C1136.56 0.424443 1136.99 -0.0239214 1137.58 0.000988684C1138.14 0.000988732 1138.62 0.424443 1138.67 0.997373L1144.76 90.8228C1144.91 92.8654 1144.19 94.7835 1142.77 96.2532C1142.23 96.8012 1141.67 97.2496 1141.01 97.5983C1139.89 98.2211 1138.62 98.5449 1137.35 98.5449C1135.28 98.5449 1133.37 97.7229 1131.92 96.2283C1130.52 94.7586 1129.84 92.8405 1129.99 90.7979L1129.99 90.773Z" fill="url(#paint93_linear_406_89)"/>
<path d="M1175.26 90.773L1181.75 0.997373C1181.82 0.424443 1182.26 -0.0239214 1182.84 0.000988684C1183.4 0.000988732 1183.89 0.424443 1183.94 0.997373L1190.02 90.8228C1190.17 92.8654 1189.46 94.7835 1188.04 96.2532C1187.5 96.8012 1186.94 97.2496 1186.28 97.5983C1185.16 98.2211 1183.89 98.5449 1182.61 98.5449C1180.55 98.5449 1178.64 97.7229 1177.19 96.2283C1175.79 94.7586 1175.1 92.8405 1175.26 90.7979L1175.26 90.773Z" fill="url(#paint94_linear_406_89)"/>
<path d="M1288.39 115.06L1294.89 25.2845C1294.96 24.7116 1295.39 24.2632 1295.98 24.2881C1296.54 24.2881 1297.02 24.7116 1297.08 25.2845L1303.16 115.11C1303.31 117.153 1302.6 119.071 1301.17 120.54C1300.64 121.088 1300.08 121.537 1299.42 121.885C1298.3 122.508 1297.02 122.832 1295.75 122.832C1293.69 122.832 1291.78 122.01 1290.33 120.515C1288.93 119.046 1288.24 117.128 1288.39 115.085L1288.39 115.06Z" fill="url(#paint95_linear_406_89)"/>
<path d="M1220.52 115.06L1227.01 25.2845C1227.09 24.7116 1227.52 24.2632 1228.11 24.2881C1228.67 24.2881 1229.15 24.7116 1229.2 25.2845L1235.29 115.11C1235.44 117.153 1234.73 119.071 1233.3 120.54C1232.77 121.088 1232.21 121.537 1231.54 121.885C1230.42 122.508 1229.15 122.832 1227.88 122.832C1225.82 122.832 1223.91 122.01 1222.46 120.515C1221.06 119.046 1220.37 117.128 1220.52 115.085L1220.52 115.06Z" fill="url(#paint96_linear_406_89)"/>
<path d="M1107.36 115.06L1113.85 25.2845C1113.93 24.7116 1114.36 24.2632 1114.94 24.2881C1115.5 24.2881 1115.99 24.7116 1116.04 25.2845L1122.12 115.11C1122.28 117.153 1121.56 119.071 1120.14 120.54C1119.6 121.088 1119.04 121.537 1118.38 121.885C1117.26 122.508 1115.99 122.832 1114.71 122.832C1112.65 122.832 1110.74 122.01 1109.29 120.515C1107.89 119.046 1107.2 117.128 1107.36 115.085L1107.36 115.06Z" fill="url(#paint97_linear_406_89)"/>
<path d="M1265.76 142.087L1272.25 52.3118C1272.33 51.7389 1272.76 51.2905 1273.35 51.3155C1273.91 51.3155 1274.39 51.7389 1274.44 52.3118L1280.53 142.137C1280.68 144.18 1279.97 146.098 1278.54 147.568C1278.01 148.116 1277.45 148.564 1276.78 148.913C1275.66 149.536 1274.39 149.859 1273.12 149.859C1271.06 149.859 1269.15 149.037 1267.7 147.543C1266.3 146.073 1265.61 144.155 1265.76 142.112L1265.76 142.087Z" fill="url(#paint98_linear_406_89)"/>
<path d="M1197.89 106.259L1204.38 16.4837C1204.46 15.9108 1204.89 15.4624 1205.47 15.4873C1206.03 15.4873 1206.52 15.9108 1206.57 16.4837L1212.65 106.309C1212.81 108.352 1212.09 110.27 1210.67 111.74C1210.13 112.288 1209.57 112.736 1208.91 113.085C1207.79 113.707 1206.52 114.031 1205.25 114.031C1203.18 114.031 1201.27 113.209 1199.82 111.715C1198.42 110.245 1197.74 108.327 1197.89 106.284L1197.89 106.259Z" fill="url(#paint99_linear_406_89)"/>
<defs>
<linearGradient id="paint0_linear_406_89" x1="821.325" y1="173.275" x2="821.325" y2="74.7305" gradientUnits="userSpaceOnUse">
<stop stop-color="#A49370"/>
<stop offset="1" stop-color="white"/>
</linearGradient>
<linearGradient id="paint1_linear_406_89" x1="1092.89" y1="173.275" x2="1092.89" y2="74.7305" gradientUnits="userSpaceOnUse">
<stop stop-color="#A49370"/>
<stop offset="1" stop-color="white"/>
</linearGradient>
<linearGradient id="paint2_linear_406_89" x1="843.958" y1="114.213" x2="843.958" y2="15.668" gradientUnits="userSpaceOnUse">
<stop stop-color="#A49370"/>
<stop offset="1" stop-color="white"/>
</linearGradient>
<linearGradient id="paint3_linear_406_89" x1="1025" y1="114.213" x2="1025" y2="15.668" gradientUnits="userSpaceOnUse">
<stop stop-color="#A49370"/>
<stop offset="1" stop-color="white"/>
</linearGradient>
<linearGradient id="paint4_linear_406_89" x1="934.464" y1="114.213" x2="934.464" y2="15.668" gradientUnits="userSpaceOnUse">
<stop stop-color="#A49370"/>
<stop offset="1" stop-color="white"/>
</linearGradient>
<linearGradient id="paint5_linear_406_89" x1="866.59" y1="98.5449" x2="866.59" y2="-6.44424e-07" gradientUnits="userSpaceOnUse">
<stop stop-color="#A49370"/>
<stop offset="1" stop-color="white"/>
</linearGradient>
<linearGradient id="paint6_linear_406_89" x1="1047.63" y1="98.5449" x2="1047.63" y2="-6.44421e-07" gradientUnits="userSpaceOnUse">
<stop stop-color="#A49370"/>
<stop offset="1" stop-color="white"/>
</linearGradient>
<linearGradient id="paint7_linear_406_89" x1="1002.36" y1="98.5449" x2="1002.36" y2="-6.44421e-07" gradientUnits="userSpaceOnUse">
<stop stop-color="#A49370"/>
<stop offset="1" stop-color="white"/>
</linearGradient>
<linearGradient id="paint8_linear_406_89" x1="889.223" y1="122.832" x2="889.223" y2="24.2871" gradientUnits="userSpaceOnUse">
<stop stop-color="#A49370"/>
<stop offset="1" stop-color="white"/>
</linearGradient>
<linearGradient id="paint9_linear_406_89" x1="957.097" y1="122.832" x2="957.097" y2="24.2871" gradientUnits="userSpaceOnUse">
<stop stop-color="#A49370"/>
<stop offset="1" stop-color="white"/>
</linearGradient>
<linearGradient id="paint10_linear_406_89" x1="1070.26" y1="122.832" x2="1070.26" y2="24.2871" gradientUnits="userSpaceOnUse">
<stop stop-color="#A49370"/>
<stop offset="1" stop-color="white"/>
</linearGradient>
<linearGradient id="paint11_linear_406_89" x1="911.831" y1="149.859" x2="911.831" y2="51.3145" gradientUnits="userSpaceOnUse">
<stop stop-color="#A49370"/>
<stop offset="1" stop-color="white"/>
</linearGradient>
<linearGradient id="paint12_linear_406_89" x1="979.73" y1="114.031" x2="979.73" y2="15.4863" gradientUnits="userSpaceOnUse">
<stop stop-color="#A49370"/>
<stop offset="1" stop-color="white"/>
</linearGradient>
<linearGradient id="paint13_linear_406_89" x1="549.755" y1="173.275" x2="549.755" y2="74.7305" gradientUnits="userSpaceOnUse">
<stop stop-color="#A49370"/>
<stop offset="1" stop-color="white"/>
</linearGradient>
<linearGradient id="paint14_linear_406_89" x1="798.692" y1="114.213" x2="798.692" y2="15.668" gradientUnits="userSpaceOnUse">
<stop stop-color="#A49370"/>
<stop offset="1" stop-color="white"/>
</linearGradient>
<linearGradient id="paint15_linear_406_89" x1="617.654" y1="114.213" x2="617.654" y2="15.668" gradientUnits="userSpaceOnUse">
<stop stop-color="#A49370"/>
<stop offset="1" stop-color="white"/>
</linearGradient>
<linearGradient id="paint16_linear_406_89" x1="708.186" y1="114.213" x2="708.186" y2="15.668" gradientUnits="userSpaceOnUse">
<stop stop-color="#A49370"/>
<stop offset="1" stop-color="white"/>
</linearGradient>
<linearGradient id="paint17_linear_406_89" x1="776.058" y1="98.5449" x2="776.058" y2="-6.44425e-07" gradientUnits="userSpaceOnUse">
<stop stop-color="#A49370"/>
<stop offset="0.329621" stop-color="#C2B79F"/>
<stop offset="1" stop-color="white"/>
</linearGradient>
<linearGradient id="paint18_linear_406_89" x1="595.021" y1="98.5449" x2="595.021" y2="-6.44421e-07" gradientUnits="userSpaceOnUse">
<stop stop-color="#A49370"/>
<stop offset="1" stop-color="white"/>
</linearGradient>
<linearGradient id="paint19_linear_406_89" x1="640.287" y1="98.5449" x2="640.287" y2="-6.44422e-07" gradientUnits="userSpaceOnUse">
<stop stop-color="#A49370"/>
<stop offset="1" stop-color="white"/>
</linearGradient>
<linearGradient id="paint20_linear_406_89" x1="753.426" y1="122.832" x2="753.426" y2="24.2871" gradientUnits="userSpaceOnUse">
<stop stop-color="#A49370"/>
<stop offset="1" stop-color="white"/>
</linearGradient>
<linearGradient id="paint21_linear_406_89" x1="685.552" y1="122.832" x2="685.552" y2="24.2871" gradientUnits="userSpaceOnUse">
<stop stop-color="#A49370"/>
<stop offset="1" stop-color="white"/>
</linearGradient>
<linearGradient id="paint22_linear_406_89" x1="572.388" y1="122.832" x2="572.388" y2="24.2871" gradientUnits="userSpaceOnUse">
<stop stop-color="#A49370"/>
<stop offset="1" stop-color="white"/>
</linearGradient>
<linearGradient id="paint23_linear_406_89" x1="730.793" y1="149.859" x2="730.793" y2="51.3145" gradientUnits="userSpaceOnUse">
<stop stop-color="#A49370"/>
<stop offset="1" stop-color="white"/>
</linearGradient>
<linearGradient id="paint24_linear_406_89" x1="662.92" y1="114.031" x2="662.92" y2="15.4863" gradientUnits="userSpaceOnUse">
<stop stop-color="#A49370"/>
<stop offset="1" stop-color="white"/>
</linearGradient>
<linearGradient id="paint25_linear_406_89" x1="1906.03" y1="173.275" x2="1906.03" y2="74.7305" gradientUnits="userSpaceOnUse">
<stop stop-color="#A49370"/>
<stop offset="1" stop-color="white"/>
</linearGradient>
<linearGradient id="paint26_linear_406_89" x1="2177.6" y1="173.275" x2="2177.6" y2="74.7305" gradientUnits="userSpaceOnUse">
<stop stop-color="#A49370"/>
<stop offset="1" stop-color="white"/>
</linearGradient>
<linearGradient id="paint27_linear_406_89" x1="1928.66" y1="114.213" x2="1928.66" y2="15.668" gradientUnits="userSpaceOnUse">
<stop stop-color="#A49370"/>
<stop offset="1" stop-color="white"/>
</linearGradient>
<linearGradient id="paint28_linear_406_89" x1="2109.7" y1="114.213" x2="2109.7" y2="15.668" gradientUnits="userSpaceOnUse">
<stop stop-color="#A49370"/>
<stop offset="1" stop-color="white"/>
</linearGradient>
<linearGradient id="paint29_linear_406_89" x1="2019.17" y1="114.213" x2="2019.17" y2="15.668" gradientUnits="userSpaceOnUse">
<stop stop-color="#A49370"/>
<stop offset="1" stop-color="white"/>
</linearGradient>
<linearGradient id="paint30_linear_406_89" x1="1951.29" y1="98.5449" x2="1951.29" y2="-6.44424e-07" gradientUnits="userSpaceOnUse">
<stop stop-color="#A49370"/>
<stop offset="1" stop-color="white"/>
</linearGradient>
<linearGradient id="paint31_linear_406_89" x1="2132.33" y1="98.5449" x2="2132.33" y2="-6.44421e-07" gradientUnits="userSpaceOnUse">
<stop stop-color="#A49370"/>
<stop offset="1" stop-color="white"/>
</linearGradient>
<linearGradient id="paint32_linear_406_89" x1="2087.06" y1="98.5449" x2="2087.06" y2="-6.44421e-07" gradientUnits="userSpaceOnUse">
<stop stop-color="#A49370"/>
<stop offset="1" stop-color="white"/>
</linearGradient>
<linearGradient id="paint33_linear_406_89" x1="1973.93" y1="122.832" x2="1973.93" y2="24.2871" gradientUnits="userSpaceOnUse">
<stop stop-color="#A49370"/>
<stop offset="1" stop-color="white"/>
</linearGradient>
<linearGradient id="paint34_linear_406_89" x1="2041.8" y1="122.832" x2="2041.8" y2="24.2871" gradientUnits="userSpaceOnUse">
<stop stop-color="#A49370"/>
<stop offset="1" stop-color="white"/>
</linearGradient>
<linearGradient id="paint35_linear_406_89" x1="2154.96" y1="122.832" x2="2154.96" y2="24.2871" gradientUnits="userSpaceOnUse">
<stop stop-color="#A49370"/>
<stop offset="1" stop-color="white"/>
</linearGradient>
<linearGradient id="paint36_linear_406_89" x1="1996.53" y1="149.859" x2="1996.53" y2="51.3145" gradientUnits="userSpaceOnUse">
<stop stop-color="#A49370"/>
<stop offset="1" stop-color="white"/>
</linearGradient>
<linearGradient id="paint37_linear_406_89" x1="2064.43" y1="114.031" x2="2064.43" y2="15.4863" gradientUnits="userSpaceOnUse">
<stop stop-color="#A49370"/>
<stop offset="1" stop-color="white"/>
</linearGradient>
<linearGradient id="paint38_linear_406_89" x1="1634.46" y1="173.275" x2="1634.46" y2="74.7305" gradientUnits="userSpaceOnUse">
<stop stop-color="#A49370"/>
<stop offset="1" stop-color="white"/>
</linearGradient>
<linearGradient id="paint39_linear_406_89" x1="1883.39" y1="114.213" x2="1883.39" y2="15.668" gradientUnits="userSpaceOnUse">
<stop stop-color="#A49370"/>
<stop offset="1" stop-color="white"/>
</linearGradient>
<linearGradient id="paint40_linear_406_89" x1="1702.36" y1="114.213" x2="1702.36" y2="15.668" gradientUnits="userSpaceOnUse">
<stop stop-color="#A49370"/>
<stop offset="1" stop-color="white"/>
</linearGradient>
<linearGradient id="paint41_linear_406_89" x1="1792.89" y1="114.213" x2="1792.89" y2="15.668" gradientUnits="userSpaceOnUse">
<stop stop-color="#A49370"/>
<stop offset="1" stop-color="white"/>
</linearGradient>
<linearGradient id="paint42_linear_406_89" x1="1860.76" y1="98.5449" x2="1860.76" y2="-6.44425e-07" gradientUnits="userSpaceOnUse">
<stop stop-color="#A49370"/>
<stop offset="0.329621" stop-color="#C2B79F"/>
<stop offset="1" stop-color="white"/>
</linearGradient>
<linearGradient id="paint43_linear_406_89" x1="1679.72" y1="98.5449" x2="1679.72" y2="-6.44421e-07" gradientUnits="userSpaceOnUse">
<stop stop-color="#A49370"/>
<stop offset="1" stop-color="white"/>
</linearGradient>
<linearGradient id="paint44_linear_406_89" x1="1724.99" y1="98.5449" x2="1724.99" y2="-6.44422e-07" gradientUnits="userSpaceOnUse">
<stop stop-color="#A49370"/>
<stop offset="1" stop-color="white"/>
</linearGradient>
<linearGradient id="paint45_linear_406_89" x1="1838.13" y1="122.832" x2="1838.13" y2="24.2871" gradientUnits="userSpaceOnUse">
<stop stop-color="#A49370"/>
<stop offset="1" stop-color="white"/>
</linearGradient>
<linearGradient id="paint46_linear_406_89" x1="1770.25" y1="122.832" x2="1770.25" y2="24.2871" gradientUnits="userSpaceOnUse">
<stop stop-color="#A49370"/>
<stop offset="1" stop-color="white"/>
</linearGradient>
<linearGradient id="paint47_linear_406_89" x1="1657.09" y1="122.832" x2="1657.09" y2="24.2871" gradientUnits="userSpaceOnUse">
<stop stop-color="#A49370"/>
<stop offset="1" stop-color="white"/>
</linearGradient>
<linearGradient id="paint48_linear_406_89" x1="1815.49" y1="149.859" x2="1815.49" y2="51.3145" gradientUnits="userSpaceOnUse">
<stop stop-color="#A49370"/>
<stop offset="1" stop-color="white"/>
</linearGradient>
<linearGradient id="paint49_linear_406_89" x1="1747.62" y1="114.031" x2="1747.62" y2="15.4863" gradientUnits="userSpaceOnUse">
<stop stop-color="#A49370"/>
<stop offset="1" stop-color="white"/>
</linearGradient>
<linearGradient id="paint50_linear_406_89" x1="278.973" y1="173.275" x2="278.973" y2="74.7305" gradientUnits="userSpaceOnUse">
<stop stop-color="#A49370"/>
<stop offset="1" stop-color="white"/>
</linearGradient>
<linearGradient id="paint51_linear_406_89" x1="550.543" y1="173.275" x2="550.543" y2="74.7305" gradientUnits="userSpaceOnUse">
<stop stop-color="#A49370"/>
<stop offset="1" stop-color="white"/>
</linearGradient>
<linearGradient id="paint52_linear_406_89" x1="301.606" y1="114.213" x2="301.606" y2="15.668" gradientUnits="userSpaceOnUse">
<stop stop-color="#A49370"/>
<stop offset="1" stop-color="white"/>
</linearGradient>
<linearGradient id="paint53_linear_406_89" x1="482.644" y1="114.213" x2="482.644" y2="15.668" gradientUnits="userSpaceOnUse">
<stop stop-color="#A49370"/>
<stop offset="1" stop-color="white"/>
</linearGradient>
<linearGradient id="paint54_linear_406_89" x1="392.112" y1="114.213" x2="392.112" y2="15.668" gradientUnits="userSpaceOnUse">
<stop stop-color="#A49370"/>
<stop offset="1" stop-color="white"/>
</linearGradient>
<linearGradient id="paint55_linear_406_89" x1="324.239" y1="98.5449" x2="324.239" y2="-6.44424e-07" gradientUnits="userSpaceOnUse">
<stop stop-color="#A49370"/>
<stop offset="1" stop-color="white"/>
</linearGradient>
<linearGradient id="paint56_linear_406_89" x1="505.277" y1="98.5449" x2="505.277" y2="-6.44421e-07" gradientUnits="userSpaceOnUse">
<stop stop-color="#A49370"/>
<stop offset="1" stop-color="white"/>
</linearGradient>
<linearGradient id="paint57_linear_406_89" x1="460.011" y1="98.5449" x2="460.011" y2="-6.44421e-07" gradientUnits="userSpaceOnUse">
<stop stop-color="#A49370"/>
<stop offset="1" stop-color="white"/>
</linearGradient>
<linearGradient id="paint58_linear_406_89" x1="346.872" y1="122.832" x2="346.872" y2="24.2871" gradientUnits="userSpaceOnUse">
<stop stop-color="#A49370"/>
<stop offset="1" stop-color="white"/>
</linearGradient>
<linearGradient id="paint59_linear_406_89" x1="414.745" y1="122.832" x2="414.745" y2="24.2871" gradientUnits="userSpaceOnUse">
<stop stop-color="#A49370"/>
<stop offset="1" stop-color="white"/>
</linearGradient>
<linearGradient id="paint60_linear_406_89" x1="527.909" y1="122.832" x2="527.909" y2="24.2871" gradientUnits="userSpaceOnUse">
<stop stop-color="#A49370"/>
<stop offset="1" stop-color="white"/>
</linearGradient>
<linearGradient id="paint61_linear_406_89" x1="369.479" y1="149.859" x2="369.479" y2="51.3145" gradientUnits="userSpaceOnUse">
<stop stop-color="#A49370"/>
<stop offset="1" stop-color="white"/>
</linearGradient>
<linearGradient id="paint62_linear_406_89" x1="437.378" y1="114.031" x2="437.378" y2="15.4863" gradientUnits="userSpaceOnUse">
<stop stop-color="#A49370"/>
<stop offset="1" stop-color="white"/>
</linearGradient>
<linearGradient id="paint63_linear_406_89" x1="7.4035" y1="173.275" x2="7.40352" y2="74.7305" gradientUnits="userSpaceOnUse">
<stop stop-color="#A49370"/>
<stop offset="1" stop-color="white"/>
</linearGradient>
<linearGradient id="paint64_linear_406_89" x1="256.34" y1="114.213" x2="256.34" y2="15.668" gradientUnits="userSpaceOnUse">
<stop stop-color="#A49370"/>
<stop offset="1" stop-color="white"/>
</linearGradient>
<linearGradient id="paint65_linear_406_89" x1="75.3024" y1="114.213" x2="75.3024" y2="15.668" gradientUnits="userSpaceOnUse">
<stop stop-color="#A49370"/>
<stop offset="1" stop-color="white"/>
</linearGradient>
<linearGradient id="paint66_linear_406_89" x1="165.834" y1="114.213" x2="165.834" y2="15.668" gradientUnits="userSpaceOnUse">
<stop stop-color="#A49370"/>
<stop offset="1" stop-color="white"/>
</linearGradient>
<linearGradient id="paint67_linear_406_89" x1="233.707" y1="98.5449" x2="233.707" y2="-6.44425e-07" gradientUnits="userSpaceOnUse">
<stop stop-color="#A49370"/>
<stop offset="0.329621" stop-color="#C2B79F"/>
<stop offset="1" stop-color="white"/>
</linearGradient>
<linearGradient id="paint68_linear_406_89" x1="52.6691" y1="98.5449" x2="52.6691" y2="-6.44421e-07" gradientUnits="userSpaceOnUse">
<stop stop-color="#A49370"/>
<stop offset="1" stop-color="white"/>
</linearGradient>
<linearGradient id="paint69_linear_406_89" x1="97.9352" y1="98.5449" x2="97.9353" y2="-6.44422e-07" gradientUnits="userSpaceOnUse">
<stop stop-color="#A49370"/>
<stop offset="1" stop-color="white"/>
</linearGradient>
<linearGradient id="paint70_linear_406_89" x1="211.074" y1="122.832" x2="211.074" y2="24.2871" gradientUnits="userSpaceOnUse">
<stop stop-color="#A49370"/>
<stop offset="1" stop-color="white"/>
</linearGradient>
<linearGradient id="paint71_linear_406_89" x1="143.201" y1="122.832" x2="143.201" y2="24.2871" gradientUnits="userSpaceOnUse">
<stop stop-color="#A49370"/>
<stop offset="1" stop-color="white"/>
</linearGradient>
<linearGradient id="paint72_linear_406_89" x1="30.0368" y1="122.832" x2="30.0368" y2="24.2871" gradientUnits="userSpaceOnUse">
<stop stop-color="#A49370"/>
<stop offset="1" stop-color="white"/>
</linearGradient>
<linearGradient id="paint73_linear_406_89" x1="188.441" y1="149.859" x2="188.441" y2="51.3145" gradientUnits="userSpaceOnUse">
<stop stop-color="#A49370"/>
<stop offset="1" stop-color="white"/>
</linearGradient>
<linearGradient id="paint74_linear_406_89" x1="120.568" y1="114.031" x2="120.568" y2="15.4863" gradientUnits="userSpaceOnUse">
<stop stop-color="#A49370"/>
<stop offset="1" stop-color="white"/>
</linearGradient>
<linearGradient id="paint75_linear_406_89" x1="1363.68" y1="173.275" x2="1363.68" y2="74.7305" gradientUnits="userSpaceOnUse">
<stop stop-color="#A49370"/>
<stop offset="1" stop-color="white"/>
</linearGradient>
<linearGradient id="paint76_linear_406_89" x1="1635.24" y1="173.275" x2="1635.24" y2="74.7305" gradientUnits="userSpaceOnUse">
<stop stop-color="#A49370"/>
<stop offset="1" stop-color="white"/>
</linearGradient>
<linearGradient id="paint77_linear_406_89" x1="1386.31" y1="114.213" x2="1386.31" y2="15.668" gradientUnits="userSpaceOnUse">
<stop stop-color="#A49370"/>
<stop offset="1" stop-color="white"/>
</linearGradient>
<linearGradient id="paint78_linear_406_89" x1="1567.35" y1="114.213" x2="1567.35" y2="15.668" gradientUnits="userSpaceOnUse">
<stop stop-color="#A49370"/>
<stop offset="1" stop-color="white"/>
</linearGradient>
<linearGradient id="paint79_linear_406_89" x1="1476.82" y1="114.213" x2="1476.82" y2="15.668" gradientUnits="userSpaceOnUse">
<stop stop-color="#A49370"/>
<stop offset="1" stop-color="white"/>
</linearGradient>
<linearGradient id="paint80_linear_406_89" x1="1408.94" y1="98.5449" x2="1408.94" y2="-6.44424e-07" gradientUnits="userSpaceOnUse">
<stop stop-color="#A49370"/>
<stop offset="1" stop-color="white"/>
</linearGradient>
<linearGradient id="paint81_linear_406_89" x1="1589.98" y1="98.5449" x2="1589.98" y2="-6.44421e-07" gradientUnits="userSpaceOnUse">
<stop stop-color="#A49370"/>
<stop offset="1" stop-color="white"/>
</linearGradient>
<linearGradient id="paint82_linear_406_89" x1="1544.71" y1="98.5449" x2="1544.71" y2="-6.44421e-07" gradientUnits="userSpaceOnUse">
<stop stop-color="#A49370"/>
<stop offset="1" stop-color="white"/>
</linearGradient>
<linearGradient id="paint83_linear_406_89" x1="1431.57" y1="122.832" x2="1431.57" y2="24.2871" gradientUnits="userSpaceOnUse">
<stop stop-color="#A49370"/>
<stop offset="1" stop-color="white"/>
</linearGradient>
<linearGradient id="paint84_linear_406_89" x1="1499.45" y1="122.832" x2="1499.45" y2="24.2871" gradientUnits="userSpaceOnUse">
<stop stop-color="#A49370"/>
<stop offset="1" stop-color="white"/>
</linearGradient>
<linearGradient id="paint85_linear_406_89" x1="1612.61" y1="122.832" x2="1612.61" y2="24.2871" gradientUnits="userSpaceOnUse">
<stop stop-color="#A49370"/>
<stop offset="1" stop-color="white"/>
</linearGradient>
<linearGradient id="paint86_linear_406_89" x1="1454.18" y1="149.859" x2="1454.18" y2="51.3145" gradientUnits="userSpaceOnUse">
<stop stop-color="#A49370"/>
<stop offset="1" stop-color="white"/>
</linearGradient>
<linearGradient id="paint87_linear_406_89" x1="1522.08" y1="114.031" x2="1522.08" y2="15.4863" gradientUnits="userSpaceOnUse">
<stop stop-color="#A49370"/>
<stop offset="1" stop-color="white"/>
</linearGradient>
<linearGradient id="paint88_linear_406_89" x1="1092.11" y1="173.275" x2="1092.11" y2="74.7305" gradientUnits="userSpaceOnUse">
<stop stop-color="#A49370"/>
<stop offset="1" stop-color="white"/>
</linearGradient>
<linearGradient id="paint89_linear_406_89" x1="1341.04" y1="114.213" x2="1341.04" y2="15.668" gradientUnits="userSpaceOnUse">
<stop stop-color="#A49370"/>
<stop offset="1" stop-color="white"/>
</linearGradient>
<linearGradient id="paint90_linear_406_89" x1="1160.01" y1="114.213" x2="1160.01" y2="15.668" gradientUnits="userSpaceOnUse">
<stop stop-color="#A49370"/>
<stop offset="1" stop-color="white"/>
</linearGradient>
<linearGradient id="paint91_linear_406_89" x1="1250.54" y1="114.213" x2="1250.54" y2="15.668" gradientUnits="userSpaceOnUse">
<stop stop-color="#A49370"/>
<stop offset="1" stop-color="white"/>
</linearGradient>
<linearGradient id="paint92_linear_406_89" x1="1318.41" y1="98.5449" x2="1318.41" y2="-6.44425e-07" gradientUnits="userSpaceOnUse">
<stop stop-color="#A49370"/>
<stop offset="0.329621" stop-color="#C2B79F"/>
<stop offset="1" stop-color="white"/>
</linearGradient>
<linearGradient id="paint93_linear_406_89" x1="1137.37" y1="98.5449" x2="1137.37" y2="-6.44421e-07" gradientUnits="userSpaceOnUse">
<stop stop-color="#A49370"/>
<stop offset="1" stop-color="white"/>
</linearGradient>
<linearGradient id="paint94_linear_406_89" x1="1182.64" y1="98.5449" x2="1182.64" y2="-6.44422e-07" gradientUnits="userSpaceOnUse">
<stop stop-color="#A49370"/>
<stop offset="1" stop-color="white"/>
</linearGradient>
<linearGradient id="paint95_linear_406_89" x1="1295.78" y1="122.832" x2="1295.78" y2="24.2871" gradientUnits="userSpaceOnUse">
<stop stop-color="#A49370"/>
<stop offset="1" stop-color="white"/>
</linearGradient>
<linearGradient id="paint96_linear_406_89" x1="1227.9" y1="122.832" x2="1227.9" y2="24.2871" gradientUnits="userSpaceOnUse">
<stop stop-color="#A49370"/>
<stop offset="1" stop-color="white"/>
</linearGradient>
<linearGradient id="paint97_linear_406_89" x1="1114.74" y1="122.832" x2="1114.74" y2="24.2871" gradientUnits="userSpaceOnUse">
<stop stop-color="#A49370"/>
<stop offset="1" stop-color="white"/>
</linearGradient>
<linearGradient id="paint98_linear_406_89" x1="1273.14" y1="149.859" x2="1273.14" y2="51.3145" gradientUnits="userSpaceOnUse">
<stop stop-color="#A49370"/>
<stop offset="1" stop-color="white"/>
</linearGradient>
<linearGradient id="paint99_linear_406_89" x1="1205.27" y1="114.031" x2="1205.27" y2="15.4863" gradientUnits="userSpaceOnUse">
<stop stop-color="#A49370"/>
<stop offset="1" stop-color="white"/>
</linearGradient>
</defs>
</svg>
