<svg width="91" height="81" viewBox="0 0 91 81" fill="none" xmlns="http://www.w3.org/2000/svg">
<path d="M42.9287 51.525L39.0351 71.6128C38.9364 72.1152 38.6338 72.5476 38.1866 72.8337C37.7394 73.1072 37.2066 73.1835 36.687 73.0499C36.1674 72.9164 35.7465 72.5921 35.5031 72.1343C35.2532 71.6828 35.2137 71.1613 35.3979 70.6717L42.3828 51.3978C42.4289 51.2833 42.5407 51.207 42.6591 51.207C42.6854 51.207 42.7051 51.207 42.7314 51.207C42.8761 51.2452 42.9682 51.3851 42.9353 51.525H42.9287Z" fill="#A49370"/>
<path d="M40.555 50.6482L31.7416 68.5358C31.5048 69.0064 31.097 69.3434 30.5906 69.4897C30.0776 69.6423 29.5514 69.585 29.0844 69.3307C28.624 69.0763 28.3083 68.6566 28.1833 68.1543C28.0715 67.6519 28.1702 67.1369 28.4727 66.7108L40.0551 50.3747C40.1077 50.2984 40.1932 50.2539 40.2919 50.2539C40.3379 50.2539 40.3906 50.2666 40.4366 50.2921C40.5616 50.362 40.6076 50.521 40.5418 50.6482H40.555Z" fill="#A49370"/>
<path d="M38.6482 49.4389L30.8806 58.6339C30.5714 59.0218 30.0913 59.257 29.5717 59.2952C29.0587 59.327 28.5588 59.1426 28.2036 58.7865C27.8353 58.4431 27.6446 57.9598 27.6775 57.4575C27.7104 56.9615 27.9603 56.4973 28.3549 56.192L38.2141 49.0064C38.2667 48.9747 38.3325 48.9492 38.4048 48.9492C38.4969 48.9492 38.5693 48.981 38.6285 49.0319C38.7403 49.1463 38.7534 49.3244 38.6548 49.4452L38.6482 49.4389Z" fill="#A49370"/>
<path d="M35.6615 44.7456L19.0607 49.5211C18.5806 49.6483 18.0807 49.5911 17.6466 49.3558C17.2125 49.1205 16.91 48.7326 16.7719 48.2684C16.6337 47.747 16.7324 47.2001 17.0481 46.7741C17.3572 46.3417 17.8505 46.0619 18.403 46.0174L35.5299 44.2051C35.5299 44.2051 35.5628 44.2051 35.576 44.2051C35.7075 44.2051 35.8259 44.2941 35.8588 44.4213C35.8983 44.5739 35.8193 44.7202 35.6615 44.771V44.7456Z" fill="#A49370"/>
<path d="M35.6943 42.3378C35.6943 42.4777 35.5825 42.5922 35.4443 42.5985L2.0455 44.2201C1.5259 44.2519 1.00631 44.0738 0.605099 43.705C0.217046 43.3425 0 42.8593 0 42.3378C0 41.8164 0.217046 41.3268 0.605099 40.9707C0.97342 40.6273 1.4404 40.4492 1.95342 40.4492H2.05865L35.4575 42.0771C35.5956 42.0771 35.7074 42.1979 35.7074 42.3378H35.6943Z" fill="#A49370"/>
<path d="M36.0286 39.8818C36.0286 39.8818 36.0286 39.9264 36.0155 39.9581C35.9826 40.098 35.8379 40.1807 35.6932 40.1553L10.6868 35.3034C10.1607 35.2017 9.70684 34.9028 9.4306 34.464C9.14778 34.0253 9.06886 33.5038 9.20698 32.9951C9.35167 32.4928 9.68711 32.0794 10.1607 31.8378C10.4435 31.6915 10.746 31.6152 11.0617 31.6152C11.2722 31.6152 11.4827 31.647 11.68 31.717L35.8445 39.6275C35.9563 39.6593 36.0352 39.7674 36.0352 39.8755L36.0286 39.8818Z" fill="#A49370"/>
<path d="M37.0105 37.6117C37.0105 37.6562 36.9974 37.7007 36.9711 37.7452C36.9053 37.866 36.7474 37.9105 36.6159 37.847L6.84766 23.0879C6.36752 22.8526 6.01894 22.4393 5.86766 21.9369C5.70981 21.4409 5.77558 20.9131 6.04524 20.4553C6.31491 19.9974 6.75558 19.6859 7.28175 19.5587C7.43303 19.5269 7.5843 19.5078 7.74215 19.5078C8.11047 19.5078 8.47879 19.6096 8.7945 19.8067L36.879 37.3891C36.9579 37.4336 37.004 37.5226 37.004 37.6053L37.0105 37.6117Z" fill="#A49370"/>
<path d="M38.4775 35.844C38.3789 35.9393 38.2144 35.9393 38.1092 35.844L16.2533 16.9643C15.8521 16.6209 15.6219 16.144 15.6087 15.6162C15.589 15.1011 15.7929 14.6115 16.1744 14.2427C16.5427 13.8866 17.0228 13.6895 17.5424 13.6895H17.595C18.1409 13.7085 18.6342 13.9247 18.9828 14.3126L38.4841 35.4751C38.5828 35.5769 38.5762 35.7358 38.471 35.8376L38.4775 35.844Z" fill="#A49370"/>
<path d="M42.9433 33.1494V33.1875C42.9433 33.3083 42.8512 33.4228 42.7328 33.4609C42.5815 33.4927 42.4303 33.4228 42.3711 33.2829L36.2148 16.8705C36.0307 16.3872 36.0636 15.8722 36.3135 15.4207C36.5569 14.9628 36.9712 14.6385 37.4842 14.505C37.6421 14.4668 37.8065 14.4414 37.971 14.4414C38.3261 14.4414 38.6681 14.5431 38.9707 14.7276C39.4113 15.0073 39.7139 15.4334 39.806 15.9421L42.9433 33.1494Z" fill="#A49370"/>
<path d="M58.2262 2.47998L48.2157 33.289C48.1828 33.3907 48.0842 33.467 47.9658 33.467C47.9395 33.467 47.9198 33.467 47.9 33.467C47.7553 33.4289 47.6698 33.2953 47.6961 33.1618L54.464 1.49435C54.5824 0.985633 54.8981 0.546867 55.3585 0.273434C55.6611 0.0953839 56.0097 0 56.3714 0C56.5424 0 56.72 0.0254357 56.8844 0.0635892C57.3975 0.197127 57.8315 0.527791 58.0946 0.985633C58.3511 1.44348 58.3972 1.97127 58.2328 2.47362L58.2262 2.47998Z" fill="#A49370"/>
<path d="M63.5487 15.2224L50.3023 34.2992C50.2102 34.4136 50.0589 34.4581 49.9274 34.3818C49.8024 34.3119 49.7498 34.1529 49.8156 34.0257L60.2536 13.3783C60.4903 12.9077 60.8981 12.5707 61.4111 12.4245C61.6019 12.3736 61.786 12.3418 61.9768 12.3418C62.3122 12.3418 62.6411 12.4308 62.9239 12.5898C63.3843 12.8442 63.7066 13.2702 63.8315 13.7789C63.9499 14.2749 63.8578 14.79 63.5487 15.2224Z" fill="#A49370"/>
<path d="M77.7107 12.7803C77.691 13.3017 77.4673 13.785 77.0661 14.1411L52.2637 35.8504C52.1584 35.9522 51.994 35.9458 51.8953 35.8504C51.7901 35.7487 51.7901 35.5897 51.8953 35.488L74.3235 11.4767C74.6852 11.0888 75.1785 10.8662 75.7178 10.8535H75.7967C76.2966 10.8535 76.7767 11.0506 77.1451 11.4131C77.5265 11.7756 77.7304 12.2716 77.7239 12.793L77.7107 12.7803Z" fill="#A49370"/>
<path d="M84.5028 21.9384C84.3449 22.4407 83.9963 22.8477 83.5228 23.0893L53.7611 37.8484C53.6098 37.9183 53.4651 37.8611 53.3993 37.7467C53.327 37.6258 53.3665 37.4732 53.4914 37.3969L81.5759 19.8145C81.885 19.6174 82.2534 19.5156 82.6217 19.5156C82.7861 19.5156 82.9374 19.5347 83.0821 19.5665C83.6083 19.6873 84.0489 19.9989 84.312 20.4631C84.5817 20.9082 84.6474 21.436 84.4962 21.9447L84.5028 21.9384Z" fill="#A49370"/>
<path d="M78.5977 34.1713C78.5977 34.5146 78.4991 34.8453 78.3083 35.1378C78.0255 35.5766 77.5783 35.8755 77.0521 35.9708L54.67 40.1614C54.5319 40.1868 54.3872 40.0914 54.3477 39.9515C54.3148 39.818 54.3872 39.6717 54.5253 39.6272L76.0655 32.4162C76.2826 32.3462 76.493 32.3145 76.6969 32.3145C76.9995 32.3145 77.3086 32.3908 77.5848 32.537C78.065 32.7787 78.4004 33.192 78.5319 33.688C78.5714 33.847 78.5977 34.0123 78.5977 34.1776V34.1713Z" fill="#A49370"/>
<path d="M90.3766 42.3378C90.3766 42.8593 90.1596 43.3425 89.7715 43.705C89.3835 44.0674 88.8573 44.2646 88.3246 44.2201L54.9257 42.5985C54.7876 42.5985 54.6758 42.4777 54.6758 42.3378C54.6758 42.1979 54.7876 42.0835 54.9257 42.0771L88.318 40.4492H88.4298C88.9297 40.4492 89.4098 40.6336 89.7715 40.9707C90.1596 41.3331 90.3766 41.81 90.3766 42.3378Z" fill="#A49370"/>
<path d="M78.3147 50.4315C78.3147 50.5905 78.2884 50.7558 78.249 50.9211C78.1108 51.4171 77.7754 51.8241 77.3018 52.0721C76.8283 52.3138 76.2955 52.3583 75.7957 52.1929L54.6698 44.7085C54.5317 44.6576 54.4594 44.5177 54.4922 44.3778C54.5251 44.2506 54.6435 44.168 54.7619 44.168C54.7816 44.168 54.8014 44.168 54.8211 44.1807L76.7625 48.6383C77.2887 48.7337 77.7425 49.0262 78.0187 49.465C78.2095 49.7575 78.3081 50.0881 78.3081 50.4315H78.3147Z" fill="#A49370"/>
<path d="M70.822 57.3835C70.0591 57.8795 69.0791 57.8858 68.3095 57.3962L48.2229 44.5512C47.6901 44.2141 47.0192 44.1951 46.4733 44.513C45.9274 44.8182 45.6183 45.3969 45.6644 46.001L48.1045 77.6303C48.1966 78.7813 47.5783 79.8686 46.526 80.4155C45.3684 81.0196 44.0003 80.8288 42.7704 79.8941C42.3495 79.5825 42.0272 78.8321 42.0732 78.3043L44.6909 46.0201C44.737 45.4033 44.4278 44.831 43.8819 44.5257C43.6386 44.3731 43.3426 44.2968 43.0466 44.2968C42.7507 44.2968 42.4218 44.3922 42.139 44.5575L21.559 57.7205C20.7895 58.2165 19.8161 58.2483 19.0137 57.8095C18.0995 57.3135 17.5996 56.3025 17.6522 55.0307C17.6719 54.6301 18.0337 54.1086 18.4217 53.9433L37.6534 45.4351C42.1521 43.4384 44.908 38.8981 44.5068 34.1289L43.2571 19.001C43.1913 18.2252 43.6189 17.5003 44.3358 17.1442C45.1448 16.7499 46.105 16.928 46.9601 17.6529C47.1574 17.8246 47.2626 18.079 47.2429 18.3333L45.9209 34.2179C45.5328 38.9426 48.2426 43.4638 52.669 45.4732L71.164 53.8733C71.4929 54.0196 71.7297 54.293 71.7954 54.6046C72.0454 55.8065 71.7034 56.8175 70.8417 57.3835H70.822Z" fill="#A49370"/>
<path d="M59.8129 54.7236C59.8524 55.2069 59.6814 55.6774 59.3196 56.0208C58.9579 56.3705 58.4778 56.5422 57.9779 56.5041C57.4714 56.4723 57.0176 56.2116 56.7282 55.811L51.7954 49.5093C51.6901 49.3757 51.7033 49.185 51.8282 49.0705C51.8874 49.0069 51.9795 48.9688 52.065 48.9688C52.1374 48.9688 52.2031 48.9878 52.2623 49.026L59.096 53.5154C59.5104 53.8015 59.7669 54.2403 59.8063 54.7236H59.8129Z" fill="#A49370"/>
<path d="M59.0293 62.488C59.0293 62.6088 59.0096 62.7296 58.9899 62.8504C58.8846 63.3464 58.5624 63.7661 58.1151 64.0078C57.6745 64.2621 57.1351 64.313 56.6418 64.1604C56.142 64.0014 55.7408 63.658 55.5369 63.2002L49.8016 50.6667C49.7358 50.5332 49.7884 50.3679 49.9266 50.2979C49.966 50.2661 50.0252 50.2598 50.0844 50.2598C50.1831 50.2598 50.2686 50.3043 50.3278 50.3806L58.6742 61.4515C58.9044 61.7567 59.0293 62.1255 59.0293 62.488Z" fill="#A49370"/>
<path d="M55.1829 71.6145C55.1829 71.907 55.1039 72.1868 54.9592 72.4538C54.7093 72.9117 54.2884 73.2423 53.7754 73.3759C53.2623 73.5031 52.7296 73.4267 52.2692 73.1533C51.8219 72.8735 51.5128 72.4475 51.4273 71.9451L47.6981 51.4249C47.6652 51.285 47.7572 51.1514 47.9085 51.1133C47.9348 51.1133 47.9546 51.1133 47.9809 51.1133C48.0927 51.1133 48.2111 51.1832 48.244 51.2977L55.0645 70.9976C55.1368 71.2011 55.1763 71.4173 55.1763 71.6208L55.1829 71.6145Z" fill="#A49370"/>
<path d="M40.4153 34.3507C40.2706 34.427 40.0864 34.3825 40.0009 34.2489L22.5715 8.28543C22.2492 7.80851 22.1439 7.24257 22.2821 6.67662C22.4202 6.11704 22.7819 5.65284 23.2949 5.37304C23.6238 5.19499 23.9856 5.09961 24.3473 5.09961C24.5315 5.09961 24.7222 5.12504 24.9129 5.16956L24.9655 5.18863C25.5312 5.36032 25.9982 5.72914 26.2547 6.23786L40.5403 33.95C40.6126 34.0899 40.56 34.2616 40.4153 34.3507Z" fill="#A49370"/>
</svg>
