<svg width="96" height="86" viewBox="0 0 96 86" fill="none" xmlns="http://www.w3.org/2000/svg">
<path d="M45.5998 54.8679L41.4638 76.2585C41.359 76.7934 41.0376 77.2539 40.5626 77.5586C40.0875 77.8498 39.5216 77.931 38.9697 77.7888C38.4177 77.6466 37.9706 77.3013 37.7121 76.8137C37.4466 76.333 37.4047 75.7777 37.6003 75.2563L45.0199 54.7324C45.0688 54.6106 45.1876 54.5293 45.3133 54.5293C45.3413 54.5293 45.3622 54.5293 45.3902 54.5293C45.5439 54.5699 45.6417 54.7189 45.6067 54.8679H45.5998Z" fill="#A49370"/>
<path d="M43.0775 53.9335L33.7158 72.9812C33.4643 73.4823 33.0311 73.8412 32.4931 73.9969C31.9482 74.1595 31.3893 74.0985 30.8933 73.8277C30.4042 73.5568 30.0689 73.1099 29.9361 72.575C29.8174 72.04 29.9222 71.4916 30.2435 71.0379L42.5466 53.6423C42.6025 53.5611 42.6933 53.5137 42.7981 53.5137C42.847 53.5137 42.9029 53.5272 42.9518 53.5543C43.0845 53.6288 43.1334 53.7981 43.0636 53.9335H43.0775Z" fill="#A49370"/>
<path d="M41.0517 52.6464L32.8008 62.4377C32.4724 62.8508 31.9624 63.1013 31.4105 63.142C30.8655 63.1758 30.3346 62.9794 29.9573 62.6003C29.5661 62.2346 29.3635 61.72 29.3984 61.185C29.4333 60.6569 29.6988 60.1626 30.118 59.8375L40.5906 52.1859C40.6465 52.1521 40.7164 52.125 40.7932 52.125C40.891 52.125 40.9679 52.1589 41.0308 52.213C41.1495 52.3349 41.1635 52.5245 41.0587 52.6532L41.0517 52.6464Z" fill="#A49370"/>
<path d="M37.8804 47.6498L20.2467 52.7351C19.7367 52.8705 19.2057 52.8095 18.7446 52.559C18.2835 52.3085 17.9622 51.8954 17.8154 51.4011C17.6687 50.8458 17.7735 50.2635 18.1089 49.8098C18.4372 49.3494 18.9612 49.0514 19.5481 49.004L37.7407 47.0742C37.7407 47.0742 37.7756 47.0742 37.7896 47.0742C37.9293 47.0742 38.055 47.169 38.09 47.3044C38.1319 47.467 38.0481 47.6227 37.8804 47.6769V47.6498Z" fill="#A49370"/>
<path d="M37.9152 45.0834C37.9152 45.2323 37.7964 45.3542 37.6497 45.361L2.17277 47.0877C1.62084 47.1215 1.06892 46.9319 0.642748 46.5392C0.230551 46.1532 0 45.6386 0 45.0834C0 44.5281 0.230551 44.0067 0.642748 43.6275C1.03399 43.2619 1.53002 43.0723 2.07496 43.0723H2.18674L37.6636 44.8057C37.8104 44.8057 37.9291 44.9344 37.9291 45.0834H37.9152Z" fill="#A49370"/>
<path d="M38.2712 42.4687C38.2712 42.4687 38.2712 42.5161 38.2572 42.55C38.2223 42.699 38.0686 42.787 37.9149 42.7599L11.3526 37.5934C10.7937 37.485 10.3117 37.1668 10.0182 36.6996C9.71781 36.2324 9.63397 35.6771 9.78068 35.1354C9.93439 34.6005 10.2907 34.1603 10.7937 33.903C11.0941 33.7473 11.4155 33.666 11.7508 33.666C11.9744 33.666 12.198 33.6999 12.4076 33.7744L38.0756 42.1979C38.1944 42.2318 38.2782 42.3469 38.2782 42.462L38.2712 42.4687Z" fill="#A49370"/>
<path d="M39.3119 40.0534C39.3119 40.1008 39.2979 40.1482 39.27 40.1956C39.2001 40.3242 39.0324 40.3716 38.8927 40.3039L7.27229 24.5876C6.76228 24.3371 6.392 23.897 6.23131 23.362C6.06364 22.8339 6.1335 22.2719 6.41995 21.7843C6.70639 21.2968 7.17448 20.965 7.73339 20.8296C7.89408 20.7957 8.05476 20.7754 8.22244 20.7754C8.61367 20.7754 9.00491 20.8837 9.34026 21.0936L39.1722 39.8164C39.256 39.8638 39.3049 39.9586 39.3049 40.0466L39.3119 40.0534Z" fill="#A49370"/>
<path d="M40.8705 38.1694C40.7657 38.271 40.591 38.271 40.4792 38.1694L17.2635 18.0654C16.8373 17.6997 16.5928 17.1919 16.5788 16.6298C16.5578 16.0814 16.7744 15.56 17.1796 15.1672C17.5709 14.788 18.0809 14.5781 18.6328 14.5781H18.6887C19.2685 14.5984 19.7925 14.8287 20.1628 15.2417L40.8775 37.7767C40.9823 37.885 40.9753 38.0543 40.8635 38.1627L40.8705 38.1694Z" fill="#A49370"/>
<path d="M45.6139 35.3002V35.3408C45.6139 35.4694 45.516 35.5913 45.3903 35.632C45.2296 35.6658 45.0689 35.5913 45.006 35.4424L38.4668 17.9656C38.2712 17.4509 38.3061 16.9025 38.5716 16.4217C38.8301 15.9342 39.2702 15.5888 39.8151 15.4466C39.9828 15.406 40.1575 15.3789 40.3321 15.3789C40.7094 15.3789 41.0727 15.4872 41.3941 15.6836C41.8622 15.9816 42.1835 16.4352 42.2813 16.9769L45.6139 35.3002Z" fill="#A49370"/>
<path d="M61.8502 2.64082L51.2169 35.4479C51.1819 35.5563 51.0771 35.6375 50.9514 35.6375C50.9234 35.6375 50.9025 35.6375 50.8815 35.6375C50.7278 35.5969 50.637 35.4547 50.6649 35.3125L57.8539 1.59126C57.9797 1.04956 58.315 0.582334 58.8041 0.291167C59.1255 0.10157 59.4957 0 59.88 0C60.0616 0 60.2503 0.0270853 60.4249 0.0677133C60.9699 0.209911 61.431 0.56202 61.7104 1.04956C61.9829 1.53709 62.0318 2.09911 61.8571 2.63405L61.8502 2.64082Z" fill="#A49370"/>
<path d="M67.5024 16.21L53.4318 36.524C53.334 36.6459 53.1733 36.6933 53.0335 36.612C52.9008 36.5375 52.8449 36.3682 52.9148 36.2328L64.0022 14.2463C64.2537 13.7452 64.6868 13.3863 65.2318 13.2306C65.4344 13.1764 65.63 13.1426 65.8326 13.1426C66.1889 13.1426 66.5382 13.2374 66.8387 13.4067C67.3277 13.6775 67.67 14.1312 67.8028 14.6729C67.9285 15.2011 67.8307 15.7495 67.5024 16.21Z" fill="#A49370"/>
<path d="M82.5443 13.6103C82.5233 14.1656 82.2858 14.6802 81.8596 15.0594L55.5139 38.1767C55.4021 38.285 55.2275 38.2783 55.1227 38.1767C55.0109 38.0684 55.0109 37.8991 55.1227 37.7907L78.9463 12.2222C79.3305 11.8091 79.8545 11.5721 80.4274 11.5586H80.5112C81.0422 11.5586 81.5522 11.7685 81.9434 12.1545C82.3486 12.5404 82.5652 13.0686 82.5582 13.6239L82.5443 13.6103Z" fill="#A49370"/>
<path d="M89.7608 23.3611C89.5931 23.8961 89.2229 24.3294 88.7198 24.5867L57.1064 40.303C56.9457 40.3775 56.792 40.3165 56.7221 40.1946C56.6453 40.066 56.6872 39.9035 56.8199 39.8222L86.6519 21.0995C86.9802 20.8896 87.3715 20.7812 87.7627 20.7812C87.9374 20.7812 88.098 20.8016 88.2517 20.8354C88.8107 20.9641 89.2787 21.2959 89.5582 21.7902C89.8446 22.2642 89.9145 22.8262 89.7538 23.3679L89.7608 23.3611Z" fill="#A49370"/>
<path d="M83.4869 36.3893C83.4869 36.755 83.3821 37.1071 83.1795 37.4186C82.8791 37.8858 82.404 38.2041 81.8451 38.3056L58.0704 42.7679C57.9237 42.795 57.77 42.6934 57.7281 42.5445C57.6931 42.4023 57.77 42.2465 57.9167 42.1991L80.7972 34.5205C81.0277 34.446 81.2513 34.4121 81.4679 34.4121C81.7892 34.4121 82.1176 34.4934 82.411 34.6491C82.921 34.9064 83.2773 35.3466 83.4171 35.8747C83.459 36.044 83.4869 36.2201 83.4869 36.3961V36.3893Z" fill="#A49370"/>
<path d="M96 45.0834C96 45.6386 95.7695 46.1532 95.3573 46.5392C94.9451 46.9252 94.3862 47.1351 93.8203 47.0877L58.3434 45.361C58.1966 45.361 58.0779 45.2323 58.0779 45.0834C58.0779 44.9344 58.1966 44.8125 58.3434 44.8057L93.8133 43.0723H93.9321C94.463 43.0723 94.973 43.2686 95.3573 43.6275C95.7695 44.0135 96 44.5213 96 45.0834Z" fill="#A49370"/>
<path d="M83.1869 53.703C83.1869 53.8723 83.1589 54.0483 83.117 54.2244C82.9703 54.7525 82.614 55.1859 82.111 55.45C81.6079 55.7073 81.042 55.7547 80.5111 55.5786L58.0708 47.6088C57.9241 47.5546 57.8472 47.4056 57.8821 47.2567C57.9171 47.1212 58.0428 47.0332 58.1686 47.0332C58.1895 47.0332 58.2105 47.0332 58.2315 47.0467L81.5381 51.7935C82.097 51.895 82.579 52.2065 82.8725 52.6737C83.0751 52.9852 83.1799 53.3373 83.1799 53.703H83.1869Z" fill="#A49370"/>
<path d="M75.2291 61.1061C74.4187 61.6342 73.3777 61.641 72.5603 61.1196L51.2238 47.4415C50.658 47.0826 49.9453 47.0623 49.3655 47.4009C48.7856 47.7259 48.4572 48.3421 48.5061 48.9854L51.0981 82.666C51.1959 83.8916 50.5392 85.0495 49.4214 85.6318C48.1918 86.2751 46.7386 86.072 45.4321 85.0766C44.985 84.7448 44.6427 83.9458 44.6916 83.3837L47.4722 49.0057C47.5211 48.3489 47.1927 47.7395 46.6128 47.4144C46.3543 47.2519 46.0399 47.1707 45.7256 47.1707C45.4112 47.1707 45.0618 47.2722 44.7614 47.4483L22.901 61.465C22.0836 61.9931 21.0496 62.027 20.1973 61.5598C19.2262 61.0316 18.6952 59.9549 18.7511 58.6007C18.772 58.1741 19.1563 57.6188 19.5685 57.4428L39.9967 48.3827C44.7754 46.2565 47.7027 41.4218 47.2765 36.3433L45.9491 20.2343C45.8793 19.4082 46.3334 18.6363 47.0949 18.2571C47.9542 17.8373 48.9742 18.0269 49.8825 18.7988C50.0921 18.9816 50.2038 19.2525 50.1829 19.5233L48.7786 36.4381C48.3664 41.4692 51.2448 46.2836 55.9466 48.4234L75.5924 57.3683C75.9417 57.524 76.1932 57.8152 76.2631 58.147C76.5286 59.4268 76.1653 60.5034 75.2501 61.1061H75.2291Z" fill="#A49370"/>
<path d="M63.5342 58.2745C63.5761 58.7892 63.3945 59.2902 63.0102 59.6559C62.626 60.0283 62.116 60.2111 61.585 60.1705C61.047 60.1367 60.565 59.859 60.2576 59.4324L55.0178 52.722C54.906 52.5798 54.92 52.3767 55.0527 52.2548C55.1156 52.1871 55.2134 52.1465 55.3042 52.1465C55.3811 52.1465 55.4509 52.1668 55.5138 52.2074L62.7727 56.988C63.2128 57.2927 63.4853 57.7599 63.5272 58.2745H63.5342Z" fill="#A49370"/>
<path d="M62.7029 66.5428C62.7029 66.6714 62.6819 66.8001 62.661 66.9287C62.5492 67.4569 62.2069 67.9038 61.7318 68.1611C61.2637 68.432 60.6908 68.4861 60.1668 68.3236C59.6359 68.1543 59.2097 67.7887 58.9931 67.3011L52.901 53.9548C52.8311 53.8127 52.887 53.6366 53.0337 53.5621C53.0757 53.5283 53.1385 53.5215 53.2014 53.5215C53.3062 53.5215 53.397 53.5689 53.4599 53.6501L62.3256 65.439C62.5702 65.764 62.7029 66.1568 62.7029 66.5428Z" fill="#A49370"/>
<path d="M58.6155 76.2585C58.6155 76.57 58.5317 76.8679 58.378 77.1523C58.1125 77.6399 57.6654 77.992 57.1204 78.1342C56.5755 78.2696 56.0096 78.1883 55.5206 77.8972C55.0455 77.5992 54.7171 77.1455 54.6263 76.6106L50.665 54.7595C50.6301 54.6106 50.7279 54.4684 50.8886 54.4277C50.9165 54.4277 50.9375 54.4277 50.9654 54.4277C51.0842 54.4277 51.21 54.5022 51.2449 54.6241L58.4898 75.6017C58.5666 75.8184 58.6086 76.0486 58.6086 76.2653L58.6155 76.2585Z" fill="#A49370"/>
<path d="M42.9308 36.5778C42.7771 36.6591 42.5815 36.6117 42.4907 36.4695L23.9767 8.82212C23.6344 8.31427 23.5226 7.71163 23.6693 7.10898C23.816 6.5131 24.2003 6.01879 24.7452 5.72085C25.0945 5.53126 25.4788 5.42969 25.863 5.42969C26.0587 5.42969 26.2613 5.45677 26.4639 5.50417L26.5198 5.52449C27.1206 5.70731 27.6166 6.10005 27.8891 6.64176L43.0635 36.1512C43.1404 36.3002 43.0845 36.483 42.9308 36.5778Z" fill="#A49370"/>
</svg>
