<svg width="155" height="29" viewBox="0 0 155 29" fill="none" xmlns="http://www.w3.org/2000/svg">
<g clip-path="url(#clip0_412_212)">
<path d="M34.2758 13.3795C33.4226 13.1342 32.7371 12.9646 32.0695 12.7408C30.1062 12.0832 29.1458 10.7712 29.1433 8.68235C29.1417 7.36795 29.1752 6.05108 29.2726 4.74079C29.4321 2.59347 30.6044 1.16138 32.6119 0.530106C33.6107 0.215704 34.6947 0.0469797 35.7418 0.0403954C42.0089 -0.00157981 48.2761 0.0198193 54.544 0.032165C55.0038 0.032988 55.4709 0.0922471 55.9217 0.188543C57.6175 0.549859 58.7554 1.73998 58.901 3.64862C59.0278 5.30458 59.0049 6.99758 58.8151 8.64778C58.5247 11.177 56.9213 12.6206 54.517 13.2091C53.8348 13.3762 53.1402 13.4914 52.4212 13.749C52.6568 13.8264 52.8932 13.9021 53.1272 13.9819C54.0786 14.3054 55.0529 14.5762 55.9756 14.9671C57.1119 15.4486 57.6854 16.3655 57.678 17.6247C57.6674 19.4329 57.7214 21.2436 57.6338 23.0486C57.521 25.3893 55.9683 27.8387 52.8343 28.0568C52.1553 28.1045 51.4747 28.1597 50.7949 28.1605C44.8541 28.1671 38.9142 28.172 32.9735 28.1506C32.1628 28.1473 31.3365 28.0667 30.5438 27.8963C28.7629 27.5128 27.751 26.3449 27.6553 24.5012C27.5882 23.2181 27.6577 21.9259 27.7101 20.6395C27.7534 19.5729 27.8238 18.5045 27.9465 17.4436C28.1551 15.6469 29.2889 14.3795 31.06 13.9696C32.0622 13.7375 33.0847 13.5951 34.275 13.3811L34.2758 13.3795ZM43.3244 10.5441C43.3244 10.5441 43.3244 10.5367 43.3244 10.5334C44.2774 10.5334 45.2321 10.5729 46.1818 10.5227C47.2903 10.4642 47.9178 9.77206 47.9341 8.6593C47.9497 7.56383 47.9562 6.46754 47.9358 5.37207C47.9194 4.47824 47.4302 3.88565 46.5451 3.86096C44.6414 3.80746 42.7345 3.79429 40.8317 3.85685C39.7339 3.89306 39.203 4.47166 39.1384 5.58112C39.0729 6.70046 39.0647 7.82721 39.1081 8.94737C39.1482 10.0025 39.7135 10.507 40.7925 10.5383C41.6359 10.563 42.4801 10.5432 43.3244 10.5432V10.5441ZM43.1305 17.3482V17.3506C42.3402 17.3506 41.5484 17.3227 40.7598 17.3622C40.3605 17.3819 39.9515 17.4815 39.576 17.6231C39.0533 17.8206 38.7162 18.2502 38.6876 18.8074C38.6254 20.0387 38.5821 21.2741 38.6132 22.5054C38.6336 23.3029 39.0083 23.7498 39.7961 23.851C41.8805 24.1193 43.9804 24.1292 46.064 23.8494C46.9508 23.73 47.386 23.1424 47.4163 22.2445C47.4531 21.149 47.449 20.0502 47.4253 18.9539C47.4097 18.2132 47.0073 17.7169 46.2996 17.5152C45.9634 17.4198 45.6059 17.3671 45.2558 17.3548C44.5482 17.3309 43.8389 17.3473 43.1297 17.3473L43.1305 17.3482Z" fill="#9C9C9C"/>
<path d="M26.0675 26.9064C24.4936 27.8521 22.9106 28.1574 21.2492 28.1574C15.4148 28.1574 9.57955 28.1574 3.74516 28.1591C2.79048 28.1591 1.83663 28.1624 0.881953 28.1582C0.614448 28.1566 0.346942 28.1319 -0.000732422 28.1138V22.1846C0.220143 22.2455 0.42384 22.276 0.605449 22.3566C1.94952 22.9583 3.35576 23.1821 4.82418 23.1665C8.2592 23.1303 11.6942 23.136 15.1301 23.1163C15.5375 23.1138 15.9506 23.0941 16.3506 23.0241C16.8873 22.9303 17.2898 22.578 17.3012 22.0364C17.3405 20.15 17.3159 18.2628 17.3159 16.2949C17.0034 16.2661 16.7417 16.2225 16.4807 16.2225C13.7811 16.2159 11.0823 16.1928 8.38355 16.2315C7.72419 16.2406 7.06811 16.457 6.39976 16.5805C6.20506 16.0398 6.16825 11.5583 6.39158 10.7385C7.47878 11.5287 8.72223 11.3459 9.93377 11.3509C12.0877 11.3591 14.2417 11.3542 16.3956 11.3525C16.641 11.3525 16.8889 11.3632 17.131 11.3328C18.0497 11.2175 18.5929 10.6998 18.6199 9.77475C18.6657 8.21261 18.6371 6.64801 18.6485 5.08505C18.6518 4.66612 18.4588 4.4834 18.0522 4.49575C17.8346 4.50233 17.6162 4.4941 17.3977 4.4941C13.7443 4.4941 10.0908 4.49246 6.43739 4.49657C5.13504 4.49822 3.81306 4.36982 2.55243 5.16324C2.50662 4.86859 2.44199 4.69081 2.45999 4.52209C2.54343 3.70563 2.58188 2.87682 2.76022 2.08012C3.05226 0.774771 3.95049 0.0825919 5.2692 0.0142793C5.32401 0.0118102 5.378 0.0118102 5.43281 0.0118102C11.8947 0.0118102 18.3565 0.0109872 24.8183 0.0142793C26.214 0.0142793 27.4034 0.536089 28.4832 1.49493C28.291 1.8974 28.1208 2.26448 27.9417 2.62826C27.212 4.11221 26.65 5.64554 26.5199 7.31632C26.4291 8.47846 26.5862 9.61343 26.821 10.7443C26.9543 11.3854 27.0795 12.0274 27.212 12.6908C26.6312 13.1492 25.9006 13.0538 25.1652 13.3698C25.8974 13.5632 26.5265 13.7295 27.2463 13.9196C25.1317 18.1295 24.1426 22.3805 26.0675 26.9064Z" fill="#9C9C9C"/>
<path d="M153.18 23.3596C153.078 24.088 152.995 24.7267 152.896 25.3637C152.783 26.0946 152.665 26.8246 152.534 27.5522C152.43 28.1275 152.383 28.1752 151.782 28.181C150.911 28.1892 150.039 28.1596 149.167 28.1596C143.199 28.1571 137.231 28.1596 131.263 28.1571C130.882 28.1571 130.498 28.1621 130.121 28.1226C127.947 27.8938 126.539 26.4098 126.479 24.209C126.456 23.3654 126.547 22.5111 126.661 21.6716C127.096 18.4699 127.561 15.2716 128.016 12.0724C128.09 11.5572 128.173 11.0436 128.249 10.5292C128.39 9.56871 128.898 8.85348 129.719 8.36871C130.552 7.87735 131.441 7.55307 132.424 7.55307C138.501 7.55143 144.577 7.54813 150.654 7.54896C151.749 7.54896 152.746 7.87406 153.633 8.52179C154.585 9.21644 155.078 10.1448 154.989 11.3448C154.861 13.0658 154.725 14.7868 154.589 16.507C154.498 17.651 154.399 18.7942 154.297 20.0271C153.953 20.0543 153.64 20.1004 153.326 20.1012C148.258 20.1069 143.19 20.1069 138.121 20.1086C137.8 20.1086 137.479 20.1086 137.112 20.1086C136.841 21.1349 136.627 22.0855 136.649 23.0814C136.663 23.6551 136.958 24.023 137.48 24.1629C137.869 24.2674 138.284 24.3152 138.688 24.316C142.23 24.325 145.773 24.3209 149.315 24.3127C150.498 24.3102 151.655 24.1785 152.692 23.5267C152.799 23.4592 152.936 23.4419 153.178 23.3621L153.18 23.3596ZM141.596 16.3349C141.596 16.3399 141.596 16.3456 141.596 16.3506C142.466 16.3506 143.337 16.3728 144.206 16.344C145.055 16.316 145.381 16.0189 145.488 15.1728C145.594 14.3333 145.665 13.488 145.722 12.6428C145.769 11.9448 145.444 11.5489 144.721 11.5341C142.955 11.4971 141.187 11.4897 139.421 11.5185C138.593 11.5317 138.234 11.9366 138.129 12.8033C138.041 13.5358 137.965 14.2691 137.883 15.0024C137.783 15.9028 138.078 16.2872 138.987 16.3259C139.855 16.3629 140.726 16.3341 141.595 16.3341L141.596 16.3349Z" fill="#9C9C9C"/>
<path d="M84.2904 9.46199H95.551C95.551 9.81919 95.5804 10.1385 95.5461 10.4513C95.2426 13.2562 94.9293 16.0603 94.6159 18.8636C94.4761 20.1155 94.3255 21.3665 94.1873 22.6192C94.0016 24.3031 94.2225 24.5953 95.8839 24.5821C97.4063 24.5698 98.9312 24.5056 100.449 24.3805C101.242 24.3155 101.216 24.2323 101.273 23.4595C101.46 20.9179 101.666 18.378 101.855 15.8373C102.007 13.7879 102.181 11.7385 102.271 9.68586C102.299 9.0266 102.091 8.35665 101.989 7.67187C102.441 7.50562 111.803 7.45788 112.85 7.66282C112.821 8.07517 112.803 8.50233 112.76 8.92784C112.292 13.5064 111.817 18.0834 111.35 22.662C111.231 23.834 111.102 25.006 111.035 26.1813C111.002 26.7698 111.096 27.3665 111.137 28.0471C111.054 28.0693 110.884 28.1549 110.714 28.1549C107.662 28.1632 104.609 28.1632 101.557 28.1574C101.375 28.1574 101.192 28.0973 100.942 28.0529C100.976 27.485 101.007 26.9484 101.041 26.378C100.587 26.3401 100.365 26.6521 100.193 26.9336C99.6446 27.8241 98.8273 28.1599 97.8424 28.1517C95.0094 28.127 92.1749 28.1385 89.3452 28.02C88.4175 27.9813 87.4653 27.685 86.5924 27.3344C84.8704 26.6422 84.1423 25.1879 83.9133 23.4134C83.7415 22.0858 83.9853 20.7895 84.153 19.4875C84.3698 17.8035 84.6684 16.1286 84.8401 14.4406C84.998 12.885 85.0488 11.3155 84.3559 9.8373C84.3141 9.74759 84.319 9.63566 84.2904 9.46199Z" fill="#9C9C9C"/>
<path d="M124.838 28.096H113.156C113.121 27.9981 113.074 27.9306 113.091 27.9034C113.896 26.5956 113.924 25.0861 114.156 23.6376C114.603 20.8524 115.046 18.0648 115.392 15.2664C115.8 11.9783 116.149 8.68124 116.426 5.37919C116.533 4.10594 116.397 2.80882 116.322 1.5257C116.296 1.07385 116.123 0.63023 116.018 0.186609C116.632 -0.0356123 126.207 -0.0742954 127.149 0.152041C127.138 0.372617 127.14 0.609653 127.113 0.843398C126.697 4.32405 126.263 7.80305 125.863 11.2862C125.374 15.5306 124.912 19.7783 124.439 24.0252C124.382 24.5429 124.319 25.0598 124.271 25.5783C124.196 26.4055 124.177 27.226 124.839 28.0968L124.838 28.096Z" fill="#9C9C9C"/>
<path d="M69.6903 15.6944C69.6077 16.7084 69.5333 17.6302 69.4588 18.552C69.2494 21.1455 69.0343 23.7372 68.8396 26.3315C68.8158 26.6508 68.8911 26.98 68.9459 27.301C68.986 27.5356 69.0686 27.7619 69.1316 27.9899C68.4363 28.2228 58.7267 28.2236 58.0191 27.9882C59.1881 26.4343 58.9623 24.5586 59.1955 22.7998C59.5767 19.9232 59.8409 17.0311 60.1518 14.1455C60.2483 13.2517 60.335 12.357 60.4348 11.3833C60.794 11.3619 61.1089 11.3274 61.4239 11.3274C67.39 11.3241 73.3561 11.3274 79.3222 11.3241C80.5394 11.3241 81.7804 11.4714 82.9961 10.6113C83.064 12.6006 83.0337 14.4088 83.028 16.2072C82.8848 16.2245 82.8169 16.2549 82.7826 16.2327C81.9064 15.6796 80.937 15.678 79.9455 15.6862C76.8672 15.7109 73.7888 15.6953 70.7105 15.6953C70.4127 15.6953 70.1157 15.6953 69.6895 15.6953L69.6903 15.6944Z" fill="#9C9C9C"/>
<path d="M60.5765 4.77223V0.849609H83.9787C84.0434 2.25866 84.0123 3.61174 83.9951 4.95001C80.1461 4.73684 76.3667 4.86194 72.5897 4.84137C68.8005 4.82079 65.0104 4.84137 61.2203 4.83972C61.0347 4.83972 60.849 4.80186 60.5765 4.77223Z" fill="#9C9C9C"/>
</g>
<defs>
<clipPath id="clip0_412_212">
<rect width="155" height="28.1818" fill="white"/>
</clipPath>
</defs>
</svg>
