<svg width="44" height="44" viewBox="0 0 44 44" fill="none" xmlns="http://www.w3.org/2000/svg">
<path d="M22 35.9845V36M8 17.3645V17.38M36 17.3645V17.38M15.7778 34.588C13.655 33.5552 11.8286 32.0034 10.4687 30.0772C9.10882 28.1509 8.25956 25.9128 8 23.5711M28.2222 34.588C30.345 33.5552 32.1714 32.0034 33.5313 30.0772C34.8912 28.1509 35.7404 25.9128 36 23.5711M12.9778 11.1578C15.4793 9.11572 18.6121 8 21.8444 8C25.0768 8 28.2096 9.11572 30.7111 11.1578M17.3333 22.0195C17.3333 23.254 17.825 24.4381 18.7002 25.3111C19.5753 26.184 20.7623 26.6745 22 26.6745C23.2377 26.6745 24.4247 26.184 25.2998 25.3111C26.175 24.4381 26.6667 23.254 26.6667 22.0195C26.6667 20.7849 26.175 19.6009 25.2998 18.7279C24.4247 17.8549 23.2377 17.3645 22 17.3645C20.7623 17.3645 19.5753 17.8549 18.7002 18.7279C17.825 19.6009 17.3333 20.7849 17.3333 22.0195Z" stroke="#101010" stroke-width="2" stroke-linecap="round" stroke-linejoin="round"/>
</svg>
