<svg width="153" height="31" viewBox="0 0 153 31" fill="none" xmlns="http://www.w3.org/2000/svg">
<path d="M23.6129 10.0168L27.2534 14.9922C27.3144 11.3522 30.1211 8.42292 33.5583 8.42292C36.9955 8.42292 39.8632 11.4168 39.8632 15.0999C39.8632 18.783 37.0362 21.7769 33.5583 21.7769C31.6058 21.7769 29.8567 20.8292 28.6974 19.343C28.6771 19.3215 28.6568 19.2784 28.6161 19.2353L21.701 9.73678L20.5418 8.14292C20.4401 8.01369 20.3587 7.86291 20.257 7.73368C18.5486 5.49366 16.0877 3.92133 13.2606 3.49056C12.7318 3.40441 12.203 3.36133 11.6742 3.36133C5.57273 3.40441 0.610168 8.65985 0.610168 15.0999C0.610168 21.54 5.55239 26.7954 11.6539 26.7954C16.0266 26.7954 19.7892 24.1031 21.579 20.2046L17.9588 15.2291C17.8978 18.8476 15.0911 21.7984 11.6539 21.7984C8.21671 21.7984 5.34901 18.8046 5.34901 15.1215C5.34901 11.4383 8.17604 8.44446 11.6539 8.44446C13.586 8.44446 15.3148 9.37062 16.4741 10.8137L22.1892 18.6323L24.7925 22.2077C26.5009 24.5769 29.0432 26.2139 31.9516 26.6662C32.4804 26.7523 33.0092 26.7954 33.5583 26.7954C39.6395 26.7954 44.602 21.5615 44.602 15.0999C44.602 8.63831 39.6598 3.40441 33.5583 3.40441C29.1856 3.40441 25.4026 6.09674 23.6129 9.99524V10.0168Z" fill="#9C9C9C"/>
<path d="M5.00323 0V3.94158C2.80669 5.32006 1.03726 7.43085 0 9.92934V0H5.00323Z" fill="#9C9C9C"/>
<path d="M5.00323 26.2573V30.1989H0V20.2695C1.03726 22.7896 2.78635 24.8788 5.00323 26.2573Z" fill="#9C9C9C"/>
<path d="M39.9649 26.2573V30.1989H44.9681V20.2695C43.9309 22.7896 42.1818 24.8788 39.9649 26.2573Z" fill="#9C9C9C"/>
<path d="M53.9592 29.9188V4.88281H72.4509C78.0925 4.88281 81.3162 6.68465 81.3162 10.8573C81.3162 13.8446 79.4805 16.2628 75.406 16.737C79.973 17.2586 82.4804 19.7243 82.4804 23.1857C82.4804 27.9748 78.6298 29.9188 72.4062 29.9188H53.9592ZM60.0485 15.0774H71.0182C74.2419 15.0774 75.5851 14.0817 75.5851 12.2798C75.5851 10.8099 74.8687 9.52966 71.7793 9.52966H60.0485V15.03V15.0774ZM60.0485 25.1772H71.5554C74.4658 25.1772 76.212 24.5133 76.212 22.1899C76.212 20.0562 74.3762 19.1078 70.7943 19.1078H60.0485V25.1772Z" fill="#9C9C9C"/>
<path d="M87.0474 29.9188V4.88281H103.345C110.643 4.88281 114.628 7.9649 114.628 13.3704C114.628 18.7759 110.733 22.3322 103.39 22.3322H93.1367V29.9188H87.0474ZM93.0919 17.6379H103.524C106.972 17.6379 108.449 15.8835 108.449 13.4652C108.449 11.3315 106.972 9.57707 103.48 9.57707H93.0919V17.6379Z" fill="#9C9C9C"/>
<path d="M118.569 29.9188V4.88281H125.374L135.493 20.6726L135.762 21.1942L136.031 20.6726L146.15 4.88281H153V29.9188H147V15.7887L146.866 16.1206L138.269 29.9188H133.344L124.748 16.1206L124.568 15.7887V16.2154V29.9188H118.569Z" fill="#9C9C9C"/>
</svg>
